solid OpenSCAD_Model
  facet normal -0.671532 -0.740976 0
    outer loop
      vertex -1.05359 -1.05359 0
      vertex -0.945246 -1.15178 0.0999994
      vertex -1.05359 -1.05359 0.0999994
    endloop
  endfacet
  facet normal -0.671532 -0.740976 -0
    outer loop
      vertex -0.945246 -1.15178 0.0999994
      vertex -1.05359 -1.05359 0
      vertex -0.945246 -1.15178 0
    endloop
  endfacet
  facet normal -0.941545 0.336887 0
    outer loop
      vertex -1.42584 0.432524 0
      vertex -1.37658 0.570198 0.0999994
      vertex -1.37658 0.570198 0
    endloop
  endfacet
  facet normal -0.941545 0.336887 0
    outer loop
      vertex -1.37658 0.570198 0.0999994
      vertex -1.42584 0.432524 0
      vertex -1.42584 0.432524 0.0999994
    endloop
  endfacet
  facet normal 0.989182 0.146696 0
    outer loop
      vertex 1.48282 0.146045 0.0999994
      vertex 1.46137 0.290684 0
      vertex 1.46137 0.290684 0.0999994
    endloop
  endfacet
  facet normal 0.989182 0.146696 0
    outer loop
      vertex 1.46137 0.290684 0
      vertex 1.48282 0.146045 0.0999994
      vertex 1.48282 0.146045 0
    endloop
  endfacet
  facet normal 0.998794 0.0491036 0
    outer loop
      vertex 1.49 0 0.0999994
      vertex 1.48282 0.146045 0
      vertex 1.48282 0.146045 0.0999994
    endloop
  endfacet
  facet normal 0.998794 0.0491036 0
    outer loop
      vertex 1.48282 0.146045 0
      vertex 1.49 0 0.0999994
      vertex 1.49 0 0
    endloop
  endfacet
  facet normal -0.514089 -0.857737 0
    outer loop
      vertex -0.827799 -1.23889 0
      vertex -0.702381 -1.31406 0.0999994
      vertex -0.827799 -1.23889 0.0999994
    endloop
  endfacet
  facet normal -0.514089 -0.857737 -0
    outer loop
      vertex -0.702381 -1.31406 0.0999994
      vertex -0.827799 -1.23889 0
      vertex -0.702381 -1.31406 0
    endloop
  endfacet
  facet normal 0.671532 0.740976 -0
    outer loop
      vertex 1.05359 1.05359 0
      vertex 0.945246 1.15178 0.0999994
      vertex 1.05359 1.05359 0.0999994
    endloop
  endfacet
  facet normal 0.671532 0.740976 0
    outer loop
      vertex 0.945246 1.15178 0.0999994
      vertex 1.05359 1.05359 0
      vertex 0.945246 1.15178 0
    endloop
  endfacet
  facet normal -0.146696 -0.989182 0
    outer loop
      vertex -0.290684 -1.46137 0
      vertex -0.146045 -1.48282 0.0999994
      vertex -0.290684 -1.46137 0.0999994
    endloop
  endfacet
  facet normal -0.146696 -0.989182 -0
    outer loop
      vertex -0.146045 -1.48282 0.0999994
      vertex -0.290684 -1.46137 0
      vertex -0.146045 -1.48282 0
    endloop
  endfacet
  facet normal 0.740976 0.671532 0
    outer loop
      vertex 1.15178 0.945246 0.0999994
      vertex 1.05359 1.05359 0
      vertex 1.05359 1.05359 0.0999994
    endloop
  endfacet
  facet normal 0.740976 0.671532 0
    outer loop
      vertex 1.05359 1.05359 0
      vertex 1.15178 0.945246 0.0999994
      vertex 1.15178 0.945246 0
    endloop
  endfacet
  facet normal 0.427567 0.903984 -0
    outer loop
      vertex 0.702381 1.31406 0
      vertex 0.570198 1.37658 0.0999994
      vertex 0.702381 1.31406 0.0999994
    endloop
  endfacet
  facet normal 0.427567 0.903984 0
    outer loop
      vertex 0.570198 1.37658 0.0999994
      vertex 0.702381 1.31406 0
      vertex 0.570198 1.37658 0
    endloop
  endfacet
  facet normal 0.0491036 -0.998794 0
    outer loop
      vertex 0 -1.49 0
      vertex 0.146045 -1.48282 0.0999994
      vertex 0 -1.49 0.0999994
    endloop
  endfacet
  facet normal 0.0491036 -0.998794 0
    outer loop
      vertex 0.146045 -1.48282 0.0999994
      vertex 0 -1.49 0
      vertex 0.146045 -1.48282 0
    endloop
  endfacet
  facet normal 0.989182 -0.146696 0
    outer loop
      vertex 1.46137 -0.290684 0.0999994
      vertex 1.48282 -0.146045 0
      vertex 1.48282 -0.146045 0.0999994
    endloop
  endfacet
  facet normal 0.989182 -0.146696 0
    outer loop
      vertex 1.48282 -0.146045 0
      vertex 1.46137 -0.290684 0.0999994
      vertex 1.46137 -0.290684 0
    endloop
  endfacet
  facet normal 0.903984 0.427567 0
    outer loop
      vertex 1.37658 0.570198 0.0999994
      vertex 1.31406 0.702381 0
      vertex 1.31406 0.702381 0.0999994
    endloop
  endfacet
  facet normal 0.903984 0.427567 0
    outer loop
      vertex 1.31406 0.702381 0
      vertex 1.37658 0.570198 0.0999994
      vertex 1.37658 0.570198 0
    endloop
  endfacet
  facet normal -0.242986 0.97003 0
    outer loop
      vertex -0.290684 1.46137 0
      vertex -0.432524 1.42584 0.0999994
      vertex -0.290684 1.46137 0.0999994
    endloop
  endfacet
  facet normal -0.242986 0.97003 0
    outer loop
      vertex -0.432524 1.42584 0.0999994
      vertex -0.290684 1.46137 0
      vertex -0.432524 1.42584 0
    endloop
  endfacet
  facet normal -0.80319 0.595723 0
    outer loop
      vertex -1.23889 0.827799 0
      vertex -1.15178 0.945246 0.0999994
      vertex -1.15178 0.945246 0
    endloop
  endfacet
  facet normal -0.80319 0.595723 0
    outer loop
      vertex -1.15178 0.945246 0.0999994
      vertex -1.23889 0.827799 0
      vertex -1.23889 0.827799 0.0999994
    endloop
  endfacet
  facet normal 0.242986 0.97003 -0
    outer loop
      vertex 0.432524 1.42584 0
      vertex 0.290684 1.46137 0.0999994
      vertex 0.432524 1.42584 0.0999994
    endloop
  endfacet
  facet normal 0.242986 0.97003 0
    outer loop
      vertex 0.290684 1.46137 0.0999994
      vertex 0.432524 1.42584 0
      vertex 0.290684 1.46137 0
    endloop
  endfacet
  facet normal 0.336887 0.941545 -0
    outer loop
      vertex 0.570198 1.37658 0
      vertex 0.432524 1.42584 0.0999994
      vertex 0.570198 1.37658 0.0999994
    endloop
  endfacet
  facet normal 0.336887 0.941545 0
    outer loop
      vertex 0.432524 1.42584 0.0999994
      vertex 0.570198 1.37658 0
      vertex 0.432524 1.42584 0
    endloop
  endfacet
  facet normal 0.941545 0.336887 0
    outer loop
      vertex 1.42584 0.432524 0.0999994
      vertex 1.37658 0.570198 0
      vertex 1.37658 0.570198 0.0999994
    endloop
  endfacet
  facet normal 0.941545 0.336887 0
    outer loop
      vertex 1.37658 0.570198 0
      vertex 1.42584 0.432524 0.0999994
      vertex 1.42584 0.432524 0
    endloop
  endfacet
  facet normal 0.595723 0.80319 -0
    outer loop
      vertex 0.945246 1.15178 0
      vertex 0.827799 1.23889 0.0999994
      vertex 0.945246 1.15178 0.0999994
    endloop
  endfacet
  facet normal 0.595723 0.80319 0
    outer loop
      vertex 0.827799 1.23889 0.0999994
      vertex 0.945246 1.15178 0
      vertex 0.827799 1.23889 0
    endloop
  endfacet
  facet normal -0.857737 -0.514089 0
    outer loop
      vertex -1.23889 -0.827799 0
      vertex -1.31406 -0.702381 0.0999994
      vertex -1.31406 -0.702381 0
    endloop
  endfacet
  facet normal -0.857737 -0.514089 0
    outer loop
      vertex -1.31406 -0.702381 0.0999994
      vertex -1.23889 -0.827799 0
      vertex -1.23889 -0.827799 0.0999994
    endloop
  endfacet
  facet normal 0.514089 0.857737 -0
    outer loop
      vertex 0.827799 1.23889 0
      vertex 0.702381 1.31406 0.0999994
      vertex 0.827799 1.23889 0.0999994
    endloop
  endfacet
  facet normal 0.514089 0.857737 0
    outer loop
      vertex 0.702381 1.31406 0.0999994
      vertex 0.827799 1.23889 0
      vertex 0.702381 1.31406 0
    endloop
  endfacet
  facet normal 0.941545 -0.336887 0
    outer loop
      vertex 1.37658 -0.570198 0.0999994
      vertex 1.42584 -0.432524 0
      vertex 1.42584 -0.432524 0.0999994
    endloop
  endfacet
  facet normal 0.941545 -0.336887 0
    outer loop
      vertex 1.42584 -0.432524 0
      vertex 1.37658 -0.570198 0.0999994
      vertex 1.37658 -0.570198 0
    endloop
  endfacet
  facet normal -0.857737 0.514089 0
    outer loop
      vertex -1.31406 0.702381 0
      vertex -1.23889 0.827799 0.0999994
      vertex -1.23889 0.827799 0
    endloop
  endfacet
  facet normal -0.857737 0.514089 0
    outer loop
      vertex -1.23889 0.827799 0.0999994
      vertex -1.31406 0.702381 0
      vertex -1.31406 0.702381 0.0999994
    endloop
  endfacet
  facet normal -0.97003 -0.242986 0
    outer loop
      vertex -1.42584 -0.432524 0
      vertex -1.46137 -0.290684 0.0999994
      vertex -1.46137 -0.290684 0
    endloop
  endfacet
  facet normal -0.97003 -0.242986 0
    outer loop
      vertex -1.46137 -0.290684 0.0999994
      vertex -1.42584 -0.432524 0
      vertex -1.42584 -0.432524 0.0999994
    endloop
  endfacet
  facet normal 0.0491036 0.998794 -0
    outer loop
      vertex 0.146045 1.48282 0
      vertex 0 1.49 0.0999994
      vertex 0.146045 1.48282 0.0999994
    endloop
  endfacet
  facet normal 0.0491036 0.998794 0
    outer loop
      vertex 0 1.49 0.0999994
      vertex 0.146045 1.48282 0
      vertex 0 1.49 0
    endloop
  endfacet
  facet normal 0.857737 0.514089 0
    outer loop
      vertex 1.31406 0.702381 0.0999994
      vertex 1.23889 0.827799 0
      vertex 1.23889 0.827799 0.0999994
    endloop
  endfacet
  facet normal 0.857737 0.514089 0
    outer loop
      vertex 1.23889 0.827799 0
      vertex 1.31406 0.702381 0.0999994
      vertex 1.31406 0.702381 0
    endloop
  endfacet
  facet normal -0.941545 -0.336887 0
    outer loop
      vertex -1.37658 -0.570198 0
      vertex -1.42584 -0.432524 0.0999994
      vertex -1.42584 -0.432524 0
    endloop
  endfacet
  facet normal -0.941545 -0.336887 0
    outer loop
      vertex -1.42584 -0.432524 0.0999994
      vertex -1.37658 -0.570198 0
      vertex -1.37658 -0.570198 0.0999994
    endloop
  endfacet
  facet normal -0.671532 0.740976 0
    outer loop
      vertex -0.945246 1.15178 0
      vertex -1.05359 1.05359 0.0999994
      vertex -0.945246 1.15178 0.0999994
    endloop
  endfacet
  facet normal -0.671532 0.740976 0
    outer loop
      vertex -1.05359 1.05359 0.0999994
      vertex -0.945246 1.15178 0
      vertex -1.05359 1.05359 0
    endloop
  endfacet
  facet normal 0.97003 -0.242986 0
    outer loop
      vertex 1.42584 -0.432524 0.0999994
      vertex 1.46137 -0.290684 0
      vertex 1.46137 -0.290684 0.0999994
    endloop
  endfacet
  facet normal 0.97003 -0.242986 0
    outer loop
      vertex 1.46137 -0.290684 0
      vertex 1.42584 -0.432524 0.0999994
      vertex 1.42584 -0.432524 0
    endloop
  endfacet
  facet normal 0 0 -1
    outer loop
      vertex 1.48282 -0.146045 0
      vertex 1.48282 0.146045 0
      vertex 1.49 0 0
    endloop
  endfacet
  facet normal 0 0 -1
    outer loop
      vertex 1.46137 -0.290684 0
      vertex 1.48282 0.146045 0
      vertex 1.48282 -0.146045 0
    endloop
  endfacet
  facet normal 0 0 -1
    outer loop
      vertex 1.46137 -0.290684 0
      vertex 1.46137 0.290684 0
      vertex 1.48282 0.146045 0
    endloop
  endfacet
  facet normal 0 0 -1
    outer loop
      vertex 1.42584 -0.432524 0
      vertex 1.46137 0.290684 0
      vertex 1.46137 -0.290684 0
    endloop
  endfacet
  facet normal 0 0 -1
    outer loop
      vertex 1.42584 -0.432524 0
      vertex 1.42584 0.432524 0
      vertex 1.46137 0.290684 0
    endloop
  endfacet
  facet normal 0 0 -1
    outer loop
      vertex 1.37658 -0.570198 0
      vertex 1.42584 0.432524 0
      vertex 1.42584 -0.432524 0
    endloop
  endfacet
  facet normal 0 0 -1
    outer loop
      vertex 1.37658 -0.570198 0
      vertex 1.37658 0.570198 0
      vertex 1.42584 0.432524 0
    endloop
  endfacet
  facet normal 0 0 -1
    outer loop
      vertex 1.31406 -0.702381 0
      vertex 1.37658 0.570198 0
      vertex 1.37658 -0.570198 0
    endloop
  endfacet
  facet normal 0 0 -1
    outer loop
      vertex 1.31406 -0.702381 0
      vertex 1.31406 0.702381 0
      vertex 1.37658 0.570198 0
    endloop
  endfacet
  facet normal 0 0 -1
    outer loop
      vertex 1.23889 -0.827799 0
      vertex 1.31406 0.702381 0
      vertex 1.31406 -0.702381 0
    endloop
  endfacet
  facet normal 0 0 -1
    outer loop
      vertex 1.23889 -0.827799 0
      vertex 1.23889 0.827799 0
      vertex 1.31406 0.702381 0
    endloop
  endfacet
  facet normal 0 0 -1
    outer loop
      vertex 1.15178 -0.945246 0
      vertex 1.23889 0.827799 0
      vertex 1.23889 -0.827799 0
    endloop
  endfacet
  facet normal 0 0 -1
    outer loop
      vertex 1.15178 -0.945246 0
      vertex 1.15178 0.945246 0
      vertex 1.23889 0.827799 0
    endloop
  endfacet
  facet normal 0 0 -1
    outer loop
      vertex 1.05359 -1.05359 0
      vertex 1.15178 0.945246 0
      vertex 1.15178 -0.945246 0
    endloop
  endfacet
  facet normal 0 0 -1
    outer loop
      vertex 1.05359 -1.05359 0
      vertex 1.05359 1.05359 0
      vertex 1.15178 0.945246 0
    endloop
  endfacet
  facet normal 0 0 -1
    outer loop
      vertex 0.945246 -1.15178 0
      vertex 1.05359 1.05359 0
      vertex 1.05359 -1.05359 0
    endloop
  endfacet
  facet normal 0 0 -1
    outer loop
      vertex 0.945246 -1.15178 0
      vertex 0.945246 1.15178 0
      vertex 1.05359 1.05359 0
    endloop
  endfacet
  facet normal 0 0 -1
    outer loop
      vertex 0.827799 -1.23889 0
      vertex 0.945246 1.15178 0
      vertex 0.945246 -1.15178 0
    endloop
  endfacet
  facet normal 0 0 -1
    outer loop
      vertex 0.827799 -1.23889 0
      vertex 0.827799 1.23889 0
      vertex 0.945246 1.15178 0
    endloop
  endfacet
  facet normal 0 0 -1
    outer loop
      vertex 0.702381 -1.31406 0
      vertex 0.827799 1.23889 0
      vertex 0.827799 -1.23889 0
    endloop
  endfacet
  facet normal 0 0 -1
    outer loop
      vertex 0.702381 -1.31406 0
      vertex 0.702381 1.31406 0
      vertex 0.827799 1.23889 0
    endloop
  endfacet
  facet normal 0 0 -1
    outer loop
      vertex 0.570198 -1.37658 0
      vertex 0.702381 1.31406 0
      vertex 0.702381 -1.31406 0
    endloop
  endfacet
  facet normal 0 0 -1
    outer loop
      vertex 0.570198 -1.37658 0
      vertex 0.570198 1.37658 0
      vertex 0.702381 1.31406 0
    endloop
  endfacet
  facet normal 0 0 -1
    outer loop
      vertex 0.432524 -1.42584 0
      vertex 0.570198 1.37658 0
      vertex 0.570198 -1.37658 0
    endloop
  endfacet
  facet normal 0 0 -1
    outer loop
      vertex 0.432524 -1.42584 0
      vertex 0.432524 1.42584 0
      vertex 0.570198 1.37658 0
    endloop
  endfacet
  facet normal 0 0 -1
    outer loop
      vertex 0.290684 -1.46137 0
      vertex 0.432524 1.42584 0
      vertex 0.432524 -1.42584 0
    endloop
  endfacet
  facet normal 0 0 -1
    outer loop
      vertex 0.290684 -1.46137 0
      vertex 0.290684 1.46137 0
      vertex 0.432524 1.42584 0
    endloop
  endfacet
  facet normal 0 0 -1
    outer loop
      vertex 0.146045 -1.48282 0
      vertex 0.290684 1.46137 0
      vertex 0.290684 -1.46137 0
    endloop
  endfacet
  facet normal 0 0 -1
    outer loop
      vertex 0.146045 -1.48282 0
      vertex 0.146045 1.48282 0
      vertex 0.290684 1.46137 0
    endloop
  endfacet
  facet normal 0 0 -1
    outer loop
      vertex 0 -1.49 0
      vertex 0.146045 1.48282 0
      vertex 0.146045 -1.48282 0
    endloop
  endfacet
  facet normal 0 0 -1
    outer loop
      vertex 0 -1.49 0
      vertex 0 1.49 0
      vertex 0.146045 1.48282 0
    endloop
  endfacet
  facet normal 0 0 -1
    outer loop
      vertex -0.146045 -1.48282 0
      vertex 0 1.49 0
      vertex 0 -1.49 0
    endloop
  endfacet
  facet normal 0 0 -1
    outer loop
      vertex -0.146045 -1.48282 0
      vertex -0.146045 1.48282 0
      vertex 0 1.49 0
    endloop
  endfacet
  facet normal 0 0 -1
    outer loop
      vertex -0.290684 -1.46137 0
      vertex -0.146045 1.48282 0
      vertex -0.146045 -1.48282 0
    endloop
  endfacet
  facet normal 0 0 -1
    outer loop
      vertex -0.290684 -1.46137 0
      vertex -0.290684 1.46137 0
      vertex -0.146045 1.48282 0
    endloop
  endfacet
  facet normal 0 0 -1
    outer loop
      vertex -0.432524 -1.42584 0
      vertex -0.290684 1.46137 0
      vertex -0.290684 -1.46137 0
    endloop
  endfacet
  facet normal 0 0 -1
    outer loop
      vertex -0.432524 -1.42584 0
      vertex -0.432524 1.42584 0
      vertex -0.290684 1.46137 0
    endloop
  endfacet
  facet normal 0 0 -1
    outer loop
      vertex -0.570198 -1.37658 0
      vertex -0.432524 1.42584 0
      vertex -0.432524 -1.42584 0
    endloop
  endfacet
  facet normal 0 0 -1
    outer loop
      vertex -0.570198 -1.37658 0
      vertex -0.570198 1.37658 0
      vertex -0.432524 1.42584 0
    endloop
  endfacet
  facet normal 0 0 -1
    outer loop
      vertex -0.702381 -1.31406 0
      vertex -0.570198 1.37658 0
      vertex -0.570198 -1.37658 0
    endloop
  endfacet
  facet normal 0 0 -1
    outer loop
      vertex -0.702381 -1.31406 0
      vertex -0.702381 1.31406 0
      vertex -0.570198 1.37658 0
    endloop
  endfacet
  facet normal 0 0 -1
    outer loop
      vertex -0.827799 -1.23889 0
      vertex -0.702381 1.31406 0
      vertex -0.702381 -1.31406 0
    endloop
  endfacet
  facet normal 0 0 -1
    outer loop
      vertex -0.827799 -1.23889 0
      vertex -0.827799 1.23889 0
      vertex -0.702381 1.31406 0
    endloop
  endfacet
  facet normal 0 0 -1
    outer loop
      vertex -0.945246 -1.15178 0
      vertex -0.827799 1.23889 0
      vertex -0.827799 -1.23889 0
    endloop
  endfacet
  facet normal 0 0 -1
    outer loop
      vertex -0.945246 -1.15178 0
      vertex -0.945246 1.15178 0
      vertex -0.827799 1.23889 0
    endloop
  endfacet
  facet normal 0 0 -1
    outer loop
      vertex -1.05359 -1.05359 0
      vertex -0.945246 1.15178 0
      vertex -0.945246 -1.15178 0
    endloop
  endfacet
  facet normal 0 0 -1
    outer loop
      vertex -1.05359 -1.05359 0
      vertex -1.05359 1.05359 0
      vertex -0.945246 1.15178 0
    endloop
  endfacet
  facet normal 0 0 -1
    outer loop
      vertex -1.15178 -0.945246 0
      vertex -1.05359 1.05359 0
      vertex -1.05359 -1.05359 0
    endloop
  endfacet
  facet normal 0 0 -1
    outer loop
      vertex -1.15178 -0.945246 0
      vertex -1.15178 0.945246 0
      vertex -1.05359 1.05359 0
    endloop
  endfacet
  facet normal 0 0 -1
    outer loop
      vertex -1.23889 -0.827799 0
      vertex -1.15178 0.945246 0
      vertex -1.15178 -0.945246 0
    endloop
  endfacet
  facet normal 0 0 -1
    outer loop
      vertex -1.23889 -0.827799 0
      vertex -1.23889 0.827799 0
      vertex -1.15178 0.945246 0
    endloop
  endfacet
  facet normal 0 0 -1
    outer loop
      vertex -1.31406 -0.702381 0
      vertex -1.23889 0.827799 0
      vertex -1.23889 -0.827799 0
    endloop
  endfacet
  facet normal 0 0 -1
    outer loop
      vertex -1.31406 -0.702381 0
      vertex -1.31406 0.702381 0
      vertex -1.23889 0.827799 0
    endloop
  endfacet
  facet normal 0 0 -1
    outer loop
      vertex -1.37658 -0.570198 0
      vertex -1.31406 0.702381 0
      vertex -1.31406 -0.702381 0
    endloop
  endfacet
  facet normal 0 0 -1
    outer loop
      vertex -1.37658 -0.570198 0
      vertex -1.37658 0.570198 0
      vertex -1.31406 0.702381 0
    endloop
  endfacet
  facet normal 0 0 -1
    outer loop
      vertex -1.42584 -0.432524 0
      vertex -1.37658 0.570198 0
      vertex -1.37658 -0.570198 0
    endloop
  endfacet
  facet normal 0 0 -1
    outer loop
      vertex -1.42584 -0.432524 0
      vertex -1.42584 0.432524 0
      vertex -1.37658 0.570198 0
    endloop
  endfacet
  facet normal 0 0 -1
    outer loop
      vertex -1.46137 -0.290684 0
      vertex -1.42584 0.432524 0
      vertex -1.42584 -0.432524 0
    endloop
  endfacet
  facet normal 0 0 -1
    outer loop
      vertex -1.46137 -0.290684 0
      vertex -1.46137 0.290684 0
      vertex -1.42584 0.432524 0
    endloop
  endfacet
  facet normal 0 0 -1
    outer loop
      vertex -1.48282 -0.146045 0
      vertex -1.46137 0.290684 0
      vertex -1.46137 -0.290684 0
    endloop
  endfacet
  facet normal 0 0 -1
    outer loop
      vertex -1.48282 -0.146045 0
      vertex -1.48282 0.146045 0
      vertex -1.46137 0.290684 0
    endloop
  endfacet
  facet normal 0 -0 -1
    outer loop
      vertex -1.48282 0.146045 0
      vertex -1.48282 -0.146045 0
      vertex -1.49 0 0
    endloop
  endfacet
  facet normal -0.514089 0.857737 0
    outer loop
      vertex -0.702381 1.31406 0
      vertex -0.827799 1.23889 0.0999994
      vertex -0.702381 1.31406 0.0999994
    endloop
  endfacet
  facet normal -0.514089 0.857737 0
    outer loop
      vertex -0.827799 1.23889 0.0999994
      vertex -0.702381 1.31406 0
      vertex -0.827799 1.23889 0
    endloop
  endfacet
  facet normal -0.998794 -0.0491036 0
    outer loop
      vertex -1.48282 -0.146045 0
      vertex -1.49 0 0.0999994
      vertex -1.49 0 0
    endloop
  endfacet
  facet normal -0.998794 -0.0491036 0
    outer loop
      vertex -1.49 0 0.0999994
      vertex -1.48282 -0.146045 0
      vertex -1.48282 -0.146045 0.0999994
    endloop
  endfacet
  facet normal -0.97003 0.242986 0
    outer loop
      vertex -1.46137 0.290684 0
      vertex -1.42584 0.432524 0.0999994
      vertex -1.42584 0.432524 0
    endloop
  endfacet
  facet normal -0.97003 0.242986 0
    outer loop
      vertex -1.42584 0.432524 0.0999994
      vertex -1.46137 0.290684 0
      vertex -1.46137 0.290684 0.0999994
    endloop
  endfacet
  facet normal 0.427567 -0.903984 0
    outer loop
      vertex 0.570198 -1.37658 0
      vertex 0.702381 -1.31406 0.0999994
      vertex 0.570198 -1.37658 0.0999994
    endloop
  endfacet
  facet normal 0.427567 -0.903984 0
    outer loop
      vertex 0.702381 -1.31406 0.0999994
      vertex 0.570198 -1.37658 0
      vertex 0.702381 -1.31406 0
    endloop
  endfacet
  facet normal -0.336887 -0.941545 0
    outer loop
      vertex -0.570198 -1.37658 0
      vertex -0.432524 -1.42584 0.0999994
      vertex -0.570198 -1.37658 0.0999994
    endloop
  endfacet
  facet normal -0.336887 -0.941545 -0
    outer loop
      vertex -0.432524 -1.42584 0.0999994
      vertex -0.570198 -1.37658 0
      vertex -0.432524 -1.42584 0
    endloop
  endfacet
  facet normal -0.336887 0.941545 0
    outer loop
      vertex -0.432524 1.42584 0
      vertex -0.570198 1.37658 0.0999994
      vertex -0.432524 1.42584 0.0999994
    endloop
  endfacet
  facet normal -0.336887 0.941545 0
    outer loop
      vertex -0.570198 1.37658 0.0999994
      vertex -0.432524 1.42584 0
      vertex -0.570198 1.37658 0
    endloop
  endfacet
  facet normal 0.514089 -0.857737 0
    outer loop
      vertex 0.702381 -1.31406 0
      vertex 0.827799 -1.23889 0.0999994
      vertex 0.702381 -1.31406 0.0999994
    endloop
  endfacet
  facet normal 0.514089 -0.857737 0
    outer loop
      vertex 0.827799 -1.23889 0.0999994
      vertex 0.702381 -1.31406 0
      vertex 0.827799 -1.23889 0
    endloop
  endfacet
  facet normal 0.146696 -0.989182 0
    outer loop
      vertex 0.146045 -1.48282 0
      vertex 0.290684 -1.46137 0.0999994
      vertex 0.146045 -1.48282 0.0999994
    endloop
  endfacet
  facet normal 0.146696 -0.989182 0
    outer loop
      vertex 0.290684 -1.46137 0.0999994
      vertex 0.146045 -1.48282 0
      vertex 0.290684 -1.46137 0
    endloop
  endfacet
  facet normal 0.740976 -0.671532 0
    outer loop
      vertex 1.05359 -1.05359 0.0999994
      vertex 1.15178 -0.945246 0
      vertex 1.15178 -0.945246 0.0999994
    endloop
  endfacet
  facet normal 0.740976 -0.671532 0
    outer loop
      vertex 1.15178 -0.945246 0
      vertex 1.05359 -1.05359 0.0999994
      vertex 1.05359 -1.05359 0
    endloop
  endfacet
  facet normal 0.80319 -0.595723 0
    outer loop
      vertex 1.15178 -0.945246 0.0999994
      vertex 1.23889 -0.827799 0
      vertex 1.23889 -0.827799 0.0999994
    endloop
  endfacet
  facet normal 0.80319 -0.595723 0
    outer loop
      vertex 1.23889 -0.827799 0
      vertex 1.15178 -0.945246 0.0999994
      vertex 1.15178 -0.945246 0
    endloop
  endfacet
  facet normal -0.0491036 0.998794 0
    outer loop
      vertex 0 1.49 0
      vertex -0.146045 1.48282 0.0999994
      vertex 0 1.49 0.0999994
    endloop
  endfacet
  facet normal -0.0491036 0.998794 0
    outer loop
      vertex -0.146045 1.48282 0.0999994
      vertex 0 1.49 0
      vertex -0.146045 1.48282 0
    endloop
  endfacet
  facet normal -0.427567 0.903984 0
    outer loop
      vertex -0.570198 1.37658 0
      vertex -0.702381 1.31406 0.0999994
      vertex -0.570198 1.37658 0.0999994
    endloop
  endfacet
  facet normal -0.427567 0.903984 0
    outer loop
      vertex -0.702381 1.31406 0.0999994
      vertex -0.570198 1.37658 0
      vertex -0.702381 1.31406 0
    endloop
  endfacet
  facet normal -0.595723 0.80319 0
    outer loop
      vertex -0.827799 1.23889 0
      vertex -0.945246 1.15178 0.0999994
      vertex -0.827799 1.23889 0.0999994
    endloop
  endfacet
  facet normal -0.595723 0.80319 0
    outer loop
      vertex -0.945246 1.15178 0.0999994
      vertex -0.827799 1.23889 0
      vertex -0.945246 1.15178 0
    endloop
  endfacet
  facet normal -0.989182 0.146696 0
    outer loop
      vertex -1.48282 0.146045 0
      vertex -1.46137 0.290684 0.0999994
      vertex -1.46137 0.290684 0
    endloop
  endfacet
  facet normal -0.989182 0.146696 0
    outer loop
      vertex -1.46137 0.290684 0.0999994
      vertex -1.48282 0.146045 0
      vertex -1.48282 0.146045 0.0999994
    endloop
  endfacet
  facet normal -0.242986 -0.97003 0
    outer loop
      vertex -0.432524 -1.42584 0
      vertex -0.290684 -1.46137 0.0999994
      vertex -0.432524 -1.42584 0.0999994
    endloop
  endfacet
  facet normal -0.242986 -0.97003 -0
    outer loop
      vertex -0.290684 -1.46137 0.0999994
      vertex -0.432524 -1.42584 0
      vertex -0.290684 -1.46137 0
    endloop
  endfacet
  facet normal 0.97003 0.242986 0
    outer loop
      vertex 1.46137 0.290684 0.0999994
      vertex 1.42584 0.432524 0
      vertex 1.42584 0.432524 0.0999994
    endloop
  endfacet
  facet normal 0.97003 0.242986 0
    outer loop
      vertex 1.42584 0.432524 0
      vertex 1.46137 0.290684 0.0999994
      vertex 1.46137 0.290684 0
    endloop
  endfacet
  facet normal 0.80319 0.595723 0
    outer loop
      vertex 1.23889 0.827799 0.0999994
      vertex 1.15178 0.945246 0
      vertex 1.15178 0.945246 0.0999994
    endloop
  endfacet
  facet normal 0.80319 0.595723 0
    outer loop
      vertex 1.15178 0.945246 0
      vertex 1.23889 0.827799 0.0999994
      vertex 1.23889 0.827799 0
    endloop
  endfacet
  facet normal -0.80319 -0.595723 0
    outer loop
      vertex -1.15178 -0.945246 0
      vertex -1.23889 -0.827799 0.0999994
      vertex -1.23889 -0.827799 0
    endloop
  endfacet
  facet normal -0.80319 -0.595723 0
    outer loop
      vertex -1.23889 -0.827799 0.0999994
      vertex -1.15178 -0.945246 0
      vertex -1.15178 -0.945246 0.0999994
    endloop
  endfacet
  facet normal -0.903984 -0.427567 0
    outer loop
      vertex -1.31406 -0.702381 0
      vertex -1.37658 -0.570198 0.0999994
      vertex -1.37658 -0.570198 0
    endloop
  endfacet
  facet normal -0.903984 -0.427567 0
    outer loop
      vertex -1.37658 -0.570198 0.0999994
      vertex -1.31406 -0.702381 0
      vertex -1.31406 -0.702381 0.0999994
    endloop
  endfacet
  facet normal 0.146696 0.989182 -0
    outer loop
      vertex 0.290684 1.46137 0
      vertex 0.146045 1.48282 0.0999994
      vertex 0.290684 1.46137 0.0999994
    endloop
  endfacet
  facet normal 0.146696 0.989182 0
    outer loop
      vertex 0.146045 1.48282 0.0999994
      vertex 0.290684 1.46137 0
      vertex 0.146045 1.48282 0
    endloop
  endfacet
  facet normal -0.427567 -0.903984 0
    outer loop
      vertex -0.702381 -1.31406 0
      vertex -0.570198 -1.37658 0.0999994
      vertex -0.702381 -1.31406 0.0999994
    endloop
  endfacet
  facet normal -0.427567 -0.903984 -0
    outer loop
      vertex -0.570198 -1.37658 0.0999994
      vertex -0.702381 -1.31406 0
      vertex -0.570198 -1.37658 0
    endloop
  endfacet
  facet normal 0.595723 -0.80319 0
    outer loop
      vertex 0.827799 -1.23889 0
      vertex 0.945246 -1.15178 0.0999994
      vertex 0.827799 -1.23889 0.0999994
    endloop
  endfacet
  facet normal 0.595723 -0.80319 0
    outer loop
      vertex 0.945246 -1.15178 0.0999994
      vertex 0.827799 -1.23889 0
      vertex 0.945246 -1.15178 0
    endloop
  endfacet
  facet normal 0.998794 -0.0491036 0
    outer loop
      vertex 1.48282 -0.146045 0.0999994
      vertex 1.49 0 0
      vertex 1.49 0 0.0999994
    endloop
  endfacet
  facet normal 0.998794 -0.0491036 0
    outer loop
      vertex 1.49 0 0
      vertex 1.48282 -0.146045 0.0999994
      vertex 1.48282 -0.146045 0
    endloop
  endfacet
  facet normal -0.146696 0.989182 0
    outer loop
      vertex -0.146045 1.48282 0
      vertex -0.290684 1.46137 0.0999994
      vertex -0.146045 1.48282 0.0999994
    endloop
  endfacet
  facet normal -0.146696 0.989182 0
    outer loop
      vertex -0.290684 1.46137 0.0999994
      vertex -0.146045 1.48282 0
      vertex -0.290684 1.46137 0
    endloop
  endfacet
  facet normal -0.989182 -0.146696 0
    outer loop
      vertex -1.46137 -0.290684 0
      vertex -1.48282 -0.146045 0.0999994
      vertex -1.48282 -0.146045 0
    endloop
  endfacet
  facet normal -0.989182 -0.146696 0
    outer loop
      vertex -1.48282 -0.146045 0.0999994
      vertex -1.46137 -0.290684 0
      vertex -1.46137 -0.290684 0.0999994
    endloop
  endfacet
  facet normal 0.336887 -0.941545 0
    outer loop
      vertex 0.432524 -1.42584 0
      vertex 0.570198 -1.37658 0.0999994
      vertex 0.432524 -1.42584 0.0999994
    endloop
  endfacet
  facet normal 0.336887 -0.941545 0
    outer loop
      vertex 0.570198 -1.37658 0.0999994
      vertex 0.432524 -1.42584 0
      vertex 0.570198 -1.37658 0
    endloop
  endfacet
  facet normal 0.242986 -0.97003 0
    outer loop
      vertex 0.290684 -1.46137 0
      vertex 0.432524 -1.42584 0.0999994
      vertex 0.290684 -1.46137 0.0999994
    endloop
  endfacet
  facet normal 0.242986 -0.97003 0
    outer loop
      vertex 0.432524 -1.42584 0.0999994
      vertex 0.290684 -1.46137 0
      vertex 0.432524 -1.42584 0
    endloop
  endfacet
  facet normal -0.903984 0.427567 0
    outer loop
      vertex -1.37658 0.570198 0
      vertex -1.31406 0.702381 0.0999994
      vertex -1.31406 0.702381 0
    endloop
  endfacet
  facet normal -0.903984 0.427567 0
    outer loop
      vertex -1.31406 0.702381 0.0999994
      vertex -1.37658 0.570198 0
      vertex -1.37658 0.570198 0.0999994
    endloop
  endfacet
  facet normal -0.740976 -0.671532 0
    outer loop
      vertex -1.05359 -1.05359 0
      vertex -1.15178 -0.945246 0.0999994
      vertex -1.15178 -0.945246 0
    endloop
  endfacet
  facet normal -0.740976 -0.671532 0
    outer loop
      vertex -1.15178 -0.945246 0.0999994
      vertex -1.05359 -1.05359 0
      vertex -1.05359 -1.05359 0.0999994
    endloop
  endfacet
  facet normal -0.595723 -0.80319 0
    outer loop
      vertex -0.945246 -1.15178 0
      vertex -0.827799 -1.23889 0.0999994
      vertex -0.945246 -1.15178 0.0999994
    endloop
  endfacet
  facet normal -0.595723 -0.80319 -0
    outer loop
      vertex -0.827799 -1.23889 0.0999994
      vertex -0.945246 -1.15178 0
      vertex -0.827799 -1.23889 0
    endloop
  endfacet
  facet normal 0.903984 -0.427567 0
    outer loop
      vertex 1.31406 -0.702381 0.0999994
      vertex 1.37658 -0.570198 0
      vertex 1.37658 -0.570198 0.0999994
    endloop
  endfacet
  facet normal 0.903984 -0.427567 0
    outer loop
      vertex 1.37658 -0.570198 0
      vertex 1.31406 -0.702381 0.0999994
      vertex 1.31406 -0.702381 0
    endloop
  endfacet
  facet normal 0.857737 -0.514089 0
    outer loop
      vertex 1.23889 -0.827799 0.0999994
      vertex 1.31406 -0.702381 0
      vertex 1.31406 -0.702381 0.0999994
    endloop
  endfacet
  facet normal 0.857737 -0.514089 0
    outer loop
      vertex 1.31406 -0.702381 0
      vertex 1.23889 -0.827799 0.0999994
      vertex 1.23889 -0.827799 0
    endloop
  endfacet
  facet normal -0.740976 0.671532 0
    outer loop
      vertex -1.15178 0.945246 0
      vertex -1.05359 1.05359 0.0999994
      vertex -1.05359 1.05359 0
    endloop
  endfacet
  facet normal -0.740976 0.671532 0
    outer loop
      vertex -1.05359 1.05359 0.0999994
      vertex -1.15178 0.945246 0
      vertex -1.15178 0.945246 0.0999994
    endloop
  endfacet
  facet normal -0.0491036 -0.998794 0
    outer loop
      vertex -0.146045 -1.48282 0
      vertex 0 -1.49 0.0999994
      vertex -0.146045 -1.48282 0.0999994
    endloop
  endfacet
  facet normal -0.0491036 -0.998794 -0
    outer loop
      vertex 0 -1.49 0.0999994
      vertex -0.146045 -1.48282 0
      vertex 0 -1.49 0
    endloop
  endfacet
  facet normal 0 0 1
    outer loop
      vertex 0.5 0 0.0999994
      vertex 1.49 0 0.0999994
      vertex 1.48282 0.146045 0.0999994
    endloop
  endfacet
  facet normal 0 0 1
    outer loop
      vertex 0.497592 0.0490084 0.0999994
      vertex 1.48282 0.146045 0.0999994
      vertex 1.46137 0.290684 0.0999994
    endloop
  endfacet
  facet normal 0 0 1
    outer loop
      vertex 1.49 0 0.0999994
      vertex 0.5 0 0.0999994
      vertex 1.48282 -0.146045 0.0999994
    endloop
  endfacet
  facet normal 0 0 1
    outer loop
      vertex 0.490392 0.0975447 0.0999994
      vertex 1.46137 0.290684 0.0999994
      vertex 1.42584 0.432524 0.0999994
    endloop
  endfacet
  facet normal -0 0 1
    outer loop
      vertex 0.497592 -0.0490084 0.0999994
      vertex 1.48282 -0.146045 0.0999994
      vertex 0.5 0 0.0999994
    endloop
  endfacet
  facet normal 0 0 1
    outer loop
      vertex 0.47847 0.145142 0.0999994
      vertex 1.42584 0.432524 0.0999994
      vertex 1.37658 0.570198 0.0999994
    endloop
  endfacet
  facet normal 0 0 1
    outer loop
      vertex 1.48282 -0.146045 0.0999994
      vertex 0.497592 -0.0490084 0.0999994
      vertex 1.46137 -0.290684 0.0999994
    endloop
  endfacet
  facet normal 0 0 1
    outer loop
      vertex 0.461939 0.191341 0.0999994
      vertex 1.37658 0.570198 0.0999994
      vertex 1.31406 0.702381 0.0999994
    endloop
  endfacet
  facet normal -0 0 1
    outer loop
      vertex 0.490392 -0.0975447 0.0999994
      vertex 1.46137 -0.290684 0.0999994
      vertex 0.497592 -0.0490084 0.0999994
    endloop
  endfacet
  facet normal 0 0 1
    outer loop
      vertex 0.44096 0.235698 0.0999994
      vertex 1.31406 0.702381 0.0999994
      vertex 1.23889 0.827799 0.0999994
    endloop
  endfacet
  facet normal 0 0 1
    outer loop
      vertex 1.46137 -0.290684 0.0999994
      vertex 0.490392 -0.0975447 0.0999994
      vertex 1.42584 -0.432524 0.0999994
    endloop
  endfacet
  facet normal 0 0 1
    outer loop
      vertex 0.415734 0.277784 0.0999994
      vertex 1.23889 0.827799 0.0999994
      vertex 1.15178 0.945246 0.0999994
    endloop
  endfacet
  facet normal -0 0 1
    outer loop
      vertex 0.47847 -0.145142 0.0999994
      vertex 1.42584 -0.432524 0.0999994
      vertex 0.490392 -0.0975447 0.0999994
    endloop
  endfacet
  facet normal 0 0 1
    outer loop
      vertex 0.386505 0.317196 0.0999994
      vertex 1.15178 0.945246 0.0999994
      vertex 1.05359 1.05359 0.0999994
    endloop
  endfacet
  facet normal 0 0 1
    outer loop
      vertex 1.42584 -0.432524 0.0999994
      vertex 0.47847 -0.145142 0.0999994
      vertex 1.37658 -0.570198 0.0999994
    endloop
  endfacet
  facet normal 0 0 1
    outer loop
      vertex 0.353553 0.353553 0.0999994
      vertex 1.05359 1.05359 0.0999994
      vertex 0.945246 1.15178 0.0999994
    endloop
  endfacet
  facet normal -0 0 1
    outer loop
      vertex 0.461939 -0.191341 0.0999994
      vertex 1.37658 -0.570198 0.0999994
      vertex 0.47847 -0.145142 0.0999994
    endloop
  endfacet
  facet normal 0 0 1
    outer loop
      vertex 0.317196 0.386505 0.0999994
      vertex 0.945246 1.15178 0.0999994
      vertex 0.827799 1.23889 0.0999994
    endloop
  endfacet
  facet normal 0 0 1
    outer loop
      vertex 1.37658 -0.570198 0.0999994
      vertex 0.461939 -0.191341 0.0999994
      vertex 1.31406 -0.702381 0.0999994
    endloop
  endfacet
  facet normal 0 0 1
    outer loop
      vertex 0.277784 0.415734 0.0999994
      vertex 0.827799 1.23889 0.0999994
      vertex 0.702381 1.31406 0.0999994
    endloop
  endfacet
  facet normal -0 0 1
    outer loop
      vertex 0.44096 -0.235698 0.0999994
      vertex 1.31406 -0.702381 0.0999994
      vertex 0.461939 -0.191341 0.0999994
    endloop
  endfacet
  facet normal 0 0 1
    outer loop
      vertex 0.235698 0.44096 0.0999994
      vertex 0.702381 1.31406 0.0999994
      vertex 0.570198 1.37658 0.0999994
    endloop
  endfacet
  facet normal 0 0 1
    outer loop
      vertex 1.31406 -0.702381 0.0999994
      vertex 0.44096 -0.235698 0.0999994
      vertex 1.23889 -0.827799 0.0999994
    endloop
  endfacet
  facet normal -0 0 1
    outer loop
      vertex 0.415734 -0.277784 0.0999994
      vertex 1.23889 -0.827799 0.0999994
      vertex 0.44096 -0.235698 0.0999994
    endloop
  endfacet
  facet normal 0 0 1
    outer loop
      vertex 1.48282 0.146045 0.0999994
      vertex 0.497592 0.0490084 0.0999994
      vertex 0.5 0 0.0999994
    endloop
  endfacet
  facet normal 0 0 1
    outer loop
      vertex 1.46137 0.290684 0.0999994
      vertex 0.490392 0.0975447 0.0999994
      vertex 0.497592 0.0490084 0.0999994
    endloop
  endfacet
  facet normal 0 0 1
    outer loop
      vertex 1.42584 0.432524 0.0999994
      vertex 0.47847 0.145142 0.0999994
      vertex 0.490392 0.0975447 0.0999994
    endloop
  endfacet
  facet normal 0 0 1
    outer loop
      vertex 1.37658 0.570198 0.0999994
      vertex 0.461939 0.191341 0.0999994
      vertex 0.47847 0.145142 0.0999994
    endloop
  endfacet
  facet normal 0 0 1
    outer loop
      vertex 1.31406 0.702381 0.0999994
      vertex 0.44096 0.235698 0.0999994
      vertex 0.461939 0.191341 0.0999994
    endloop
  endfacet
  facet normal 0 0 1
    outer loop
      vertex 0.191341 0.461939 0.0999994
      vertex 0.570198 1.37658 0.0999994
      vertex 0.432524 1.42584 0.0999994
    endloop
  endfacet
  facet normal 0 0 1
    outer loop
      vertex 1.23889 0.827799 0.0999994
      vertex 0.415734 0.277784 0.0999994
      vertex 0.44096 0.235698 0.0999994
    endloop
  endfacet
  facet normal 0 0 1
    outer loop
      vertex 1.15178 0.945246 0.0999994
      vertex 0.386505 0.317196 0.0999994
      vertex 0.415734 0.277784 0.0999994
    endloop
  endfacet
  facet normal 0 0 1
    outer loop
      vertex 1.05359 1.05359 0.0999994
      vertex 0.353553 0.353553 0.0999994
      vertex 0.386505 0.317196 0.0999994
    endloop
  endfacet
  facet normal 0 0 1
    outer loop
      vertex 0.945246 1.15178 0.0999994
      vertex 0.317196 0.386505 0.0999994
      vertex 0.353553 0.353553 0.0999994
    endloop
  endfacet
  facet normal 0 0 1
    outer loop
      vertex 0.145142 0.47847 0.0999994
      vertex 0.432524 1.42584 0.0999994
      vertex 0.290684 1.46137 0.0999994
    endloop
  endfacet
  facet normal 0 0 1
    outer loop
      vertex 0.827799 1.23889 0.0999994
      vertex 0.277784 0.415734 0.0999994
      vertex 0.317196 0.386505 0.0999994
    endloop
  endfacet
  facet normal 0 0 1
    outer loop
      vertex 0.702381 1.31406 0.0999994
      vertex 0.235698 0.44096 0.0999994
      vertex 0.277784 0.415734 0.0999994
    endloop
  endfacet
  facet normal 0 0 1
    outer loop
      vertex 0.570198 1.37658 0.0999994
      vertex 0.191341 0.461939 0.0999994
      vertex 0.235698 0.44096 0.0999994
    endloop
  endfacet
  facet normal 0 0 1
    outer loop
      vertex 0.0975447 0.490392 0.0999994
      vertex 0.290684 1.46137 0.0999994
      vertex 0.146045 1.48282 0.0999994
    endloop
  endfacet
  facet normal 0 0 1
    outer loop
      vertex 0.432524 1.42584 0.0999994
      vertex 0.145142 0.47847 0.0999994
      vertex 0.191341 0.461939 0.0999994
    endloop
  endfacet
  facet normal 0 0 1
    outer loop
      vertex 0.290684 1.46137 0.0999994
      vertex 0.0975447 0.490392 0.0999994
      vertex 0.145142 0.47847 0.0999994
    endloop
  endfacet
  facet normal 0 0 1
    outer loop
      vertex 0.146045 1.48282 0.0999994
      vertex 0.0490084 0.497592 0.0999994
      vertex 0.0975447 0.490392 0.0999994
    endloop
  endfacet
  facet normal 0 0 1
    outer loop
      vertex 0 1.49 0.0999994
      vertex 0.0490084 0.497592 0.0999994
      vertex 0.146045 1.48282 0.0999994
    endloop
  endfacet
  facet normal 0 0 1
    outer loop
      vertex 0 1.49 0.0999994
      vertex 0 0.5 0.0999994
      vertex 0.0490084 0.497592 0.0999994
    endloop
  endfacet
  facet normal 0 0 1
    outer loop
      vertex 0 1.49 0.0999994
      vertex -0.0490084 0.497592 0.0999994
      vertex 0 0.5 0.0999994
    endloop
  endfacet
  facet normal -0 0 1
    outer loop
      vertex -0.146045 1.48282 0.0999994
      vertex -0.0490084 0.497592 0.0999994
      vertex 0 1.49 0.0999994
    endloop
  endfacet
  facet normal 0 0 1
    outer loop
      vertex -0.0490084 0.497592 0.0999994
      vertex -0.146045 1.48282 0.0999994
      vertex -0.0975447 0.490392 0.0999994
    endloop
  endfacet
  facet normal -0 0 1
    outer loop
      vertex -0.290684 1.46137 0.0999994
      vertex -0.0975447 0.490392 0.0999994
      vertex -0.146045 1.48282 0.0999994
    endloop
  endfacet
  facet normal 0 0 1
    outer loop
      vertex -0.0975447 0.490392 0.0999994
      vertex -0.290684 1.46137 0.0999994
      vertex -0.145142 0.47847 0.0999994
    endloop
  endfacet
  facet normal -0 0 1
    outer loop
      vertex -0.432524 1.42584 0.0999994
      vertex -0.145142 0.47847 0.0999994
      vertex -0.290684 1.46137 0.0999994
    endloop
  endfacet
  facet normal 0 0 1
    outer loop
      vertex -0.145142 0.47847 0.0999994
      vertex -0.432524 1.42584 0.0999994
      vertex -0.191341 0.461939 0.0999994
    endloop
  endfacet
  facet normal -0 0 1
    outer loop
      vertex -0.570198 1.37658 0.0999994
      vertex -0.191341 0.461939 0.0999994
      vertex -0.432524 1.42584 0.0999994
    endloop
  endfacet
  facet normal 0 0 1
    outer loop
      vertex -0.191341 0.461939 0.0999994
      vertex -0.570198 1.37658 0.0999994
      vertex -0.235698 0.44096 0.0999994
    endloop
  endfacet
  facet normal -0 0 1
    outer loop
      vertex -0.702381 1.31406 0.0999994
      vertex -0.235698 0.44096 0.0999994
      vertex -0.570198 1.37658 0.0999994
    endloop
  endfacet
  facet normal 0 0 1
    outer loop
      vertex -0.235698 0.44096 0.0999994
      vertex -0.702381 1.31406 0.0999994
      vertex -0.277784 0.415734 0.0999994
    endloop
  endfacet
  facet normal -0 0 1
    outer loop
      vertex -0.827799 1.23889 0.0999994
      vertex -0.277784 0.415734 0.0999994
      vertex -0.702381 1.31406 0.0999994
    endloop
  endfacet
  facet normal 0 0 1
    outer loop
      vertex -0.277784 0.415734 0.0999994
      vertex -0.827799 1.23889 0.0999994
      vertex -0.317196 0.386505 0.0999994
    endloop
  endfacet
  facet normal -0 0 1
    outer loop
      vertex -0.945246 1.15178 0.0999994
      vertex -0.317196 0.386505 0.0999994
      vertex -0.827799 1.23889 0.0999994
    endloop
  endfacet
  facet normal 0 0 1
    outer loop
      vertex -0.317196 0.386505 0.0999994
      vertex -0.945246 1.15178 0.0999994
      vertex -0.353553 0.353553 0.0999994
    endloop
  endfacet
  facet normal -0 0 1
    outer loop
      vertex -1.05359 1.05359 0.0999994
      vertex -0.353553 0.353553 0.0999994
      vertex -0.945246 1.15178 0.0999994
    endloop
  endfacet
  facet normal 0 0 1
    outer loop
      vertex -0.353553 0.353553 0.0999994
      vertex -1.05359 1.05359 0.0999994
      vertex -0.386505 0.317196 0.0999994
    endloop
  endfacet
  facet normal -0 0 1
    outer loop
      vertex -1.15178 0.945246 0.0999994
      vertex -0.386505 0.317196 0.0999994
      vertex -1.05359 1.05359 0.0999994
    endloop
  endfacet
  facet normal 0 0 1
    outer loop
      vertex -0.386505 0.317196 0.0999994
      vertex -1.15178 0.945246 0.0999994
      vertex -0.415734 0.277784 0.0999994
    endloop
  endfacet
  facet normal -0 0 1
    outer loop
      vertex -1.23889 0.827799 0.0999994
      vertex -0.415734 0.277784 0.0999994
      vertex -1.15178 0.945246 0.0999994
    endloop
  endfacet
  facet normal 0 0 1
    outer loop
      vertex 1.23889 -0.827799 0.0999994
      vertex 0.415734 -0.277784 0.0999994
      vertex 1.15178 -0.945246 0.0999994
    endloop
  endfacet
  facet normal -0 0 1
    outer loop
      vertex 0.386505 -0.317196 0.0999994
      vertex 1.15178 -0.945246 0.0999994
      vertex 0.415734 -0.277784 0.0999994
    endloop
  endfacet
  facet normal 0 0 1
    outer loop
      vertex 1.15178 -0.945246 0.0999994
      vertex 0.386505 -0.317196 0.0999994
      vertex 1.05359 -1.05359 0.0999994
    endloop
  endfacet
  facet normal -0 0 1
    outer loop
      vertex 0.353553 -0.353553 0.0999994
      vertex 1.05359 -1.05359 0.0999994
      vertex 0.386505 -0.317196 0.0999994
    endloop
  endfacet
  facet normal 0 0 1
    outer loop
      vertex 1.05359 -1.05359 0.0999994
      vertex 0.353553 -0.353553 0.0999994
      vertex 0.945246 -1.15178 0.0999994
    endloop
  endfacet
  facet normal -0 0 1
    outer loop
      vertex 0.317196 -0.386505 0.0999994
      vertex 0.945246 -1.15178 0.0999994
      vertex 0.353553 -0.353553 0.0999994
    endloop
  endfacet
  facet normal 0 0 1
    outer loop
      vertex 0.945246 -1.15178 0.0999994
      vertex 0.317196 -0.386505 0.0999994
      vertex 0.827799 -1.23889 0.0999994
    endloop
  endfacet
  facet normal -0 0 1
    outer loop
      vertex 0.277784 -0.415734 0.0999994
      vertex 0.827799 -1.23889 0.0999994
      vertex 0.317196 -0.386505 0.0999994
    endloop
  endfacet
  facet normal 0 0 1
    outer loop
      vertex 0.827799 -1.23889 0.0999994
      vertex 0.277784 -0.415734 0.0999994
      vertex 0.702381 -1.31406 0.0999994
    endloop
  endfacet
  facet normal -0 0 1
    outer loop
      vertex 0.235698 -0.44096 0.0999994
      vertex 0.702381 -1.31406 0.0999994
      vertex 0.277784 -0.415734 0.0999994
    endloop
  endfacet
  facet normal 0 0 1
    outer loop
      vertex 0.702381 -1.31406 0.0999994
      vertex 0.235698 -0.44096 0.0999994
      vertex 0.570198 -1.37658 0.0999994
    endloop
  endfacet
  facet normal -0 0 1
    outer loop
      vertex 0.191341 -0.461939 0.0999994
      vertex 0.570198 -1.37658 0.0999994
      vertex 0.235698 -0.44096 0.0999994
    endloop
  endfacet
  facet normal 0 0 1
    outer loop
      vertex 0.570198 -1.37658 0.0999994
      vertex 0.191341 -0.461939 0.0999994
      vertex 0.432524 -1.42584 0.0999994
    endloop
  endfacet
  facet normal -0 0 1
    outer loop
      vertex 0.145142 -0.47847 0.0999994
      vertex 0.432524 -1.42584 0.0999994
      vertex 0.191341 -0.461939 0.0999994
    endloop
  endfacet
  facet normal 0 0 1
    outer loop
      vertex 0.432524 -1.42584 0.0999994
      vertex 0.145142 -0.47847 0.0999994
      vertex 0.290684 -1.46137 0.0999994
    endloop
  endfacet
  facet normal -0 0 1
    outer loop
      vertex 0.0975447 -0.490392 0.0999994
      vertex 0.290684 -1.46137 0.0999994
      vertex 0.145142 -0.47847 0.0999994
    endloop
  endfacet
  facet normal 0 0 1
    outer loop
      vertex 0.290684 -1.46137 0.0999994
      vertex 0.0975447 -0.490392 0.0999994
      vertex 0.146045 -1.48282 0.0999994
    endloop
  endfacet
  facet normal -0 0 1
    outer loop
      vertex 0.0490084 -0.497592 0.0999994
      vertex 0.146045 -1.48282 0.0999994
      vertex 0.0975447 -0.490392 0.0999994
    endloop
  endfacet
  facet normal -0 0 1
    outer loop
      vertex 0 -0.5 0.0999994
      vertex 0.146045 -1.48282 0.0999994
      vertex 0.0490084 -0.497592 0.0999994
    endloop
  endfacet
  facet normal 0 0 1
    outer loop
      vertex 0 -0.5 0.0999994
      vertex 0 -1.49 0.0999994
      vertex 0.146045 -1.48282 0.0999994
    endloop
  endfacet
  facet normal 0 0 1
    outer loop
      vertex -0.0490084 -0.497592 0.0999994
      vertex 0 -1.49 0.0999994
      vertex 0 -0.5 0.0999994
    endloop
  endfacet
  facet normal 0 0 1
    outer loop
      vertex -0.146045 -1.48282 0.0999994
      vertex -0.0490084 -0.497592 0.0999994
      vertex -0.0975447 -0.490392 0.0999994
    endloop
  endfacet
  facet normal 0 0 1
    outer loop
      vertex -0.290684 -1.46137 0.0999994
      vertex -0.0975447 -0.490392 0.0999994
      vertex -0.145142 -0.47847 0.0999994
    endloop
  endfacet
  facet normal 0 0 1
    outer loop
      vertex -0.0490084 -0.497592 0.0999994
      vertex -0.146045 -1.48282 0.0999994
      vertex 0 -1.49 0.0999994
    endloop
  endfacet
  facet normal 0 0 1
    outer loop
      vertex -0.432524 -1.42584 0.0999994
      vertex -0.145142 -0.47847 0.0999994
      vertex -0.191341 -0.461939 0.0999994
    endloop
  endfacet
  facet normal 0 0 1
    outer loop
      vertex -0.570198 -1.37658 0.0999994
      vertex -0.191341 -0.461939 0.0999994
      vertex -0.235698 -0.44096 0.0999994
    endloop
  endfacet
  facet normal 0 0 1
    outer loop
      vertex -0.702381 -1.31406 0.0999994
      vertex -0.235698 -0.44096 0.0999994
      vertex -0.277784 -0.415734 0.0999994
    endloop
  endfacet
  facet normal 0 0 1
    outer loop
      vertex -0.0975447 -0.490392 0.0999994
      vertex -0.290684 -1.46137 0.0999994
      vertex -0.146045 -1.48282 0.0999994
    endloop
  endfacet
  facet normal 0 0 1
    outer loop
      vertex -0.827799 -1.23889 0.0999994
      vertex -0.277784 -0.415734 0.0999994
      vertex -0.317196 -0.386505 0.0999994
    endloop
  endfacet
  facet normal 0 0 1
    outer loop
      vertex -0.945246 -1.15178 0.0999994
      vertex -0.317196 -0.386505 0.0999994
      vertex -0.353553 -0.353553 0.0999994
    endloop
  endfacet
  facet normal 0 0 1
    outer loop
      vertex -1.05359 -1.05359 0.0999994
      vertex -0.353553 -0.353553 0.0999994
      vertex -0.386505 -0.317196 0.0999994
    endloop
  endfacet
  facet normal 0 0 1
    outer loop
      vertex -1.15178 -0.945246 0.0999994
      vertex -0.386505 -0.317196 0.0999994
      vertex -0.415734 -0.277784 0.0999994
    endloop
  endfacet
  facet normal 0 0 1
    outer loop
      vertex -0.145142 -0.47847 0.0999994
      vertex -0.432524 -1.42584 0.0999994
      vertex -0.290684 -1.46137 0.0999994
    endloop
  endfacet
  facet normal 0 0 1
    outer loop
      vertex -1.23889 -0.827799 0.0999994
      vertex -0.415734 -0.277784 0.0999994
      vertex -0.44096 -0.235698 0.0999994
    endloop
  endfacet
  facet normal 0 0 1
    outer loop
      vertex -1.31406 -0.702381 0.0999994
      vertex -0.44096 -0.235698 0.0999994
      vertex -0.461939 -0.191341 0.0999994
    endloop
  endfacet
  facet normal 0 0 1
    outer loop
      vertex -1.37658 -0.570198 0.0999994
      vertex -0.461939 -0.191341 0.0999994
      vertex -0.47847 -0.145142 0.0999994
    endloop
  endfacet
  facet normal 0 0 1
    outer loop
      vertex -1.42584 -0.432524 0.0999994
      vertex -0.47847 -0.145142 0.0999994
      vertex -0.490392 -0.0975447 0.0999994
    endloop
  endfacet
  facet normal 0 0 1
    outer loop
      vertex -1.46137 -0.290684 0.0999994
      vertex -0.490392 -0.0975447 0.0999994
      vertex -0.497592 -0.0490084 0.0999994
    endloop
  endfacet
  facet normal 0 0 1
    outer loop
      vertex -1.48282 -0.146045 0.0999994
      vertex -0.497592 -0.0490084 0.0999994
      vertex -0.5 0 0.0999994
    endloop
  endfacet
  facet normal 0 0 1
    outer loop
      vertex -0.415734 0.277784 0.0999994
      vertex -1.23889 0.827799 0.0999994
      vertex -0.44096 0.235698 0.0999994
    endloop
  endfacet
  facet normal 0 0 1
    outer loop
      vertex -0.191341 -0.461939 0.0999994
      vertex -0.570198 -1.37658 0.0999994
      vertex -0.432524 -1.42584 0.0999994
    endloop
  endfacet
  facet normal -0 0 1
    outer loop
      vertex -1.31406 0.702381 0.0999994
      vertex -0.44096 0.235698 0.0999994
      vertex -1.23889 0.827799 0.0999994
    endloop
  endfacet
  facet normal 0 0 1
    outer loop
      vertex -0.235698 -0.44096 0.0999994
      vertex -0.702381 -1.31406 0.0999994
      vertex -0.570198 -1.37658 0.0999994
    endloop
  endfacet
  facet normal 0 0 1
    outer loop
      vertex -0.44096 0.235698 0.0999994
      vertex -1.31406 0.702381 0.0999994
      vertex -0.461939 0.191341 0.0999994
    endloop
  endfacet
  facet normal 0 0 1
    outer loop
      vertex -0.277784 -0.415734 0.0999994
      vertex -0.827799 -1.23889 0.0999994
      vertex -0.702381 -1.31406 0.0999994
    endloop
  endfacet
  facet normal -0 0 1
    outer loop
      vertex -1.37658 0.570198 0.0999994
      vertex -0.461939 0.191341 0.0999994
      vertex -1.31406 0.702381 0.0999994
    endloop
  endfacet
  facet normal 0 0 1
    outer loop
      vertex -0.317196 -0.386505 0.0999994
      vertex -0.945246 -1.15178 0.0999994
      vertex -0.827799 -1.23889 0.0999994
    endloop
  endfacet
  facet normal 0 0 1
    outer loop
      vertex -0.461939 0.191341 0.0999994
      vertex -1.37658 0.570198 0.0999994
      vertex -0.47847 0.145142 0.0999994
    endloop
  endfacet
  facet normal 0 0 1
    outer loop
      vertex -0.353553 -0.353553 0.0999994
      vertex -1.05359 -1.05359 0.0999994
      vertex -0.945246 -1.15178 0.0999994
    endloop
  endfacet
  facet normal -0 0 1
    outer loop
      vertex -1.42584 0.432524 0.0999994
      vertex -0.47847 0.145142 0.0999994
      vertex -1.37658 0.570198 0.0999994
    endloop
  endfacet
  facet normal 0 0 1
    outer loop
      vertex -0.386505 -0.317196 0.0999994
      vertex -1.15178 -0.945246 0.0999994
      vertex -1.05359 -1.05359 0.0999994
    endloop
  endfacet
  facet normal 0 0 1
    outer loop
      vertex -0.47847 0.145142 0.0999994
      vertex -1.42584 0.432524 0.0999994
      vertex -0.490392 0.0975447 0.0999994
    endloop
  endfacet
  facet normal 0 0 1
    outer loop
      vertex -0.415734 -0.277784 0.0999994
      vertex -1.23889 -0.827799 0.0999994
      vertex -1.15178 -0.945246 0.0999994
    endloop
  endfacet
  facet normal -0 0 1
    outer loop
      vertex -1.46137 0.290684 0.0999994
      vertex -0.490392 0.0975447 0.0999994
      vertex -1.42584 0.432524 0.0999994
    endloop
  endfacet
  facet normal 0 0 1
    outer loop
      vertex -0.44096 -0.235698 0.0999994
      vertex -1.31406 -0.702381 0.0999994
      vertex -1.23889 -0.827799 0.0999994
    endloop
  endfacet
  facet normal 0 0 1
    outer loop
      vertex -0.490392 0.0975447 0.0999994
      vertex -1.46137 0.290684 0.0999994
      vertex -0.497592 0.0490084 0.0999994
    endloop
  endfacet
  facet normal 0 0 1
    outer loop
      vertex -0.461939 -0.191341 0.0999994
      vertex -1.37658 -0.570198 0.0999994
      vertex -1.31406 -0.702381 0.0999994
    endloop
  endfacet
  facet normal -0 0 1
    outer loop
      vertex -1.48282 0.146045 0.0999994
      vertex -0.497592 0.0490084 0.0999994
      vertex -1.46137 0.290684 0.0999994
    endloop
  endfacet
  facet normal 0 0 1
    outer loop
      vertex -0.47847 -0.145142 0.0999994
      vertex -1.42584 -0.432524 0.0999994
      vertex -1.37658 -0.570198 0.0999994
    endloop
  endfacet
  facet normal 0 0 1
    outer loop
      vertex -0.497592 0.0490084 0.0999994
      vertex -1.48282 0.146045 0.0999994
      vertex -0.5 0 0.0999994
    endloop
  endfacet
  facet normal 0 0 1
    outer loop
      vertex -0.490392 -0.0975447 0.0999994
      vertex -1.46137 -0.290684 0.0999994
      vertex -1.42584 -0.432524 0.0999994
    endloop
  endfacet
  facet normal 0 0 1
    outer loop
      vertex -1.49 0 0.0999994
      vertex -0.5 0 0.0999994
      vertex -1.48282 0.146045 0.0999994
    endloop
  endfacet
  facet normal 0 0 1
    outer loop
      vertex -0.497592 -0.0490084 0.0999994
      vertex -1.48282 -0.146045 0.0999994
      vertex -1.46137 -0.290684 0.0999994
    endloop
  endfacet
  facet normal 0 0 1
    outer loop
      vertex -0.5 0 0.0999994
      vertex -1.49 0 0.0999994
      vertex -1.48282 -0.146045 0.0999994
    endloop
  endfacet
  facet normal -0.998794 0.0491036 0
    outer loop
      vertex -1.49 0 0
      vertex -1.48282 0.146045 0.0999994
      vertex -1.48282 0.146045 0
    endloop
  endfacet
  facet normal -0.998794 0.0491036 0
    outer loop
      vertex -1.48282 0.146045 0.0999994
      vertex -1.49 0 0
      vertex -1.49 0 0.0999994
    endloop
  endfacet
  facet normal 0.671532 -0.740976 0
    outer loop
      vertex 0.945246 -1.15178 0
      vertex 1.05359 -1.05359 0.0999994
      vertex 0.945246 -1.15178 0.0999994
    endloop
  endfacet
  facet normal 0.671532 -0.740976 0
    outer loop
      vertex 1.05359 -1.05359 0.0999994
      vertex 0.945246 -1.15178 0
      vertex 1.05359 -1.05359 0
    endloop
  endfacet
  facet normal 0.989176 0.146737 0
    outer loop
      vertex 0.497592 0.0490084 0.7
      vertex 0.490392 0.0975447 0.0999994
      vertex 0.490392 0.0975447 0.7
    endloop
  endfacet
  facet normal 0.989176 0.146737 0
    outer loop
      vertex 0.490392 0.0975447 0.0999994
      vertex 0.497592 0.0490084 0.7
      vertex 0.497592 0.0490084 0.0999994
    endloop
  endfacet
  facet normal 0.998795 0.0490752 0
    outer loop
      vertex 0.5 0 0.7
      vertex 0.497592 0.0490084 0.0999994
      vertex 0.497592 0.0490084 0.7
    endloop
  endfacet
  facet normal 0.998795 0.0490752 0
    outer loop
      vertex 0.497592 0.0490084 0.0999994
      vertex 0.5 0 0.7
      vertex 0.5 0 0.0999994
    endloop
  endfacet
  facet normal 0.970034 0.242971 0
    outer loop
      vertex 0.490392 0.0975447 0.7
      vertex 0.47847 0.145142 0.0999994
      vertex 0.47847 0.145142 0.7
    endloop
  endfacet
  facet normal 0.970034 0.242971 0
    outer loop
      vertex 0.47847 0.145142 0.0999994
      vertex 0.490392 0.0975447 0.7
      vertex 0.490392 0.0975447 0.0999994
    endloop
  endfacet
  facet normal 0.42755 -0.903992 0
    outer loop
      vertex 0.191341 -0.461939 0.0999994
      vertex 0.235698 -0.44096 0.7
      vertex 0.191341 -0.461939 0.7
    endloop
  endfacet
  facet normal 0.42755 -0.903992 0
    outer loop
      vertex 0.235698 -0.44096 0.7
      vertex 0.191341 -0.461939 0.0999994
      vertex 0.235698 -0.44096 0.0999994
    endloop
  endfacet
  facet normal -0.595687 0.803217 0
    outer loop
      vertex -0.277784 0.415734 0.0999994
      vertex -0.317196 0.386505 0.7
      vertex -0.277784 0.415734 0.7
    endloop
  endfacet
  facet normal -0.595687 0.803217 0
    outer loop
      vertex -0.317196 0.386505 0.7
      vertex -0.277784 0.415734 0.0999994
      vertex -0.317196 0.386505 0.0999994
    endloop
  endfacet
  facet normal -0.903992 0.42755 0
    outer loop
      vertex -0.461939 0.191341 0.0999994
      vertex -0.44096 0.235698 0.7
      vertex -0.44096 0.235698 0.0999994
    endloop
  endfacet
  facet normal -0.903992 0.42755 0
    outer loop
      vertex -0.44096 0.235698 0.7
      vertex -0.461939 0.191341 0.0999994
      vertex -0.461939 0.191341 0.7
    endloop
  endfacet
  facet normal -0.970034 0.242971 0
    outer loop
      vertex -0.490392 0.0975447 0.0999994
      vertex -0.47847 0.145142 0.7
      vertex -0.47847 0.145142 0.0999994
    endloop
  endfacet
  facet normal -0.970034 0.242971 0
    outer loop
      vertex -0.47847 0.145142 0.7
      vertex -0.490392 0.0975447 0.0999994
      vertex -0.490392 0.0975447 0.7
    endloop
  endfacet
  facet normal 0.514112 -0.857723 0
    outer loop
      vertex 0.235698 -0.44096 0.0999994
      vertex 0.277784 -0.415734 0.7
      vertex 0.235698 -0.44096 0.7
    endloop
  endfacet
  facet normal 0.514112 -0.857723 0
    outer loop
      vertex 0.277784 -0.415734 0.7
      vertex 0.235698 -0.44096 0.0999994
      vertex 0.277784 -0.415734 0.0999994
    endloop
  endfacet
  facet normal 0.242971 -0.970034 0
    outer loop
      vertex 0.0975447 -0.490392 0.0999994
      vertex 0.145142 -0.47847 0.7
      vertex 0.0975447 -0.490392 0.7
    endloop
  endfacet
  facet normal 0.242971 -0.970034 0
    outer loop
      vertex 0.145142 -0.47847 0.7
      vertex 0.0975447 -0.490392 0.0999994
      vertex 0.145142 -0.47847 0.0999994
    endloop
  endfacet
  facet normal 0.0490752 0.998795 -0
    outer loop
      vertex 0.0490084 0.497592 0.0999994
      vertex 0 0.5 0.7
      vertex 0.0490084 0.497592 0.7
    endloop
  endfacet
  facet normal 0.0490752 0.998795 0
    outer loop
      vertex 0 0.5 0.7
      vertex 0.0490084 0.497592 0.0999994
      vertex 0 0.5 0.0999994
    endloop
  endfacet
  facet normal 0.146737 0.989176 -0
    outer loop
      vertex 0.0975447 0.490392 0.0999994
      vertex 0.0490084 0.497592 0.7
      vertex 0.0975447 0.490392 0.7
    endloop
  endfacet
  facet normal 0.146737 0.989176 0
    outer loop
      vertex 0.0490084 0.497592 0.7
      vertex 0.0975447 0.490392 0.0999994
      vertex 0.0490084 0.497592 0.0999994
    endloop
  endfacet
  facet normal 0.42755 0.903992 -0
    outer loop
      vertex 0.235698 0.44096 0.0999994
      vertex 0.191341 0.461939 0.7
      vertex 0.235698 0.44096 0.7
    endloop
  endfacet
  facet normal 0.42755 0.903992 0
    outer loop
      vertex 0.191341 0.461939 0.7
      vertex 0.235698 0.44096 0.0999994
      vertex 0.191341 0.461939 0.0999994
    endloop
  endfacet
  facet normal 0.146737 -0.989176 0
    outer loop
      vertex 0.0490084 -0.497592 0.0999994
      vertex 0.0975447 -0.490392 0.7
      vertex 0.0490084 -0.497592 0.7
    endloop
  endfacet
  facet normal 0.146737 -0.989176 0
    outer loop
      vertex 0.0975447 -0.490392 0.7
      vertex 0.0490084 -0.497592 0.0999994
      vertex 0.0975447 -0.490392 0.0999994
    endloop
  endfacet
  facet normal 0 0 1
    outer loop
      vertex 0.497592 0.0490084 0.7
      vertex 0.497592 -0.0490084 0.7
      vertex 0.5 0 0.7
    endloop
  endfacet
  facet normal 0 0 1
    outer loop
      vertex 0.490392 0.0975447 0.7
      vertex 0.497592 -0.0490084 0.7
      vertex 0.497592 0.0490084 0.7
    endloop
  endfacet
  facet normal 0 0 1
    outer loop
      vertex 0.490392 0.0975447 0.7
      vertex 0.490392 -0.0975447 0.7
      vertex 0.497592 -0.0490084 0.7
    endloop
  endfacet
  facet normal 0 0 1
    outer loop
      vertex 0.47847 0.145142 0.7
      vertex 0.490392 -0.0975447 0.7
      vertex 0.490392 0.0975447 0.7
    endloop
  endfacet
  facet normal 0 0 1
    outer loop
      vertex 0.47847 0.145142 0.7
      vertex 0.47847 -0.145142 0.7
      vertex 0.490392 -0.0975447 0.7
    endloop
  endfacet
  facet normal 0 0 1
    outer loop
      vertex 0.461939 0.191341 0.7
      vertex 0.47847 -0.145142 0.7
      vertex 0.47847 0.145142 0.7
    endloop
  endfacet
  facet normal 0 0 1
    outer loop
      vertex 0.461939 0.191341 0.7
      vertex 0.461939 -0.191341 0.7
      vertex 0.47847 -0.145142 0.7
    endloop
  endfacet
  facet normal 0 0 1
    outer loop
      vertex 0.44096 0.235698 0.7
      vertex 0.461939 -0.191341 0.7
      vertex 0.461939 0.191341 0.7
    endloop
  endfacet
  facet normal 0 0 1
    outer loop
      vertex 0.44096 0.235698 0.7
      vertex 0.44096 -0.235698 0.7
      vertex 0.461939 -0.191341 0.7
    endloop
  endfacet
  facet normal 0 0 1
    outer loop
      vertex 0.415734 0.277784 0.7
      vertex 0.44096 -0.235698 0.7
      vertex 0.44096 0.235698 0.7
    endloop
  endfacet
  facet normal 0 0 1
    outer loop
      vertex 0.415734 0.277784 0.7
      vertex 0.415734 -0.277784 0.7
      vertex 0.44096 -0.235698 0.7
    endloop
  endfacet
  facet normal 0 0 1
    outer loop
      vertex 0.386505 0.317196 0.7
      vertex 0.415734 -0.277784 0.7
      vertex 0.415734 0.277784 0.7
    endloop
  endfacet
  facet normal 0 0 1
    outer loop
      vertex 0.386505 0.317196 0.7
      vertex 0.386505 -0.317196 0.7
      vertex 0.415734 -0.277784 0.7
    endloop
  endfacet
  facet normal 0 0 1
    outer loop
      vertex 0.353553 0.353553 0.7
      vertex 0.386505 -0.317196 0.7
      vertex 0.386505 0.317196 0.7
    endloop
  endfacet
  facet normal 0 0 1
    outer loop
      vertex 0.353553 0.353553 0.7
      vertex 0.353553 -0.353553 0.7
      vertex 0.386505 -0.317196 0.7
    endloop
  endfacet
  facet normal 0 0 1
    outer loop
      vertex 0.317196 0.386505 0.7
      vertex 0.353553 -0.353553 0.7
      vertex 0.353553 0.353553 0.7
    endloop
  endfacet
  facet normal 0 0 1
    outer loop
      vertex 0.317196 0.386505 0.7
      vertex 0.317196 -0.386505 0.7
      vertex 0.353553 -0.353553 0.7
    endloop
  endfacet
  facet normal 0 0 1
    outer loop
      vertex 0.277784 0.415734 0.7
      vertex 0.317196 -0.386505 0.7
      vertex 0.317196 0.386505 0.7
    endloop
  endfacet
  facet normal 0 0 1
    outer loop
      vertex 0.277784 0.415734 0.7
      vertex 0.277784 -0.415734 0.7
      vertex 0.317196 -0.386505 0.7
    endloop
  endfacet
  facet normal 0 0 1
    outer loop
      vertex 0.235698 0.44096 0.7
      vertex 0.277784 -0.415734 0.7
      vertex 0.277784 0.415734 0.7
    endloop
  endfacet
  facet normal 0 0 1
    outer loop
      vertex 0.235698 0.44096 0.7
      vertex 0.235698 -0.44096 0.7
      vertex 0.277784 -0.415734 0.7
    endloop
  endfacet
  facet normal 0 0 1
    outer loop
      vertex 0.191341 0.461939 0.7
      vertex 0.235698 -0.44096 0.7
      vertex 0.235698 0.44096 0.7
    endloop
  endfacet
  facet normal 0 0 1
    outer loop
      vertex 0.191341 0.461939 0.7
      vertex 0.191341 -0.461939 0.7
      vertex 0.235698 -0.44096 0.7
    endloop
  endfacet
  facet normal 0 0 1
    outer loop
      vertex 0.145142 0.47847 0.7
      vertex 0.191341 -0.461939 0.7
      vertex 0.191341 0.461939 0.7
    endloop
  endfacet
  facet normal 0 0 1
    outer loop
      vertex 0.145142 0.47847 0.7
      vertex 0.145142 -0.47847 0.7
      vertex 0.191341 -0.461939 0.7
    endloop
  endfacet
  facet normal 0 0 1
    outer loop
      vertex 0.0975447 0.490392 0.7
      vertex 0.145142 -0.47847 0.7
      vertex 0.145142 0.47847 0.7
    endloop
  endfacet
  facet normal 0 0 1
    outer loop
      vertex 0.0975447 0.490392 0.7
      vertex 0.0975447 -0.490392 0.7
      vertex 0.145142 -0.47847 0.7
    endloop
  endfacet
  facet normal 0 0 1
    outer loop
      vertex 0.0490084 0.497592 0.7
      vertex 0.0975447 -0.490392 0.7
      vertex 0.0975447 0.490392 0.7
    endloop
  endfacet
  facet normal 0 0 1
    outer loop
      vertex 0.0490084 0.497592 0.7
      vertex 0.0490084 -0.497592 0.7
      vertex 0.0975447 -0.490392 0.7
    endloop
  endfacet
  facet normal 0 0 1
    outer loop
      vertex 0 0.5 0.7
      vertex 0.0490084 -0.497592 0.7
      vertex 0.0490084 0.497592 0.7
    endloop
  endfacet
  facet normal 0 0 1
    outer loop
      vertex 0 0.5 0.7
      vertex 0 -0.5 0.7
      vertex 0.0490084 -0.497592 0.7
    endloop
  endfacet
  facet normal -0 0 1
    outer loop
      vertex -0.0490084 0.497592 0.7
      vertex 0 -0.5 0.7
      vertex 0 0.5 0.7
    endloop
  endfacet
  facet normal 0 0 1
    outer loop
      vertex -0.0490084 0.497592 0.7
      vertex -0.0490084 -0.497592 0.7
      vertex 0 -0.5 0.7
    endloop
  endfacet
  facet normal -0 0 1
    outer loop
      vertex -0.0975447 0.490392 0.7
      vertex -0.0490084 -0.497592 0.7
      vertex -0.0490084 0.497592 0.7
    endloop
  endfacet
  facet normal 0 0 1
    outer loop
      vertex -0.0975447 0.490392 0.7
      vertex -0.0975447 -0.490392 0.7
      vertex -0.0490084 -0.497592 0.7
    endloop
  endfacet
  facet normal -0 0 1
    outer loop
      vertex -0.145142 0.47847 0.7
      vertex -0.0975447 -0.490392 0.7
      vertex -0.0975447 0.490392 0.7
    endloop
  endfacet
  facet normal 0 0 1
    outer loop
      vertex -0.145142 0.47847 0.7
      vertex -0.145142 -0.47847 0.7
      vertex -0.0975447 -0.490392 0.7
    endloop
  endfacet
  facet normal -0 0 1
    outer loop
      vertex -0.191341 0.461939 0.7
      vertex -0.145142 -0.47847 0.7
      vertex -0.145142 0.47847 0.7
    endloop
  endfacet
  facet normal 0 0 1
    outer loop
      vertex -0.191341 0.461939 0.7
      vertex -0.191341 -0.461939 0.7
      vertex -0.145142 -0.47847 0.7
    endloop
  endfacet
  facet normal -0 0 1
    outer loop
      vertex -0.235698 0.44096 0.7
      vertex -0.191341 -0.461939 0.7
      vertex -0.191341 0.461939 0.7
    endloop
  endfacet
  facet normal 0 0 1
    outer loop
      vertex -0.235698 0.44096 0.7
      vertex -0.235698 -0.44096 0.7
      vertex -0.191341 -0.461939 0.7
    endloop
  endfacet
  facet normal -0 0 1
    outer loop
      vertex -0.277784 0.415734 0.7
      vertex -0.235698 -0.44096 0.7
      vertex -0.235698 0.44096 0.7
    endloop
  endfacet
  facet normal 0 0 1
    outer loop
      vertex -0.277784 0.415734 0.7
      vertex -0.277784 -0.415734 0.7
      vertex -0.235698 -0.44096 0.7
    endloop
  endfacet
  facet normal -0 0 1
    outer loop
      vertex -0.317196 0.386505 0.7
      vertex -0.277784 -0.415734 0.7
      vertex -0.277784 0.415734 0.7
    endloop
  endfacet
  facet normal 0 0 1
    outer loop
      vertex -0.317196 0.386505 0.7
      vertex -0.317196 -0.386505 0.7
      vertex -0.277784 -0.415734 0.7
    endloop
  endfacet
  facet normal -0 0 1
    outer loop
      vertex -0.353553 0.353553 0.7
      vertex -0.317196 -0.386505 0.7
      vertex -0.317196 0.386505 0.7
    endloop
  endfacet
  facet normal 0 0 1
    outer loop
      vertex -0.353553 0.353553 0.7
      vertex -0.353553 -0.353553 0.7
      vertex -0.317196 -0.386505 0.7
    endloop
  endfacet
  facet normal -0 0 1
    outer loop
      vertex -0.386505 0.317196 0.7
      vertex -0.353553 -0.353553 0.7
      vertex -0.353553 0.353553 0.7
    endloop
  endfacet
  facet normal 0 0 1
    outer loop
      vertex -0.386505 0.317196 0.7
      vertex -0.386505 -0.317196 0.7
      vertex -0.353553 -0.353553 0.7
    endloop
  endfacet
  facet normal -0 0 1
    outer loop
      vertex -0.415734 0.277784 0.7
      vertex -0.386505 -0.317196 0.7
      vertex -0.386505 0.317196 0.7
    endloop
  endfacet
  facet normal 0 0 1
    outer loop
      vertex -0.415734 0.277784 0.7
      vertex -0.415734 -0.277784 0.7
      vertex -0.386505 -0.317196 0.7
    endloop
  endfacet
  facet normal -0 0 1
    outer loop
      vertex -0.44096 0.235698 0.7
      vertex -0.415734 -0.277784 0.7
      vertex -0.415734 0.277784 0.7
    endloop
  endfacet
  facet normal 0 0 1
    outer loop
      vertex -0.44096 0.235698 0.7
      vertex -0.44096 -0.235698 0.7
      vertex -0.415734 -0.277784 0.7
    endloop
  endfacet
  facet normal -0 0 1
    outer loop
      vertex -0.461939 0.191341 0.7
      vertex -0.44096 -0.235698 0.7
      vertex -0.44096 0.235698 0.7
    endloop
  endfacet
  facet normal 0 0 1
    outer loop
      vertex -0.461939 0.191341 0.7
      vertex -0.461939 -0.191341 0.7
      vertex -0.44096 -0.235698 0.7
    endloop
  endfacet
  facet normal -0 0 1
    outer loop
      vertex -0.47847 0.145142 0.7
      vertex -0.461939 -0.191341 0.7
      vertex -0.461939 0.191341 0.7
    endloop
  endfacet
  facet normal 0 0 1
    outer loop
      vertex -0.47847 0.145142 0.7
      vertex -0.47847 -0.145142 0.7
      vertex -0.461939 -0.191341 0.7
    endloop
  endfacet
  facet normal -0 0 1
    outer loop
      vertex -0.490392 0.0975447 0.7
      vertex -0.47847 -0.145142 0.7
      vertex -0.47847 0.145142 0.7
    endloop
  endfacet
  facet normal 0 0 1
    outer loop
      vertex -0.490392 0.0975447 0.7
      vertex -0.490392 -0.0975447 0.7
      vertex -0.47847 -0.145142 0.7
    endloop
  endfacet
  facet normal -0 0 1
    outer loop
      vertex -0.497592 0.0490084 0.7
      vertex -0.490392 -0.0975447 0.7
      vertex -0.490392 0.0975447 0.7
    endloop
  endfacet
  facet normal 0 0 1
    outer loop
      vertex -0.497592 0.0490084 0.7
      vertex -0.497592 -0.0490084 0.7
      vertex -0.490392 -0.0975447 0.7
    endloop
  endfacet
  facet normal 0 -0 1
    outer loop
      vertex -0.497592 -0.0490084 0.7
      vertex -0.497592 0.0490084 0.7
      vertex -0.5 0 0.7
    endloop
  endfacet
  facet normal 0.803217 -0.595687 0
    outer loop
      vertex 0.386505 -0.317196 0.7
      vertex 0.415734 -0.277784 0.0999994
      vertex 0.415734 -0.277784 0.7
    endloop
  endfacet
  facet normal 0.803217 -0.595687 0
    outer loop
      vertex 0.415734 -0.277784 0.0999994
      vertex 0.386505 -0.317196 0.7
      vertex 0.386505 -0.317196 0.0999994
    endloop
  endfacet
  facet normal -0.740952 -0.671558 0
    outer loop
      vertex -0.353553 -0.353553 0.0999994
      vertex -0.386505 -0.317196 0.7
      vertex -0.386505 -0.317196 0.0999994
    endloop
  endfacet
  facet normal -0.740952 -0.671558 0
    outer loop
      vertex -0.386505 -0.317196 0.7
      vertex -0.353553 -0.353553 0.0999994
      vertex -0.353553 -0.353553 0.7
    endloop
  endfacet
  facet normal -0.514112 0.857723 0
    outer loop
      vertex -0.235698 0.44096 0.0999994
      vertex -0.277784 0.415734 0.7
      vertex -0.235698 0.44096 0.7
    endloop
  endfacet
  facet normal -0.514112 0.857723 0
    outer loop
      vertex -0.277784 0.415734 0.7
      vertex -0.235698 0.44096 0.0999994
      vertex -0.277784 0.415734 0.0999994
    endloop
  endfacet
  facet normal 0.989176 -0.146737 0
    outer loop
      vertex 0.490392 -0.0975447 0.7
      vertex 0.497592 -0.0490084 0.0999994
      vertex 0.497592 -0.0490084 0.7
    endloop
  endfacet
  facet normal 0.989176 -0.146737 0
    outer loop
      vertex 0.497592 -0.0490084 0.0999994
      vertex 0.490392 -0.0975447 0.7
      vertex 0.490392 -0.0975447 0.0999994
    endloop
  endfacet
  facet normal -0.146737 -0.989176 0
    outer loop
      vertex -0.0975447 -0.490392 0.0999994
      vertex -0.0490084 -0.497592 0.7
      vertex -0.0975447 -0.490392 0.7
    endloop
  endfacet
  facet normal -0.146737 -0.989176 -0
    outer loop
      vertex -0.0490084 -0.497592 0.7
      vertex -0.0975447 -0.490392 0.0999994
      vertex -0.0490084 -0.497592 0.0999994
    endloop
  endfacet
  facet normal 0.595687 -0.803217 0
    outer loop
      vertex 0.277784 -0.415734 0.0999994
      vertex 0.317196 -0.386505 0.7
      vertex 0.277784 -0.415734 0.7
    endloop
  endfacet
  facet normal 0.595687 -0.803217 0
    outer loop
      vertex 0.317196 -0.386505 0.7
      vertex 0.277784 -0.415734 0.0999994
      vertex 0.317196 -0.386505 0.0999994
    endloop
  endfacet
  facet normal -0.0490752 -0.998795 0
    outer loop
      vertex -0.0490084 -0.497592 0.0999994
      vertex 0 -0.5 0.7
      vertex -0.0490084 -0.497592 0.7
    endloop
  endfacet
  facet normal -0.0490752 -0.998795 -0
    outer loop
      vertex 0 -0.5 0.7
      vertex -0.0490084 -0.497592 0.0999994
      vertex 0 -0.5 0.0999994
    endloop
  endfacet
  facet normal 0.595687 0.803217 -0
    outer loop
      vertex 0.317196 0.386505 0.0999994
      vertex 0.277784 0.415734 0.7
      vertex 0.317196 0.386505 0.7
    endloop
  endfacet
  facet normal 0.595687 0.803217 0
    outer loop
      vertex 0.277784 0.415734 0.7
      vertex 0.317196 0.386505 0.0999994
      vertex 0.277784 0.415734 0.0999994
    endloop
  endfacet
  facet normal 0.970034 -0.242971 0
    outer loop
      vertex 0.47847 -0.145142 0.7
      vertex 0.490392 -0.0975447 0.0999994
      vertex 0.490392 -0.0975447 0.7
    endloop
  endfacet
  facet normal 0.970034 -0.242971 0
    outer loop
      vertex 0.490392 -0.0975447 0.0999994
      vertex 0.47847 -0.145142 0.7
      vertex 0.47847 -0.145142 0.0999994
    endloop
  endfacet
  facet normal -0.989176 0.146737 0
    outer loop
      vertex -0.497592 0.0490084 0.0999994
      vertex -0.490392 0.0975447 0.7
      vertex -0.490392 0.0975447 0.0999994
    endloop
  endfacet
  facet normal -0.989176 0.146737 0
    outer loop
      vertex -0.490392 0.0975447 0.7
      vertex -0.497592 0.0490084 0.0999994
      vertex -0.497592 0.0490084 0.7
    endloop
  endfacet
  facet normal -0.857723 0.514112 0
    outer loop
      vertex -0.44096 0.235698 0.0999994
      vertex -0.415734 0.277784 0.7
      vertex -0.415734 0.277784 0.0999994
    endloop
  endfacet
  facet normal -0.857723 0.514112 0
    outer loop
      vertex -0.415734 0.277784 0.7
      vertex -0.44096 0.235698 0.0999994
      vertex -0.44096 0.235698 0.7
    endloop
  endfacet
  facet normal -0.941539 -0.336903 0
    outer loop
      vertex -0.461939 -0.191341 0.0999994
      vertex -0.47847 -0.145142 0.7
      vertex -0.47847 -0.145142 0.0999994
    endloop
  endfacet
  facet normal -0.941539 -0.336903 0
    outer loop
      vertex -0.47847 -0.145142 0.7
      vertex -0.461939 -0.191341 0.0999994
      vertex -0.461939 -0.191341 0.7
    endloop
  endfacet
  facet normal -0.146737 0.989176 0
    outer loop
      vertex -0.0490084 0.497592 0.0999994
      vertex -0.0975447 0.490392 0.7
      vertex -0.0490084 0.497592 0.7
    endloop
  endfacet
  facet normal -0.146737 0.989176 0
    outer loop
      vertex -0.0975447 0.490392 0.7
      vertex -0.0490084 0.497592 0.0999994
      vertex -0.0975447 0.490392 0.0999994
    endloop
  endfacet
  facet normal 0.803217 0.595687 0
    outer loop
      vertex 0.415734 0.277784 0.7
      vertex 0.386505 0.317196 0.0999994
      vertex 0.386505 0.317196 0.7
    endloop
  endfacet
  facet normal 0.803217 0.595687 0
    outer loop
      vertex 0.386505 0.317196 0.0999994
      vertex 0.415734 0.277784 0.7
      vertex 0.415734 0.277784 0.0999994
    endloop
  endfacet
  facet normal -0.970034 -0.242971 0
    outer loop
      vertex -0.47847 -0.145142 0.0999994
      vertex -0.490392 -0.0975447 0.7
      vertex -0.490392 -0.0975447 0.0999994
    endloop
  endfacet
  facet normal -0.970034 -0.242971 0
    outer loop
      vertex -0.490392 -0.0975447 0.7
      vertex -0.47847 -0.145142 0.0999994
      vertex -0.47847 -0.145142 0.7
    endloop
  endfacet
  facet normal -0.998795 -0.0490752 0
    outer loop
      vertex -0.497592 -0.0490084 0.0999994
      vertex -0.5 0 0.7
      vertex -0.5 0 0.0999994
    endloop
  endfacet
  facet normal -0.998795 -0.0490752 0
    outer loop
      vertex -0.5 0 0.7
      vertex -0.497592 -0.0490084 0.0999994
      vertex -0.497592 -0.0490084 0.7
    endloop
  endfacet
  facet normal 0.514112 0.857723 -0
    outer loop
      vertex 0.277784 0.415734 0.0999994
      vertex 0.235698 0.44096 0.7
      vertex 0.277784 0.415734 0.7
    endloop
  endfacet
  facet normal 0.514112 0.857723 0
    outer loop
      vertex 0.235698 0.44096 0.7
      vertex 0.277784 0.415734 0.0999994
      vertex 0.235698 0.44096 0.0999994
    endloop
  endfacet
  facet normal 0.998795 -0.0490752 0
    outer loop
      vertex 0.497592 -0.0490084 0.7
      vertex 0.5 0 0.0999994
      vertex 0.5 0 0.7
    endloop
  endfacet
  facet normal 0.998795 -0.0490752 0
    outer loop
      vertex 0.5 0 0.0999994
      vertex 0.497592 -0.0490084 0.7
      vertex 0.497592 -0.0490084 0.0999994
    endloop
  endfacet
  facet normal 0.903992 -0.42755 0
    outer loop
      vertex 0.44096 -0.235698 0.7
      vertex 0.461939 -0.191341 0.0999994
      vertex 0.461939 -0.191341 0.7
    endloop
  endfacet
  facet normal 0.903992 -0.42755 0
    outer loop
      vertex 0.461939 -0.191341 0.0999994
      vertex 0.44096 -0.235698 0.7
      vertex 0.44096 -0.235698 0.0999994
    endloop
  endfacet
  facet normal 0.740952 0.671558 0
    outer loop
      vertex 0.386505 0.317196 0.7
      vertex 0.353553 0.353553 0.0999994
      vertex 0.353553 0.353553 0.7
    endloop
  endfacet
  facet normal 0.740952 0.671558 0
    outer loop
      vertex 0.353553 0.353553 0.0999994
      vertex 0.386505 0.317196 0.7
      vertex 0.386505 0.317196 0.0999994
    endloop
  endfacet
  facet normal -0.0490752 0.998795 0
    outer loop
      vertex 0 0.5 0.0999994
      vertex -0.0490084 0.497592 0.7
      vertex 0 0.5 0.7
    endloop
  endfacet
  facet normal -0.0490752 0.998795 0
    outer loop
      vertex -0.0490084 0.497592 0.7
      vertex 0 0.5 0.0999994
      vertex -0.0490084 0.497592 0.0999994
    endloop
  endfacet
  facet normal -0.740952 0.671558 0
    outer loop
      vertex -0.386505 0.317196 0.0999994
      vertex -0.353553 0.353553 0.7
      vertex -0.353553 0.353553 0.0999994
    endloop
  endfacet
  facet normal -0.740952 0.671558 0
    outer loop
      vertex -0.353553 0.353553 0.7
      vertex -0.386505 0.317196 0.0999994
      vertex -0.386505 0.317196 0.7
    endloop
  endfacet
  facet normal -0.671558 -0.740952 0
    outer loop
      vertex -0.353553 -0.353553 0.0999994
      vertex -0.317196 -0.386505 0.7
      vertex -0.353553 -0.353553 0.7
    endloop
  endfacet
  facet normal -0.671558 -0.740952 -0
    outer loop
      vertex -0.317196 -0.386505 0.7
      vertex -0.353553 -0.353553 0.0999994
      vertex -0.317196 -0.386505 0.0999994
    endloop
  endfacet
  facet normal 0.0490752 -0.998795 0
    outer loop
      vertex 0 -0.5 0.0999994
      vertex 0.0490084 -0.497592 0.7
      vertex 0 -0.5 0.7
    endloop
  endfacet
  facet normal 0.0490752 -0.998795 0
    outer loop
      vertex 0.0490084 -0.497592 0.7
      vertex 0 -0.5 0.0999994
      vertex 0.0490084 -0.497592 0.0999994
    endloop
  endfacet
  facet normal 0.941539 0.336903 0
    outer loop
      vertex 0.47847 0.145142 0.7
      vertex 0.461939 0.191341 0.0999994
      vertex 0.461939 0.191341 0.7
    endloop
  endfacet
  facet normal 0.941539 0.336903 0
    outer loop
      vertex 0.461939 0.191341 0.0999994
      vertex 0.47847 0.145142 0.7
      vertex 0.47847 0.145142 0.0999994
    endloop
  endfacet
  facet normal 0.857723 -0.514112 0
    outer loop
      vertex 0.415734 -0.277784 0.7
      vertex 0.44096 -0.235698 0.0999994
      vertex 0.44096 -0.235698 0.7
    endloop
  endfacet
  facet normal 0.857723 -0.514112 0
    outer loop
      vertex 0.44096 -0.235698 0.0999994
      vertex 0.415734 -0.277784 0.7
      vertex 0.415734 -0.277784 0.0999994
    endloop
  endfacet
  facet normal 0.671558 0.740952 -0
    outer loop
      vertex 0.353553 0.353553 0.0999994
      vertex 0.317196 0.386505 0.7
      vertex 0.353553 0.353553 0.7
    endloop
  endfacet
  facet normal 0.671558 0.740952 0
    outer loop
      vertex 0.317196 0.386505 0.7
      vertex 0.353553 0.353553 0.0999994
      vertex 0.317196 0.386505 0.0999994
    endloop
  endfacet
  facet normal -0.242971 0.970034 0
    outer loop
      vertex -0.0975447 0.490392 0.0999994
      vertex -0.145142 0.47847 0.7
      vertex -0.0975447 0.490392 0.7
    endloop
  endfacet
  facet normal -0.242971 0.970034 0
    outer loop
      vertex -0.145142 0.47847 0.7
      vertex -0.0975447 0.490392 0.0999994
      vertex -0.145142 0.47847 0.0999994
    endloop
  endfacet
  facet normal 0.336903 -0.941539 0
    outer loop
      vertex 0.145142 -0.47847 0.0999994
      vertex 0.191341 -0.461939 0.7
      vertex 0.145142 -0.47847 0.7
    endloop
  endfacet
  facet normal 0.336903 -0.941539 0
    outer loop
      vertex 0.191341 -0.461939 0.7
      vertex 0.145142 -0.47847 0.0999994
      vertex 0.191341 -0.461939 0.0999994
    endloop
  endfacet
  facet normal -0.42755 0.903992 0
    outer loop
      vertex -0.191341 0.461939 0.0999994
      vertex -0.235698 0.44096 0.7
      vertex -0.191341 0.461939 0.7
    endloop
  endfacet
  facet normal -0.42755 0.903992 0
    outer loop
      vertex -0.235698 0.44096 0.7
      vertex -0.191341 0.461939 0.0999994
      vertex -0.235698 0.44096 0.0999994
    endloop
  endfacet
  facet normal 0.903992 0.42755 0
    outer loop
      vertex 0.461939 0.191341 0.7
      vertex 0.44096 0.235698 0.0999994
      vertex 0.44096 0.235698 0.7
    endloop
  endfacet
  facet normal 0.903992 0.42755 0
    outer loop
      vertex 0.44096 0.235698 0.0999994
      vertex 0.461939 0.191341 0.7
      vertex 0.461939 0.191341 0.0999994
    endloop
  endfacet
  facet normal -0.671558 0.740952 0
    outer loop
      vertex -0.317196 0.386505 0.0999994
      vertex -0.353553 0.353553 0.7
      vertex -0.317196 0.386505 0.7
    endloop
  endfacet
  facet normal -0.671558 0.740952 0
    outer loop
      vertex -0.353553 0.353553 0.7
      vertex -0.317196 0.386505 0.0999994
      vertex -0.353553 0.353553 0.0999994
    endloop
  endfacet
  facet normal 0.857723 0.514112 0
    outer loop
      vertex 0.44096 0.235698 0.7
      vertex 0.415734 0.277784 0.0999994
      vertex 0.415734 0.277784 0.7
    endloop
  endfacet
  facet normal 0.857723 0.514112 0
    outer loop
      vertex 0.415734 0.277784 0.0999994
      vertex 0.44096 0.235698 0.7
      vertex 0.44096 0.235698 0.0999994
    endloop
  endfacet
  facet normal 0.336903 0.941539 -0
    outer loop
      vertex 0.191341 0.461939 0.0999994
      vertex 0.145142 0.47847 0.7
      vertex 0.191341 0.461939 0.7
    endloop
  endfacet
  facet normal 0.336903 0.941539 0
    outer loop
      vertex 0.145142 0.47847 0.7
      vertex 0.191341 0.461939 0.0999994
      vertex 0.145142 0.47847 0.0999994
    endloop
  endfacet
  facet normal -0.336903 0.941539 0
    outer loop
      vertex -0.145142 0.47847 0.0999994
      vertex -0.191341 0.461939 0.7
      vertex -0.145142 0.47847 0.7
    endloop
  endfacet
  facet normal -0.336903 0.941539 0
    outer loop
      vertex -0.191341 0.461939 0.7
      vertex -0.145142 0.47847 0.0999994
      vertex -0.191341 0.461939 0.0999994
    endloop
  endfacet
  facet normal -0.857723 -0.514112 0
    outer loop
      vertex -0.415734 -0.277784 0.0999994
      vertex -0.44096 -0.235698 0.7
      vertex -0.44096 -0.235698 0.0999994
    endloop
  endfacet
  facet normal -0.857723 -0.514112 0
    outer loop
      vertex -0.44096 -0.235698 0.7
      vertex -0.415734 -0.277784 0.0999994
      vertex -0.415734 -0.277784 0.7
    endloop
  endfacet
  facet normal -0.514112 -0.857723 0
    outer loop
      vertex -0.277784 -0.415734 0.0999994
      vertex -0.235698 -0.44096 0.7
      vertex -0.277784 -0.415734 0.7
    endloop
  endfacet
  facet normal -0.514112 -0.857723 -0
    outer loop
      vertex -0.235698 -0.44096 0.7
      vertex -0.277784 -0.415734 0.0999994
      vertex -0.235698 -0.44096 0.0999994
    endloop
  endfacet
  facet normal 0.671558 -0.740952 0
    outer loop
      vertex 0.317196 -0.386505 0.0999994
      vertex 0.353553 -0.353553 0.7
      vertex 0.317196 -0.386505 0.7
    endloop
  endfacet
  facet normal 0.671558 -0.740952 0
    outer loop
      vertex 0.353553 -0.353553 0.7
      vertex 0.317196 -0.386505 0.0999994
      vertex 0.353553 -0.353553 0.0999994
    endloop
  endfacet
  facet normal 0.242971 0.970034 -0
    outer loop
      vertex 0.145142 0.47847 0.0999994
      vertex 0.0975447 0.490392 0.7
      vertex 0.145142 0.47847 0.7
    endloop
  endfacet
  facet normal 0.242971 0.970034 0
    outer loop
      vertex 0.0975447 0.490392 0.7
      vertex 0.145142 0.47847 0.0999994
      vertex 0.0975447 0.490392 0.0999994
    endloop
  endfacet
  facet normal -0.42755 -0.903992 0
    outer loop
      vertex -0.235698 -0.44096 0.0999994
      vertex -0.191341 -0.461939 0.7
      vertex -0.235698 -0.44096 0.7
    endloop
  endfacet
  facet normal -0.42755 -0.903992 -0
    outer loop
      vertex -0.191341 -0.461939 0.7
      vertex -0.235698 -0.44096 0.0999994
      vertex -0.191341 -0.461939 0.0999994
    endloop
  endfacet
  facet normal -0.803217 -0.595687 0
    outer loop
      vertex -0.386505 -0.317196 0.0999994
      vertex -0.415734 -0.277784 0.7
      vertex -0.415734 -0.277784 0.0999994
    endloop
  endfacet
  facet normal -0.803217 -0.595687 0
    outer loop
      vertex -0.415734 -0.277784 0.7
      vertex -0.386505 -0.317196 0.0999994
      vertex -0.386505 -0.317196 0.7
    endloop
  endfacet
  facet normal -0.242971 -0.970034 0
    outer loop
      vertex -0.145142 -0.47847 0.0999994
      vertex -0.0975447 -0.490392 0.7
      vertex -0.145142 -0.47847 0.7
    endloop
  endfacet
  facet normal -0.242971 -0.970034 -0
    outer loop
      vertex -0.0975447 -0.490392 0.7
      vertex -0.145142 -0.47847 0.0999994
      vertex -0.0975447 -0.490392 0.0999994
    endloop
  endfacet
  facet normal -0.989176 -0.146737 0
    outer loop
      vertex -0.490392 -0.0975447 0.0999994
      vertex -0.497592 -0.0490084 0.7
      vertex -0.497592 -0.0490084 0.0999994
    endloop
  endfacet
  facet normal -0.989176 -0.146737 0
    outer loop
      vertex -0.497592 -0.0490084 0.7
      vertex -0.490392 -0.0975447 0.0999994
      vertex -0.490392 -0.0975447 0.7
    endloop
  endfacet
  facet normal -0.595687 -0.803217 0
    outer loop
      vertex -0.317196 -0.386505 0.0999994
      vertex -0.277784 -0.415734 0.7
      vertex -0.317196 -0.386505 0.7
    endloop
  endfacet
  facet normal -0.595687 -0.803217 -0
    outer loop
      vertex -0.277784 -0.415734 0.7
      vertex -0.317196 -0.386505 0.0999994
      vertex -0.277784 -0.415734 0.0999994
    endloop
  endfacet
  facet normal -0.903992 -0.42755 0
    outer loop
      vertex -0.44096 -0.235698 0.0999994
      vertex -0.461939 -0.191341 0.7
      vertex -0.461939 -0.191341 0.0999994
    endloop
  endfacet
  facet normal -0.903992 -0.42755 0
    outer loop
      vertex -0.461939 -0.191341 0.7
      vertex -0.44096 -0.235698 0.0999994
      vertex -0.44096 -0.235698 0.7
    endloop
  endfacet
  facet normal -0.941539 0.336903 0
    outer loop
      vertex -0.47847 0.145142 0.0999994
      vertex -0.461939 0.191341 0.7
      vertex -0.461939 0.191341 0.0999994
    endloop
  endfacet
  facet normal -0.941539 0.336903 0
    outer loop
      vertex -0.461939 0.191341 0.7
      vertex -0.47847 0.145142 0.0999994
      vertex -0.47847 0.145142 0.7
    endloop
  endfacet
  facet normal 0.941539 -0.336903 0
    outer loop
      vertex 0.461939 -0.191341 0.7
      vertex 0.47847 -0.145142 0.0999994
      vertex 0.47847 -0.145142 0.7
    endloop
  endfacet
  facet normal 0.941539 -0.336903 0
    outer loop
      vertex 0.47847 -0.145142 0.0999994
      vertex 0.461939 -0.191341 0.7
      vertex 0.461939 -0.191341 0.0999994
    endloop
  endfacet
  facet normal -0.803217 0.595687 0
    outer loop
      vertex -0.415734 0.277784 0.0999994
      vertex -0.386505 0.317196 0.7
      vertex -0.386505 0.317196 0.0999994
    endloop
  endfacet
  facet normal -0.803217 0.595687 0
    outer loop
      vertex -0.386505 0.317196 0.7
      vertex -0.415734 0.277784 0.0999994
      vertex -0.415734 0.277784 0.7
    endloop
  endfacet
  facet normal -0.998795 0.0490752 0
    outer loop
      vertex -0.5 0 0.0999994
      vertex -0.497592 0.0490084 0.7
      vertex -0.497592 0.0490084 0.0999994
    endloop
  endfacet
  facet normal -0.998795 0.0490752 0
    outer loop
      vertex -0.497592 0.0490084 0.7
      vertex -0.5 0 0.0999994
      vertex -0.5 0 0.7
    endloop
  endfacet
  facet normal -0.336903 -0.941539 0
    outer loop
      vertex -0.191341 -0.461939 0.0999994
      vertex -0.145142 -0.47847 0.7
      vertex -0.191341 -0.461939 0.7
    endloop
  endfacet
  facet normal -0.336903 -0.941539 -0
    outer loop
      vertex -0.145142 -0.47847 0.7
      vertex -0.191341 -0.461939 0.0999994
      vertex -0.145142 -0.47847 0.0999994
    endloop
  endfacet
  facet normal 0.740952 -0.671558 0
    outer loop
      vertex 0.353553 -0.353553 0.7
      vertex 0.386505 -0.317196 0.0999994
      vertex 0.386505 -0.317196 0.7
    endloop
  endfacet
  facet normal 0.740952 -0.671558 0
    outer loop
      vertex 0.386505 -0.317196 0.0999994
      vertex 0.353553 -0.353553 0.7
      vertex 0.353553 -0.353553 0.0999994
    endloop
  endfacet
endsolid OpenSCAD_Model
