solid OpenSCAD_Model
  facet normal -0.980784 0.195095 0
    outer loop
      vertex -1.8 0 -0.294999
      vertex -1.66298 0.688829 0.294999
      vertex -1.66298 0.688829 -0.294999
    endloop
  endfacet
  facet normal -0.980784 0.195095 0
    outer loop
      vertex -1.66298 0.688829 0.294999
      vertex -1.8 0 -0.294999
      vertex -1.8 0 0.294999
    endloop
  endfacet
  facet normal 0.83147 0.55557 0
    outer loop
      vertex 1.66298 0.688829 0.294999
      vertex 1.27279 1.27279 -0.294999
      vertex 1.27279 1.27279 0.294999
    endloop
  endfacet
  facet normal 0.83147 0.55557 0
    outer loop
      vertex 1.27279 1.27279 -0.294999
      vertex 1.66298 0.688829 0.294999
      vertex 1.66298 0.688829 -0.294999
    endloop
  endfacet
  facet normal 0.980784 0.195095 0
    outer loop
      vertex 1.8 0 0.294999
      vertex 1.66298 0.688829 -0.294999
      vertex 1.66298 0.688829 0.294999
    endloop
  endfacet
  facet normal 0.980784 0.195095 0
    outer loop
      vertex 1.66298 0.688829 -0.294999
      vertex 1.8 0 0.294999
      vertex 1.8 0 -0.294999
    endloop
  endfacet
  facet normal 0.55557 0.83147 -0
    outer loop
      vertex 1.27279 1.27279 -0.294999
      vertex 0.688829 1.66298 0.294999
      vertex 1.27279 1.27279 0.294999
    endloop
  endfacet
  facet normal 0.55557 0.83147 0
    outer loop
      vertex 0.688829 1.66298 0.294999
      vertex 1.27279 1.27279 -0.294999
      vertex 0.688829 1.66298 -0.294999
    endloop
  endfacet
  facet normal 0.83147 -0.55557 0
    outer loop
      vertex 1.27279 -1.27279 0.294999
      vertex 1.66298 -0.688829 -0.294999
      vertex 1.66298 -0.688829 0.294999
    endloop
  endfacet
  facet normal 0.83147 -0.55557 0
    outer loop
      vertex 1.66298 -0.688829 -0.294999
      vertex 1.27279 -1.27279 0.294999
      vertex 1.27279 -1.27279 -0.294999
    endloop
  endfacet
  facet normal 0.55557 -0.83147 0
    outer loop
      vertex 0.688829 -1.66298 -0.294999
      vertex 1.27279 -1.27279 0.294999
      vertex 0.688829 -1.66298 0.294999
    endloop
  endfacet
  facet normal 0.55557 -0.83147 0
    outer loop
      vertex 1.27279 -1.27279 0.294999
      vertex 0.688829 -1.66298 -0.294999
      vertex 1.27279 -1.27279 -0.294999
    endloop
  endfacet
  facet normal -0.55557 0.83147 0
    outer loop
      vertex -0.688829 1.66298 -0.294999
      vertex -1.27279 1.27279 0.294999
      vertex -0.688829 1.66298 0.294999
    endloop
  endfacet
  facet normal -0.55557 0.83147 0
    outer loop
      vertex -1.27279 1.27279 0.294999
      vertex -0.688829 1.66298 -0.294999
      vertex -1.27279 1.27279 -0.294999
    endloop
  endfacet
  facet normal -0.195095 -0.980784 0
    outer loop
      vertex -0.688829 -1.66298 -0.294999
      vertex 0 -1.8 0.294999
      vertex -0.688829 -1.66298 0.294999
    endloop
  endfacet
  facet normal -0.195095 -0.980784 -0
    outer loop
      vertex 0 -1.8 0.294999
      vertex -0.688829 -1.66298 -0.294999
      vertex 0 -1.8 -0.294999
    endloop
  endfacet
  facet normal 0.195095 -0.980784 0
    outer loop
      vertex 0 -1.8 -0.294999
      vertex 0.688829 -1.66298 0.294999
      vertex 0 -1.8 0.294999
    endloop
  endfacet
  facet normal 0.195095 -0.980784 0
    outer loop
      vertex 0.688829 -1.66298 0.294999
      vertex 0 -1.8 -0.294999
      vertex 0.688829 -1.66298 -0.294999
    endloop
  endfacet
  facet normal -0.195095 0.980784 0
    outer loop
      vertex 0 1.8 -0.294999
      vertex -0.688829 1.66298 0.294999
      vertex 0 1.8 0.294999
    endloop
  endfacet
  facet normal -0.195095 0.980784 0
    outer loop
      vertex -0.688829 1.66298 0.294999
      vertex 0 1.8 -0.294999
      vertex -0.688829 1.66298 -0.294999
    endloop
  endfacet
  facet normal 0.980784 -0.195095 0
    outer loop
      vertex 1.66298 -0.688829 0.294999
      vertex 1.8 0 -0.294999
      vertex 1.8 0 0.294999
    endloop
  endfacet
  facet normal 0.980784 -0.195095 0
    outer loop
      vertex 1.8 0 -0.294999
      vertex 1.66298 -0.688829 0.294999
      vertex 1.66298 -0.688829 -0.294999
    endloop
  endfacet
  facet normal -0 0 1
    outer loop
      vertex 1.55945 0.310193 0.294999
      vertex 1.8 0 0.294999
      vertex 1.66298 0.688829 0.294999
    endloop
  endfacet
  facet normal 0 0 1
    outer loop
      vertex 1.58234 -0.155847 0.294999
      vertex 1.8 0 0.294999
      vertex 1.59 0 0.294999
    endloop
  endfacet
  facet normal 0 0 1
    outer loop
      vertex 1.8 0 0.294999
      vertex 1.58234 0.155847 0.294999
      vertex 1.59 0 0.294999
    endloop
  endfacet
  facet normal 0 0 1
    outer loop
      vertex 1.8 0 0.294999
      vertex 1.55945 0.310193 0.294999
      vertex 1.58234 0.155847 0.294999
    endloop
  endfacet
  facet normal 0 0 1
    outer loop
      vertex 1.66298 0.688829 0.294999
      vertex 1.52153 0.461553 0.294999
      vertex 1.55945 0.310193 0.294999
    endloop
  endfacet
  facet normal 0 0 1
    outer loop
      vertex 1.66298 0.688829 0.294999
      vertex 1.46897 0.608466 0.294999
      vertex 1.52153 0.461553 0.294999
    endloop
  endfacet
  facet normal 0 0 1
    outer loop
      vertex 1.66298 0.688829 0.294999
      vertex 1.40225 0.74952 0.294999
      vertex 1.46897 0.608466 0.294999
    endloop
  endfacet
  facet normal 0 0 1
    outer loop
      vertex 1.66298 0.688829 0.294999
      vertex 1.32204 0.883356 0.294999
      vertex 1.40225 0.74952 0.294999
    endloop
  endfacet
  facet normal 0 0 1
    outer loop
      vertex 1.27279 1.27279 0.294999
      vertex 1.32204 0.883356 0.294999
      vertex 1.66298 0.688829 0.294999
    endloop
  endfacet
  facet normal 0 0 1
    outer loop
      vertex 1.27279 1.27279 0.294999
      vertex 1.22909 1.00869 0.294999
      vertex 1.32204 0.883356 0.294999
    endloop
  endfacet
  facet normal 0 0 1
    outer loop
      vertex 1.27279 1.27279 0.294999
      vertex 1.1243 1.1243 0.294999
      vertex 1.22909 1.00869 0.294999
    endloop
  endfacet
  facet normal 0 0 1
    outer loop
      vertex 1.27279 1.27279 0.294999
      vertex 1.00869 1.22909 0.294999
      vertex 1.1243 1.1243 0.294999
    endloop
  endfacet
  facet normal 0 0 1
    outer loop
      vertex 1.27279 1.27279 0.294999
      vertex 0.883356 1.32204 0.294999
      vertex 1.00869 1.22909 0.294999
    endloop
  endfacet
  facet normal 0 0 1
    outer loop
      vertex 0.688829 1.66298 0.294999
      vertex 0.883356 1.32204 0.294999
      vertex 1.27279 1.27279 0.294999
    endloop
  endfacet
  facet normal 0 0 1
    outer loop
      vertex 0.883356 1.32204 0.294999
      vertex 0.688829 1.66298 0.294999
      vertex 0.74952 1.40225 0.294999
    endloop
  endfacet
  facet normal 0 0 1
    outer loop
      vertex 0.688829 1.66298 0.294999
      vertex 0.608466 1.46897 0.294999
      vertex 0.74952 1.40225 0.294999
    endloop
  endfacet
  facet normal 0 0 1
    outer loop
      vertex 0.688829 1.66298 0.294999
      vertex 0.461553 1.52153 0.294999
      vertex 0.608466 1.46897 0.294999
    endloop
  endfacet
  facet normal 0 0 1
    outer loop
      vertex 0.688829 1.66298 0.294999
      vertex 0.310193 1.55945 0.294999
      vertex 0.461553 1.52153 0.294999
    endloop
  endfacet
  facet normal 0 0 1
    outer loop
      vertex 0 1.8 0.294999
      vertex 0.310193 1.55945 0.294999
      vertex 0.688829 1.66298 0.294999
    endloop
  endfacet
  facet normal 0 0 1
    outer loop
      vertex 0.310193 1.55945 0.294999
      vertex 0 1.8 0.294999
      vertex 0.155847 1.58234 0.294999
    endloop
  endfacet
  facet normal 0 0 1
    outer loop
      vertex 0 1.8 0.294999
      vertex 0 1.59 0.294999
      vertex 0.155847 1.58234 0.294999
    endloop
  endfacet
  facet normal 0 0 1
    outer loop
      vertex 0 1.8 0.294999
      vertex -0.155847 1.58234 0.294999
      vertex 0 1.59 0.294999
    endloop
  endfacet
  facet normal 0 0 1
    outer loop
      vertex 0 1.8 0.294999
      vertex -0.310193 1.55945 0.294999
      vertex -0.155847 1.58234 0.294999
    endloop
  endfacet
  facet normal -0 0 1
    outer loop
      vertex -0.688829 1.66298 0.294999
      vertex -0.310193 1.55945 0.294999
      vertex 0 1.8 0.294999
    endloop
  endfacet
  facet normal 0 0 1
    outer loop
      vertex -0.310193 1.55945 0.294999
      vertex -0.688829 1.66298 0.294999
      vertex -0.461553 1.52153 0.294999
    endloop
  endfacet
  facet normal 0 0 1
    outer loop
      vertex -0.461553 1.52153 0.294999
      vertex -0.688829 1.66298 0.294999
      vertex -0.608466 1.46897 0.294999
    endloop
  endfacet
  facet normal 0 0 1
    outer loop
      vertex -0.688829 1.66298 0.294999
      vertex -0.74952 1.40225 0.294999
      vertex -0.608466 1.46897 0.294999
    endloop
  endfacet
  facet normal 0 0 1
    outer loop
      vertex -0.688829 1.66298 0.294999
      vertex -0.883356 1.32204 0.294999
      vertex -0.74952 1.40225 0.294999
    endloop
  endfacet
  facet normal 0 0 1
    outer loop
      vertex -1.27279 1.27279 0.294999
      vertex -0.883356 1.32204 0.294999
      vertex -0.688829 1.66298 0.294999
    endloop
  endfacet
  facet normal 0 0 1
    outer loop
      vertex -0.883356 1.32204 0.294999
      vertex -1.27279 1.27279 0.294999
      vertex -1.00869 1.22909 0.294999
    endloop
  endfacet
  facet normal 0 0 1
    outer loop
      vertex -1.00869 1.22909 0.294999
      vertex -1.27279 1.27279 0.294999
      vertex -1.1243 1.1243 0.294999
    endloop
  endfacet
  facet normal 0 0 1
    outer loop
      vertex -1.1243 1.1243 0.294999
      vertex -1.27279 1.27279 0.294999
      vertex -1.22909 1.00869 0.294999
    endloop
  endfacet
  facet normal 0 0 1
    outer loop
      vertex -1.27279 1.27279 0.294999
      vertex -1.32204 0.883356 0.294999
      vertex -1.22909 1.00869 0.294999
    endloop
  endfacet
  facet normal 0 0 1
    outer loop
      vertex -1.66298 0.688829 0.294999
      vertex -1.32204 0.883356 0.294999
      vertex -1.27279 1.27279 0.294999
    endloop
  endfacet
  facet normal 0 0 1
    outer loop
      vertex -1.32204 0.883356 0.294999
      vertex -1.66298 0.688829 0.294999
      vertex -1.40225 0.74952 0.294999
    endloop
  endfacet
  facet normal 0 0 1
    outer loop
      vertex -1.40225 0.74952 0.294999
      vertex -1.66298 0.688829 0.294999
      vertex -1.46897 0.608466 0.294999
    endloop
  endfacet
  facet normal 0 0 1
    outer loop
      vertex -1.55945 0.310193 0.294999
      vertex -1.8 0 0.294999
      vertex -1.58234 0.155847 0.294999
    endloop
  endfacet
  facet normal 0 0 1
    outer loop
      vertex -1.8 0 0.294999
      vertex -1.55945 0.310193 0.294999
      vertex -1.66298 0.688829 0.294999
    endloop
  endfacet
  facet normal 0 0 1
    outer loop
      vertex -1.52153 0.461553 0.294999
      vertex -1.66298 0.688829 0.294999
      vertex -1.55945 0.310193 0.294999
    endloop
  endfacet
  facet normal 0 0 1
    outer loop
      vertex -1.46897 0.608466 0.294999
      vertex -1.66298 0.688829 0.294999
      vertex -1.52153 0.461553 0.294999
    endloop
  endfacet
  facet normal 0 0 1
    outer loop
      vertex 1.55945 -0.310193 0.294999
      vertex 1.8 0 0.294999
      vertex 1.58234 -0.155847 0.294999
    endloop
  endfacet
  facet normal 0 0 1
    outer loop
      vertex 1.8 0 0.294999
      vertex 1.55945 -0.310193 0.294999
      vertex 1.66298 -0.688829 0.294999
    endloop
  endfacet
  facet normal -0 0 1
    outer loop
      vertex 1.52153 -0.461553 0.294999
      vertex 1.66298 -0.688829 0.294999
      vertex 1.55945 -0.310193 0.294999
    endloop
  endfacet
  facet normal -0 0 1
    outer loop
      vertex 1.46897 -0.608466 0.294999
      vertex 1.66298 -0.688829 0.294999
      vertex 1.52153 -0.461553 0.294999
    endloop
  endfacet
  facet normal 0 0 1
    outer loop
      vertex 1.40225 -0.74952 0.294999
      vertex 1.66298 -0.688829 0.294999
      vertex 1.46897 -0.608466 0.294999
    endloop
  endfacet
  facet normal 0 0 1
    outer loop
      vertex 1.32204 -0.883356 0.294999
      vertex 1.66298 -0.688829 0.294999
      vertex 1.40225 -0.74952 0.294999
    endloop
  endfacet
  facet normal -0 0 1
    outer loop
      vertex 1.32204 -0.883356 0.294999
      vertex 1.27279 -1.27279 0.294999
      vertex 1.66298 -0.688829 0.294999
    endloop
  endfacet
  facet normal -0 0 1
    outer loop
      vertex 1.22909 -1.00869 0.294999
      vertex 1.27279 -1.27279 0.294999
      vertex 1.32204 -0.883356 0.294999
    endloop
  endfacet
  facet normal -0 0 1
    outer loop
      vertex 1.1243 -1.1243 0.294999
      vertex 1.27279 -1.27279 0.294999
      vertex 1.22909 -1.00869 0.294999
    endloop
  endfacet
  facet normal -0 0 1
    outer loop
      vertex 1.00869 -1.22909 0.294999
      vertex 1.27279 -1.27279 0.294999
      vertex 1.1243 -1.1243 0.294999
    endloop
  endfacet
  facet normal 0 0 1
    outer loop
      vertex 0.883356 -1.32204 0.294999
      vertex 1.27279 -1.27279 0.294999
      vertex 1.00869 -1.22909 0.294999
    endloop
  endfacet
  facet normal 0 0 1
    outer loop
      vertex 0.688829 -1.66298 0.294999
      vertex 0.883356 -1.32204 0.294999
      vertex 0.74952 -1.40225 0.294999
    endloop
  endfacet
  facet normal -0 0 1
    outer loop
      vertex 0.883356 -1.32204 0.294999
      vertex 0.688829 -1.66298 0.294999
      vertex 1.27279 -1.27279 0.294999
    endloop
  endfacet
  facet normal -0 0 1
    outer loop
      vertex 0.608466 -1.46897 0.294999
      vertex 0.688829 -1.66298 0.294999
      vertex 0.74952 -1.40225 0.294999
    endloop
  endfacet
  facet normal -0 0 1
    outer loop
      vertex 0.461553 -1.52153 0.294999
      vertex 0.688829 -1.66298 0.294999
      vertex 0.608466 -1.46897 0.294999
    endloop
  endfacet
  facet normal -0 0 1
    outer loop
      vertex 0.310193 -1.55945 0.294999
      vertex 0.688829 -1.66298 0.294999
      vertex 0.461553 -1.52153 0.294999
    endloop
  endfacet
  facet normal 0 0 1
    outer loop
      vertex 0 -1.8 0.294999
      vertex 0.310193 -1.55945 0.294999
      vertex 0.155847 -1.58234 0.294999
    endloop
  endfacet
  facet normal 0 0 1
    outer loop
      vertex 0 -1.8 0.294999
      vertex 0.155847 -1.58234 0.294999
      vertex 0 -1.59 0.294999
    endloop
  endfacet
  facet normal 0 0 1
    outer loop
      vertex 0.310193 -1.55945 0.294999
      vertex 0 -1.8 0.294999
      vertex 0.688829 -1.66298 0.294999
    endloop
  endfacet
  facet normal 0 0 1
    outer loop
      vertex -0.155847 -1.58234 0.294999
      vertex 0 -1.8 0.294999
      vertex 0 -1.59 0.294999
    endloop
  endfacet
  facet normal 0 0 1
    outer loop
      vertex -0.310193 -1.55945 0.294999
      vertex 0 -1.8 0.294999
      vertex -0.155847 -1.58234 0.294999
    endloop
  endfacet
  facet normal 0 0 1
    outer loop
      vertex -0.688829 -1.66298 0.294999
      vertex -0.310193 -1.55945 0.294999
      vertex -0.461553 -1.52153 0.294999
    endloop
  endfacet
  facet normal 0 0 1
    outer loop
      vertex -0.688829 -1.66298 0.294999
      vertex -0.461553 -1.52153 0.294999
      vertex -0.608466 -1.46897 0.294999
    endloop
  endfacet
  facet normal 0 0 1
    outer loop
      vertex -0.310193 -1.55945 0.294999
      vertex -0.688829 -1.66298 0.294999
      vertex 0 -1.8 0.294999
    endloop
  endfacet
  facet normal 0 0 1
    outer loop
      vertex -0.74952 -1.40225 0.294999
      vertex -0.688829 -1.66298 0.294999
      vertex -0.608466 -1.46897 0.294999
    endloop
  endfacet
  facet normal 0 0 1
    outer loop
      vertex -0.883356 -1.32204 0.294999
      vertex -0.688829 -1.66298 0.294999
      vertex -0.74952 -1.40225 0.294999
    endloop
  endfacet
  facet normal -0 0 1
    outer loop
      vertex -1.27279 -1.27279 0.294999
      vertex -0.883356 -1.32204 0.294999
      vertex -1.00869 -1.22909 0.294999
    endloop
  endfacet
  facet normal 0 0 1
    outer loop
      vertex -1.27279 -1.27279 0.294999
      vertex -1.00869 -1.22909 0.294999
      vertex -1.1243 -1.1243 0.294999
    endloop
  endfacet
  facet normal 0 0 1
    outer loop
      vertex -1.27279 -1.27279 0.294999
      vertex -1.1243 -1.1243 0.294999
      vertex -1.22909 -1.00869 0.294999
    endloop
  endfacet
  facet normal 0 0 1
    outer loop
      vertex -0.883356 -1.32204 0.294999
      vertex -1.27279 -1.27279 0.294999
      vertex -0.688829 -1.66298 0.294999
    endloop
  endfacet
  facet normal 0 0 1
    outer loop
      vertex -1.32204 -0.883356 0.294999
      vertex -1.27279 -1.27279 0.294999
      vertex -1.22909 -1.00869 0.294999
    endloop
  endfacet
  facet normal 0 0 1
    outer loop
      vertex -1.66298 -0.688829 0.294999
      vertex -1.32204 -0.883356 0.294999
      vertex -1.40225 -0.74952 0.294999
    endloop
  endfacet
  facet normal -0 0 1
    outer loop
      vertex -1.66298 -0.688829 0.294999
      vertex -1.40225 -0.74952 0.294999
      vertex -1.46897 -0.608466 0.294999
    endloop
  endfacet
  facet normal 0 0 1
    outer loop
      vertex -1.66298 -0.688829 0.294999
      vertex -1.46897 -0.608466 0.294999
      vertex -1.52153 -0.461553 0.294999
    endloop
  endfacet
  facet normal 0 0 1
    outer loop
      vertex -1.58234 0.155847 0.294999
      vertex -1.8 0 0.294999
      vertex -1.59 0 0.294999
    endloop
  endfacet
  facet normal 0 0 1
    outer loop
      vertex -1.32204 -0.883356 0.294999
      vertex -1.66298 -0.688829 0.294999
      vertex -1.27279 -1.27279 0.294999
    endloop
  endfacet
  facet normal 0 0 1
    outer loop
      vertex -1.55945 -0.310193 0.294999
      vertex -1.66298 -0.688829 0.294999
      vertex -1.52153 -0.461553 0.294999
    endloop
  endfacet
  facet normal 0 0 1
    outer loop
      vertex -1.8 0 0.294999
      vertex -1.55945 -0.310193 0.294999
      vertex -1.58234 -0.155847 0.294999
    endloop
  endfacet
  facet normal 0 0 1
    outer loop
      vertex -1.59 0 0.294999
      vertex -1.8 0 0.294999
      vertex -1.58234 -0.155847 0.294999
    endloop
  endfacet
  facet normal 0 0 1
    outer loop
      vertex -1.55945 -0.310193 0.294999
      vertex -1.8 0 0.294999
      vertex -1.66298 -0.688829 0.294999
    endloop
  endfacet
  facet normal -0.83147 0.55557 0
    outer loop
      vertex -1.66298 0.688829 -0.294999
      vertex -1.27279 1.27279 0.294999
      vertex -1.27279 1.27279 -0.294999
    endloop
  endfacet
  facet normal -0.83147 0.55557 0
    outer loop
      vertex -1.27279 1.27279 0.294999
      vertex -1.66298 0.688829 -0.294999
      vertex -1.66298 0.688829 0.294999
    endloop
  endfacet
  facet normal 0.195095 0.980784 -0
    outer loop
      vertex 0.688829 1.66298 -0.294999
      vertex 0 1.8 0.294999
      vertex 0.688829 1.66298 0.294999
    endloop
  endfacet
  facet normal 0.195095 0.980784 0
    outer loop
      vertex 0 1.8 0.294999
      vertex 0.688829 1.66298 -0.294999
      vertex 0 1.8 -0.294999
    endloop
  endfacet
  facet normal -0.83147 -0.55557 0
    outer loop
      vertex -1.27279 -1.27279 -0.294999
      vertex -1.66298 -0.688829 0.294999
      vertex -1.66298 -0.688829 -0.294999
    endloop
  endfacet
  facet normal -0.83147 -0.55557 0
    outer loop
      vertex -1.66298 -0.688829 0.294999
      vertex -1.27279 -1.27279 -0.294999
      vertex -1.27279 -1.27279 0.294999
    endloop
  endfacet
  facet normal -0.980784 -0.195095 0
    outer loop
      vertex -1.66298 -0.688829 -0.294999
      vertex -1.8 0 0.294999
      vertex -1.8 0 -0.294999
    endloop
  endfacet
  facet normal -0.980784 -0.195095 0
    outer loop
      vertex -1.8 0 0.294999
      vertex -1.66298 -0.688829 -0.294999
      vertex -1.66298 -0.688829 0.294999
    endloop
  endfacet
  facet normal 0 0 -1
    outer loop
      vertex 1.27502 -0.253617 -0.294999
      vertex 1.8 0 -0.294999
      vertex 1.66298 -0.688829 -0.294999
    endloop
  endfacet
  facet normal 0 0 -1
    outer loop
      vertex 1.27502 0.253617 -0.294999
      vertex 1.8 0 -0.294999
      vertex 1.3 0 -0.294999
    endloop
  endfacet
  facet normal -0 0 -1
    outer loop
      vertex 1.8 0 -0.294999
      vertex 1.27502 -0.253617 -0.294999
      vertex 1.3 0 -0.294999
    endloop
  endfacet
  facet normal 0 0 -1
    outer loop
      vertex 1.08091 -0.72224 -0.294999
      vertex 1.66298 -0.688829 -0.294999
      vertex 1.27279 -1.27279 -0.294999
    endloop
  endfacet
  facet normal 0 0 -1
    outer loop
      vertex 1.66298 -0.688829 -0.294999
      vertex 1.20104 -0.497488 -0.294999
      vertex 1.27502 -0.253617 -0.294999
    endloop
  endfacet
  facet normal -0 0 -1
    outer loop
      vertex 1.66298 -0.688829 -0.294999
      vertex 1.08091 -0.72224 -0.294999
      vertex 1.20104 -0.497488 -0.294999
    endloop
  endfacet
  facet normal 0 0 -1
    outer loop
      vertex 1.27279 -1.27279 -0.294999
      vertex 0.919238 -0.919238 -0.294999
      vertex 1.08091 -0.72224 -0.294999
    endloop
  endfacet
  facet normal 0 0 -1
    outer loop
      vertex 1.27279 -1.27279 -0.294999
      vertex 0.72224 -1.08091 -0.294999
      vertex 0.919238 -0.919238 -0.294999
    endloop
  endfacet
  facet normal 0 0 -1
    outer loop
      vertex 0.688829 -1.66298 -0.294999
      vertex 0.72224 -1.08091 -0.294999
      vertex 1.27279 -1.27279 -0.294999
    endloop
  endfacet
  facet normal 0 0 -1
    outer loop
      vertex 0.688829 -1.66298 -0.294999
      vertex 0.497488 -1.20104 -0.294999
      vertex 0.72224 -1.08091 -0.294999
    endloop
  endfacet
  facet normal 0 0 -1
    outer loop
      vertex 0.688829 -1.66298 -0.294999
      vertex 0.253617 -1.27502 -0.294999
      vertex 0.497488 -1.20104 -0.294999
    endloop
  endfacet
  facet normal 0 0 -1
    outer loop
      vertex 0 -1.8 -0.294999
      vertex 0.253617 -1.27502 -0.294999
      vertex 0.688829 -1.66298 -0.294999
    endloop
  endfacet
  facet normal 0 0 -1
    outer loop
      vertex 0 -1.8 -0.294999
      vertex 0 -1.3 -0.294999
      vertex 0.253617 -1.27502 -0.294999
    endloop
  endfacet
  facet normal 0 0 -1
    outer loop
      vertex 0 -1.8 -0.294999
      vertex -0.253617 -1.27502 -0.294999
      vertex 0 -1.3 -0.294999
    endloop
  endfacet
  facet normal 0 0 -1
    outer loop
      vertex -0.688829 -1.66298 -0.294999
      vertex -0.253617 -1.27502 -0.294999
      vertex 0 -1.8 -0.294999
    endloop
  endfacet
  facet normal -0 0 -1
    outer loop
      vertex -0.253617 -1.27502 -0.294999
      vertex -0.688829 -1.66298 -0.294999
      vertex -0.497488 -1.20104 -0.294999
    endloop
  endfacet
  facet normal 0 0 -1
    outer loop
      vertex -0.688829 -1.66298 -0.294999
      vertex -0.72224 -1.08091 -0.294999
      vertex -0.497488 -1.20104 -0.294999
    endloop
  endfacet
  facet normal 0 0 -1
    outer loop
      vertex -1.27279 -1.27279 -0.294999
      vertex -0.72224 -1.08091 -0.294999
      vertex -0.688829 -1.66298 -0.294999
    endloop
  endfacet
  facet normal -0 0 -1
    outer loop
      vertex -0.72224 -1.08091 -0.294999
      vertex -1.27279 -1.27279 -0.294999
      vertex -0.919238 -0.919238 -0.294999
    endloop
  endfacet
  facet normal -0 0 -1
    outer loop
      vertex -0.919238 -0.919238 -0.294999
      vertex -1.27279 -1.27279 -0.294999
      vertex -1.08091 -0.72224 -0.294999
    endloop
  endfacet
  facet normal 0 0 -1
    outer loop
      vertex -1.66298 -0.688829 -0.294999
      vertex -1.08091 -0.72224 -0.294999
      vertex -1.27279 -1.27279 -0.294999
    endloop
  endfacet
  facet normal 0 0 -1
    outer loop
      vertex -1.08091 -0.72224 -0.294999
      vertex -1.66298 -0.688829 -0.294999
      vertex -1.20104 -0.497488 -0.294999
    endloop
  endfacet
  facet normal -0 0 -1
    outer loop
      vertex -1.20104 -0.497488 -0.294999
      vertex -1.66298 -0.688829 -0.294999
      vertex -1.27502 -0.253617 -0.294999
    endloop
  endfacet
  facet normal 0 0 -1
    outer loop
      vertex -1.8 0 -0.294999
      vertex -1.27502 -0.253617 -0.294999
      vertex -1.66298 -0.688829 -0.294999
    endloop
  endfacet
  facet normal 0 0 -1
    outer loop
      vertex 1.8 0 -0.294999
      vertex 1.27502 0.253617 -0.294999
      vertex 1.66298 0.688829 -0.294999
    endloop
  endfacet
  facet normal 0 0 -1
    outer loop
      vertex 1.20104 0.497488 -0.294999
      vertex 1.66298 0.688829 -0.294999
      vertex 1.27502 0.253617 -0.294999
    endloop
  endfacet
  facet normal 0 0 -1
    outer loop
      vertex 1.08091 0.72224 -0.294999
      vertex 1.66298 0.688829 -0.294999
      vertex 1.20104 0.497488 -0.294999
    endloop
  endfacet
  facet normal 0 0 -1
    outer loop
      vertex 1.66298 0.688829 -0.294999
      vertex 1.08091 0.72224 -0.294999
      vertex 1.27279 1.27279 -0.294999
    endloop
  endfacet
  facet normal 0 0 -1
    outer loop
      vertex 0.919238 0.919238 -0.294999
      vertex 1.27279 1.27279 -0.294999
      vertex 1.08091 0.72224 -0.294999
    endloop
  endfacet
  facet normal 0 0 -1
    outer loop
      vertex 0.72224 1.08091 -0.294999
      vertex 1.27279 1.27279 -0.294999
      vertex 0.919238 0.919238 -0.294999
    endloop
  endfacet
  facet normal 0 0 -1
    outer loop
      vertex 0.72224 1.08091 -0.294999
      vertex 0.688829 1.66298 -0.294999
      vertex 1.27279 1.27279 -0.294999
    endloop
  endfacet
  facet normal 0 0 -1
    outer loop
      vertex 0.497488 1.20104 -0.294999
      vertex 0.688829 1.66298 -0.294999
      vertex 0.72224 1.08091 -0.294999
    endloop
  endfacet
  facet normal 0 0 -1
    outer loop
      vertex 0.253617 1.27502 -0.294999
      vertex 0.688829 1.66298 -0.294999
      vertex 0.497488 1.20104 -0.294999
    endloop
  endfacet
  facet normal 0 0 -1
    outer loop
      vertex 0 1.8 -0.294999
      vertex 0.253617 1.27502 -0.294999
      vertex 0 1.3 -0.294999
    endloop
  endfacet
  facet normal 0 0 -1
    outer loop
      vertex 0.253617 1.27502 -0.294999
      vertex 0 1.8 -0.294999
      vertex 0.688829 1.66298 -0.294999
    endloop
  endfacet
  facet normal 0 0 -1
    outer loop
      vertex -0.253617 1.27502 -0.294999
      vertex 0 1.8 -0.294999
      vertex 0 1.3 -0.294999
    endloop
  endfacet
  facet normal 0 0 -1
    outer loop
      vertex -0.688829 1.66298 -0.294999
      vertex -0.253617 1.27502 -0.294999
      vertex -0.497488 1.20104 -0.294999
    endloop
  endfacet
  facet normal 0 0 -1
    outer loop
      vertex -0.253617 1.27502 -0.294999
      vertex -0.688829 1.66298 -0.294999
      vertex 0 1.8 -0.294999
    endloop
  endfacet
  facet normal 0 0 -1
    outer loop
      vertex -0.72224 1.08091 -0.294999
      vertex -0.688829 1.66298 -0.294999
      vertex -0.497488 1.20104 -0.294999
    endloop
  endfacet
  facet normal 0 0 -1
    outer loop
      vertex -1.27279 1.27279 -0.294999
      vertex -0.72224 1.08091 -0.294999
      vertex -0.919238 0.919238 -0.294999
    endloop
  endfacet
  facet normal 0 0 -1
    outer loop
      vertex -1.27279 1.27279 -0.294999
      vertex -0.919238 0.919238 -0.294999
      vertex -1.08091 0.72224 -0.294999
    endloop
  endfacet
  facet normal 0 0 -1
    outer loop
      vertex -1.66298 0.688829 -0.294999
      vertex -1.08091 0.72224 -0.294999
      vertex -1.20104 0.497488 -0.294999
    endloop
  endfacet
  facet normal 0 0 -1
    outer loop
      vertex -0.72224 1.08091 -0.294999
      vertex -1.27279 1.27279 -0.294999
      vertex -0.688829 1.66298 -0.294999
    endloop
  endfacet
  facet normal 0 0 -1
    outer loop
      vertex -1.66298 0.688829 -0.294999
      vertex -1.20104 0.497488 -0.294999
      vertex -1.27502 0.253617 -0.294999
    endloop
  endfacet
  facet normal 0 0 -1
    outer loop
      vertex -1.8 0 -0.294999
      vertex -1.27502 0.253617 -0.294999
      vertex -1.3 0 -0.294999
    endloop
  endfacet
  facet normal 0 0 -1
    outer loop
      vertex -1.27502 -0.253617 -0.294999
      vertex -1.8 0 -0.294999
      vertex -1.3 0 -0.294999
    endloop
  endfacet
  facet normal -0 0 -1
    outer loop
      vertex -1.08091 0.72224 -0.294999
      vertex -1.66298 0.688829 -0.294999
      vertex -1.27279 1.27279 -0.294999
    endloop
  endfacet
  facet normal -0 0 -1
    outer loop
      vertex -1.27502 0.253617 -0.294999
      vertex -1.8 0 -0.294999
      vertex -1.66298 0.688829 -0.294999
    endloop
  endfacet
  facet normal -0.55557 -0.83147 0
    outer loop
      vertex -1.27279 -1.27279 -0.294999
      vertex -0.688829 -1.66298 0.294999
      vertex -1.27279 -1.27279 0.294999
    endloop
  endfacet
  facet normal -0.55557 -0.83147 -0
    outer loop
      vertex -0.688829 -1.66298 0.294999
      vertex -1.27279 -1.27279 -0.294999
      vertex -0.688829 -1.66298 -0.294999
    endloop
  endfacet
  facet normal 0.243018 -0.970022 0
    outer loop
      vertex -0.461553 1.52153 -0.195
      vertex -0.310193 1.55945 0.294999
      vertex -0.461553 1.52153 0.294999
    endloop
  endfacet
  facet normal 0.243018 -0.970022 0
    outer loop
      vertex -0.310193 1.55945 0.294999
      vertex -0.461553 1.52153 -0.195
      vertex -0.310193 1.55945 -0.195
    endloop
  endfacet
  facet normal -0.998794 -0.0490915 0
    outer loop
      vertex 1.59 0 -0.195
      vertex 1.58234 0.155847 0.294999
      vertex 1.58234 0.155847 -0.195
    endloop
  endfacet
  facet normal -0.998794 -0.0490915 0
    outer loop
      vertex 1.58234 0.155847 0.294999
      vertex 1.59 0 -0.195
      vertex 1.59 0 0.294999
    endloop
  endfacet
  facet normal 0.671584 -0.740928 0
    outer loop
      vertex -1.1243 1.1243 -0.195
      vertex -1.00869 1.22909 0.294999
      vertex -1.1243 1.1243 0.294999
    endloop
  endfacet
  facet normal 0.671584 -0.740928 0
    outer loop
      vertex -1.00869 1.22909 0.294999
      vertex -1.1243 1.1243 -0.195
      vertex -1.00869 1.22909 -0.195
    endloop
  endfacet
  facet normal 0.336854 -0.941557 0
    outer loop
      vertex -0.608466 1.46897 -0.195
      vertex -0.461553 1.52153 0.294999
      vertex -0.608466 1.46897 0.294999
    endloop
  endfacet
  facet normal 0.336854 -0.941557 0
    outer loop
      vertex -0.461553 1.52153 0.294999
      vertex -0.608466 1.46897 -0.195
      vertex -0.461553 1.52153 -0.195
    endloop
  endfacet
  facet normal -0.857752 -0.514064 0
    outer loop
      vertex 1.40225 0.74952 -0.195
      vertex 1.32204 0.883356 0.294999
      vertex 1.32204 0.883356 -0.195
    endloop
  endfacet
  facet normal -0.857752 -0.514064 0
    outer loop
      vertex 1.32204 0.883356 0.294999
      vertex 1.40225 0.74952 -0.195
      vertex 1.40225 0.74952 0.294999
    endloop
  endfacet
  facet normal -0.989181 0.146699 0
    outer loop
      vertex 1.55945 -0.310193 -0.195
      vertex 1.58234 -0.155847 0.294999
      vertex 1.58234 -0.155847 -0.195
    endloop
  endfacet
  facet normal -0.989181 0.146699 0
    outer loop
      vertex 1.58234 -0.155847 0.294999
      vertex 1.55945 -0.310193 -0.195
      vertex 1.55945 -0.310193 0.294999
    endloop
  endfacet
  facet normal 0.80322 0.595683 0
    outer loop
      vertex -1.22909 -1.00869 0.294999
      vertex -1.32204 -0.883356 -0.195
      vertex -1.32204 -0.883356 0.294999
    endloop
  endfacet
  facet normal 0.80322 0.595683 0
    outer loop
      vertex -1.32204 -0.883356 -0.195
      vertex -1.22909 -1.00869 0.294999
      vertex -1.22909 -1.00869 -0.195
    endloop
  endfacet
  facet normal -0.80322 -0.595683 0
    outer loop
      vertex 1.32204 0.883356 -0.195
      vertex 1.22909 1.00869 0.294999
      vertex 1.22909 1.00869 -0.195
    endloop
  endfacet
  facet normal -0.80322 -0.595683 0
    outer loop
      vertex 1.22909 1.00869 0.294999
      vertex 1.32204 0.883356 -0.195
      vertex 1.32204 0.883356 0.294999
    endloop
  endfacet
  facet normal -0.903973 -0.427589 0
    outer loop
      vertex 1.46897 0.608466 -0.195
      vertex 1.40225 0.74952 0.294999
      vertex 1.40225 0.74952 -0.195
    endloop
  endfacet
  facet normal -0.903973 -0.427589 0
    outer loop
      vertex 1.40225 0.74952 0.294999
      vertex 1.46897 0.608466 -0.195
      vertex 1.46897 0.608466 0.294999
    endloop
  endfacet
  facet normal -0.740928 0.671584 0
    outer loop
      vertex 1.1243 -1.1243 -0.195
      vertex 1.22909 -1.00869 0.294999
      vertex 1.22909 -1.00869 -0.195
    endloop
  endfacet
  facet normal -0.740928 0.671584 0
    outer loop
      vertex 1.22909 -1.00869 0.294999
      vertex 1.1243 -1.1243 -0.195
      vertex 1.1243 -1.1243 0.294999
    endloop
  endfacet
  facet normal 0.427589 -0.903973 0
    outer loop
      vertex -0.74952 1.40225 -0.195
      vertex -0.608466 1.46897 0.294999
      vertex -0.74952 1.40225 0.294999
    endloop
  endfacet
  facet normal 0.427589 -0.903973 0
    outer loop
      vertex -0.608466 1.46897 0.294999
      vertex -0.74952 1.40225 -0.195
      vertex -0.608466 1.46897 -0.195
    endloop
  endfacet
  facet normal 0.740928 0.671584 0
    outer loop
      vertex -1.1243 -1.1243 0.294999
      vertex -1.22909 -1.00869 -0.195
      vertex -1.22909 -1.00869 0.294999
    endloop
  endfacet
  facet normal 0.740928 0.671584 0
    outer loop
      vertex -1.22909 -1.00869 -0.195
      vertex -1.1243 -1.1243 0.294999
      vertex -1.1243 -1.1243 -0.195
    endloop
  endfacet
  facet normal -0.989181 -0.146699 0
    outer loop
      vertex 1.58234 0.155847 -0.195
      vertex 1.55945 0.310193 0.294999
      vertex 1.55945 0.310193 -0.195
    endloop
  endfacet
  facet normal -0.989181 -0.146699 0
    outer loop
      vertex 1.55945 0.310193 0.294999
      vertex 1.58234 0.155847 -0.195
      vertex 1.58234 0.155847 0.294999
    endloop
  endfacet
  facet normal -0.427589 -0.903973 0
    outer loop
      vertex 0.608466 1.46897 -0.195
      vertex 0.74952 1.40225 0.294999
      vertex 0.608466 1.46897 0.294999
    endloop
  endfacet
  facet normal -0.427589 -0.903973 -0
    outer loop
      vertex 0.74952 1.40225 0.294999
      vertex 0.608466 1.46897 -0.195
      vertex 0.74952 1.40225 -0.195
    endloop
  endfacet
  facet normal 0.243018 0.970022 -0
    outer loop
      vertex -0.310193 -1.55945 -0.195
      vertex -0.461553 -1.52153 0.294999
      vertex -0.310193 -1.55945 0.294999
    endloop
  endfacet
  facet normal 0.243018 0.970022 0
    outer loop
      vertex -0.461553 -1.52153 0.294999
      vertex -0.310193 -1.55945 -0.195
      vertex -0.461553 -1.52153 -0.195
    endloop
  endfacet
  facet normal -0.970022 -0.243018 0
    outer loop
      vertex 1.55945 0.310193 -0.195
      vertex 1.52153 0.461553 0.294999
      vertex 1.52153 0.461553 -0.195
    endloop
  endfacet
  facet normal -0.970022 -0.243018 0
    outer loop
      vertex 1.52153 0.461553 0.294999
      vertex 1.55945 0.310193 -0.195
      vertex 1.55945 0.310193 0.294999
    endloop
  endfacet
  facet normal -0.595683 -0.80322 0
    outer loop
      vertex 0.883356 1.32204 -0.195
      vertex 1.00869 1.22909 0.294999
      vertex 0.883356 1.32204 0.294999
    endloop
  endfacet
  facet normal -0.595683 -0.80322 -0
    outer loop
      vertex 1.00869 1.22909 0.294999
      vertex 0.883356 1.32204 -0.195
      vertex 1.00869 1.22909 -0.195
    endloop
  endfacet
  facet normal 0.941557 0.336854 0
    outer loop
      vertex -1.46897 -0.608466 0.294999
      vertex -1.52153 -0.461553 -0.195
      vertex -1.52153 -0.461553 0.294999
    endloop
  endfacet
  facet normal 0.941557 0.336854 0
    outer loop
      vertex -1.52153 -0.461553 -0.195
      vertex -1.46897 -0.608466 0.294999
      vertex -1.46897 -0.608466 -0.195
    endloop
  endfacet
  facet normal 0.146699 -0.989181 0
    outer loop
      vertex -0.310193 1.55945 -0.195
      vertex -0.155847 1.58234 0.294999
      vertex -0.310193 1.55945 0.294999
    endloop
  endfacet
  facet normal 0.146699 -0.989181 0
    outer loop
      vertex -0.155847 1.58234 0.294999
      vertex -0.310193 1.55945 -0.195
      vertex -0.155847 1.58234 -0.195
    endloop
  endfacet
  facet normal -0.514064 -0.857752 0
    outer loop
      vertex 0.74952 1.40225 -0.195
      vertex 0.883356 1.32204 0.294999
      vertex 0.74952 1.40225 0.294999
    endloop
  endfacet
  facet normal -0.514064 -0.857752 -0
    outer loop
      vertex 0.883356 1.32204 0.294999
      vertex 0.74952 1.40225 -0.195
      vertex 0.883356 1.32204 -0.195
    endloop
  endfacet
  facet normal 0.427589 0.903973 -0
    outer loop
      vertex -0.608466 -1.46897 -0.195
      vertex -0.74952 -1.40225 0.294999
      vertex -0.608466 -1.46897 0.294999
    endloop
  endfacet
  facet normal 0.427589 0.903973 0
    outer loop
      vertex -0.74952 -1.40225 0.294999
      vertex -0.608466 -1.46897 -0.195
      vertex -0.74952 -1.40225 -0.195
    endloop
  endfacet
  facet normal 0.80322 -0.595683 0
    outer loop
      vertex -1.32204 0.883356 0.294999
      vertex -1.22909 1.00869 -0.195
      vertex -1.22909 1.00869 0.294999
    endloop
  endfacet
  facet normal 0.80322 -0.595683 0
    outer loop
      vertex -1.22909 1.00869 -0.195
      vertex -1.32204 0.883356 0.294999
      vertex -1.32204 0.883356 -0.195
    endloop
  endfacet
  facet normal 0.595683 -0.80322 0
    outer loop
      vertex -1.00869 1.22909 -0.195
      vertex -0.883356 1.32204 0.294999
      vertex -1.00869 1.22909 0.294999
    endloop
  endfacet
  facet normal 0.595683 -0.80322 0
    outer loop
      vertex -0.883356 1.32204 0.294999
      vertex -1.00869 1.22909 -0.195
      vertex -0.883356 1.32204 -0.195
    endloop
  endfacet
  facet normal -0.80322 0.595683 0
    outer loop
      vertex 1.22909 -1.00869 -0.195
      vertex 1.32204 -0.883356 0.294999
      vertex 1.32204 -0.883356 -0.195
    endloop
  endfacet
  facet normal -0.80322 0.595683 0
    outer loop
      vertex 1.32204 -0.883356 0.294999
      vertex 1.22909 -1.00869 -0.195
      vertex 1.22909 -1.00869 0.294999
    endloop
  endfacet
  facet normal -0.0490915 0.998794 0
    outer loop
      vertex 0.155847 -1.58234 -0.195
      vertex 0 -1.59 0.294999
      vertex 0.155847 -1.58234 0.294999
    endloop
  endfacet
  facet normal -0.0490915 0.998794 0
    outer loop
      vertex 0 -1.59 0.294999
      vertex 0.155847 -1.58234 -0.195
      vertex 0 -1.59 -0.195
    endloop
  endfacet
  facet normal 0.146699 0.989181 -0
    outer loop
      vertex -0.155847 -1.58234 -0.195
      vertex -0.310193 -1.55945 0.294999
      vertex -0.155847 -1.58234 0.294999
    endloop
  endfacet
  facet normal 0.146699 0.989181 0
    outer loop
      vertex -0.310193 -1.55945 0.294999
      vertex -0.155847 -1.58234 -0.195
      vertex -0.310193 -1.55945 -0.195
    endloop
  endfacet
  facet normal -0.903973 0.427589 0
    outer loop
      vertex 1.40225 -0.74952 -0.195
      vertex 1.46897 -0.608466 0.294999
      vertex 1.46897 -0.608466 -0.195
    endloop
  endfacet
  facet normal -0.903973 0.427589 0
    outer loop
      vertex 1.46897 -0.608466 0.294999
      vertex 1.40225 -0.74952 -0.195
      vertex 1.40225 -0.74952 0.294999
    endloop
  endfacet
  facet normal -0.998794 0.0490915 0
    outer loop
      vertex 1.58234 -0.155847 -0.195
      vertex 1.59 0 0.294999
      vertex 1.59 0 -0.195
    endloop
  endfacet
  facet normal -0.998794 0.0490915 0
    outer loop
      vertex 1.59 0 0.294999
      vertex 1.58234 -0.155847 -0.195
      vertex 1.58234 -0.155847 0.294999
    endloop
  endfacet
  facet normal -0.0490915 -0.998794 0
    outer loop
      vertex 0 1.59 -0.195
      vertex 0.155847 1.58234 0.294999
      vertex 0 1.59 0.294999
    endloop
  endfacet
  facet normal -0.0490915 -0.998794 -0
    outer loop
      vertex 0.155847 1.58234 0.294999
      vertex 0 1.59 -0.195
      vertex 0.155847 1.58234 -0.195
    endloop
  endfacet
  facet normal 0.989181 0.146699 0
    outer loop
      vertex -1.55945 -0.310193 0.294999
      vertex -1.58234 -0.155847 -0.195
      vertex -1.58234 -0.155847 0.294999
    endloop
  endfacet
  facet normal 0.989181 0.146699 0
    outer loop
      vertex -1.58234 -0.155847 -0.195
      vertex -1.55945 -0.310193 0.294999
      vertex -1.55945 -0.310193 -0.195
    endloop
  endfacet
  facet normal -0.857752 0.514064 0
    outer loop
      vertex 1.32204 -0.883356 -0.195
      vertex 1.40225 -0.74952 0.294999
      vertex 1.40225 -0.74952 -0.195
    endloop
  endfacet
  facet normal -0.857752 0.514064 0
    outer loop
      vertex 1.40225 -0.74952 0.294999
      vertex 1.32204 -0.883356 -0.195
      vertex 1.32204 -0.883356 0.294999
    endloop
  endfacet
  facet normal -0.336854 -0.941557 0
    outer loop
      vertex 0.461553 1.52153 -0.195
      vertex 0.608466 1.46897 0.294999
      vertex 0.461553 1.52153 0.294999
    endloop
  endfacet
  facet normal -0.336854 -0.941557 -0
    outer loop
      vertex 0.608466 1.46897 0.294999
      vertex 0.461553 1.52153 -0.195
      vertex 0.608466 1.46897 -0.195
    endloop
  endfacet
  facet normal 0.970022 0.243018 0
    outer loop
      vertex -1.52153 -0.461553 0.294999
      vertex -1.55945 -0.310193 -0.195
      vertex -1.55945 -0.310193 0.294999
    endloop
  endfacet
  facet normal 0.970022 0.243018 0
    outer loop
      vertex -1.55945 -0.310193 -0.195
      vertex -1.52153 -0.461553 0.294999
      vertex -1.52153 -0.461553 -0.195
    endloop
  endfacet
  facet normal 0.514064 -0.857752 0
    outer loop
      vertex -0.883356 1.32204 -0.195
      vertex -0.74952 1.40225 0.294999
      vertex -0.883356 1.32204 0.294999
    endloop
  endfacet
  facet normal 0.514064 -0.857752 0
    outer loop
      vertex -0.74952 1.40225 0.294999
      vertex -0.883356 1.32204 -0.195
      vertex -0.74952 1.40225 -0.195
    endloop
  endfacet
  facet normal -0.941557 -0.336854 0
    outer loop
      vertex 1.52153 0.461553 -0.195
      vertex 1.46897 0.608466 0.294999
      vertex 1.46897 0.608466 -0.195
    endloop
  endfacet
  facet normal -0.941557 -0.336854 0
    outer loop
      vertex 1.46897 0.608466 0.294999
      vertex 1.52153 0.461553 -0.195
      vertex 1.52153 0.461553 0.294999
    endloop
  endfacet
  facet normal -0.427589 0.903973 0
    outer loop
      vertex 0.74952 -1.40225 -0.195
      vertex 0.608466 -1.46897 0.294999
      vertex 0.74952 -1.40225 0.294999
    endloop
  endfacet
  facet normal -0.427589 0.903973 0
    outer loop
      vertex 0.608466 -1.46897 0.294999
      vertex 0.74952 -1.40225 -0.195
      vertex 0.608466 -1.46897 -0.195
    endloop
  endfacet
  facet normal -0.146699 0.989181 0
    outer loop
      vertex 0.310193 -1.55945 -0.195
      vertex 0.155847 -1.58234 0.294999
      vertex 0.310193 -1.55945 0.294999
    endloop
  endfacet
  facet normal -0.146699 0.989181 0
    outer loop
      vertex 0.155847 -1.58234 0.294999
      vertex 0.310193 -1.55945 -0.195
      vertex 0.155847 -1.58234 -0.195
    endloop
  endfacet
  facet normal -0.243018 0.970022 0
    outer loop
      vertex 0.461553 -1.52153 -0.195
      vertex 0.310193 -1.55945 0.294999
      vertex 0.461553 -1.52153 0.294999
    endloop
  endfacet
  facet normal -0.243018 0.970022 0
    outer loop
      vertex 0.310193 -1.55945 0.294999
      vertex 0.461553 -1.52153 -0.195
      vertex 0.310193 -1.55945 -0.195
    endloop
  endfacet
  facet normal 0.970022 -0.243018 0
    outer loop
      vertex -1.55945 0.310193 0.294999
      vertex -1.52153 0.461553 -0.195
      vertex -1.52153 0.461553 0.294999
    endloop
  endfacet
  facet normal 0.970022 -0.243018 0
    outer loop
      vertex -1.52153 0.461553 -0.195
      vertex -1.55945 0.310193 0.294999
      vertex -1.55945 0.310193 -0.195
    endloop
  endfacet
  facet normal 0.903973 -0.427589 0
    outer loop
      vertex -1.46897 0.608466 0.294999
      vertex -1.40225 0.74952 -0.195
      vertex -1.40225 0.74952 0.294999
    endloop
  endfacet
  facet normal 0.903973 -0.427589 0
    outer loop
      vertex -1.40225 0.74952 -0.195
      vertex -1.46897 0.608466 0.294999
      vertex -1.46897 0.608466 -0.195
    endloop
  endfacet
  facet normal 0.595683 0.80322 -0
    outer loop
      vertex -0.883356 -1.32204 -0.195
      vertex -1.00869 -1.22909 0.294999
      vertex -0.883356 -1.32204 0.294999
    endloop
  endfacet
  facet normal 0.595683 0.80322 0
    outer loop
      vertex -1.00869 -1.22909 0.294999
      vertex -0.883356 -1.32204 -0.195
      vertex -1.00869 -1.22909 -0.195
    endloop
  endfacet
  facet normal -0.146699 -0.989181 0
    outer loop
      vertex 0.155847 1.58234 -0.195
      vertex 0.310193 1.55945 0.294999
      vertex 0.155847 1.58234 0.294999
    endloop
  endfacet
  facet normal -0.146699 -0.989181 -0
    outer loop
      vertex 0.310193 1.55945 0.294999
      vertex 0.155847 1.58234 -0.195
      vertex 0.310193 1.55945 -0.195
    endloop
  endfacet
  facet normal 0 0 1
    outer loop
      vertex 1.3 0 -0.195
      vertex 1.59 0 -0.195
      vertex 1.58234 0.155847 -0.195
    endloop
  endfacet
  facet normal -0 0 1
    outer loop
      vertex 1.27502 0.253617 -0.195
      vertex 1.58234 0.155847 -0.195
      vertex 1.55945 0.310193 -0.195
    endloop
  endfacet
  facet normal 0 0 1
    outer loop
      vertex 1.59 0 -0.195
      vertex 1.3 0 -0.195
      vertex 1.58234 -0.155847 -0.195
    endloop
  endfacet
  facet normal 0 0 1
    outer loop
      vertex 1.27502 0.253617 -0.195
      vertex 1.55945 0.310193 -0.195
      vertex 1.52153 0.461553 -0.195
    endloop
  endfacet
  facet normal 0 0 1
    outer loop
      vertex 1.27502 -0.253617 -0.195
      vertex 1.58234 -0.155847 -0.195
      vertex 1.3 0 -0.195
    endloop
  endfacet
  facet normal -0 0 1
    outer loop
      vertex 1.20104 0.497488 -0.195
      vertex 1.52153 0.461553 -0.195
      vertex 1.46897 0.608466 -0.195
    endloop
  endfacet
  facet normal 0 0 1
    outer loop
      vertex 1.58234 -0.155847 -0.195
      vertex 1.27502 -0.253617 -0.195
      vertex 1.55945 -0.310193 -0.195
    endloop
  endfacet
  facet normal 0 0 1
    outer loop
      vertex 1.20104 0.497488 -0.195
      vertex 1.46897 0.608466 -0.195
      vertex 1.40225 0.74952 -0.195
    endloop
  endfacet
  facet normal 0 0 1
    outer loop
      vertex 1.55945 -0.310193 -0.195
      vertex 1.27502 -0.253617 -0.195
      vertex 1.52153 -0.461553 -0.195
    endloop
  endfacet
  facet normal 0 0 1
    outer loop
      vertex 1.08091 0.72224 -0.195
      vertex 1.40225 0.74952 -0.195
      vertex 1.32204 0.883356 -0.195
    endloop
  endfacet
  facet normal 0 0 1
    outer loop
      vertex 1.20104 -0.497488 -0.195
      vertex 1.52153 -0.461553 -0.195
      vertex 1.27502 -0.253617 -0.195
    endloop
  endfacet
  facet normal 0 0 1
    outer loop
      vertex 1.52153 -0.461553 -0.195
      vertex 1.20104 -0.497488 -0.195
      vertex 1.46897 -0.608466 -0.195
    endloop
  endfacet
  facet normal 0 0 1
    outer loop
      vertex 1.58234 0.155847 -0.195
      vertex 1.27502 0.253617 -0.195
      vertex 1.3 0 -0.195
    endloop
  endfacet
  facet normal 0 0 1
    outer loop
      vertex 1.08091 0.72224 -0.195
      vertex 1.32204 0.883356 -0.195
      vertex 1.22909 1.00869 -0.195
    endloop
  endfacet
  facet normal 0 0 1
    outer loop
      vertex 1.52153 0.461553 -0.195
      vertex 1.20104 0.497488 -0.195
      vertex 1.27502 0.253617 -0.195
    endloop
  endfacet
  facet normal 0 0 1
    outer loop
      vertex 0.919238 0.919238 -0.195
      vertex 1.22909 1.00869 -0.195
      vertex 1.1243 1.1243 -0.195
    endloop
  endfacet
  facet normal 0 0 1
    outer loop
      vertex 1.40225 0.74952 -0.195
      vertex 1.08091 0.72224 -0.195
      vertex 1.20104 0.497488 -0.195
    endloop
  endfacet
  facet normal 0 0 1
    outer loop
      vertex 0.919238 0.919238 -0.195
      vertex 1.1243 1.1243 -0.195
      vertex 1.00869 1.22909 -0.195
    endloop
  endfacet
  facet normal 0 0 1
    outer loop
      vertex 1.22909 1.00869 -0.195
      vertex 0.919238 0.919238 -0.195
      vertex 1.08091 0.72224 -0.195
    endloop
  endfacet
  facet normal 0 0 1
    outer loop
      vertex 0.72224 1.08091 -0.195
      vertex 1.00869 1.22909 -0.195
      vertex 0.883356 1.32204 -0.195
    endloop
  endfacet
  facet normal 0 0 1
    outer loop
      vertex 0.72224 1.08091 -0.195
      vertex 0.883356 1.32204 -0.195
      vertex 0.74952 1.40225 -0.195
    endloop
  endfacet
  facet normal 0 0 1
    outer loop
      vertex 1.00869 1.22909 -0.195
      vertex 0.72224 1.08091 -0.195
      vertex 0.919238 0.919238 -0.195
    endloop
  endfacet
  facet normal 0 0 1
    outer loop
      vertex 0.497488 1.20104 -0.195
      vertex 0.74952 1.40225 -0.195
      vertex 0.608466 1.46897 -0.195
    endloop
  endfacet
  facet normal 0 0 1
    outer loop
      vertex 0.74952 1.40225 -0.195
      vertex 0.497488 1.20104 -0.195
      vertex 0.72224 1.08091 -0.195
    endloop
  endfacet
  facet normal 0 0 1
    outer loop
      vertex 0.461553 1.52153 -0.195
      vertex 0.497488 1.20104 -0.195
      vertex 0.608466 1.46897 -0.195
    endloop
  endfacet
  facet normal 0 0 1
    outer loop
      vertex 0.253617 1.27502 -0.195
      vertex 0.461553 1.52153 -0.195
      vertex 0.310193 1.55945 -0.195
    endloop
  endfacet
  facet normal 0 0 1
    outer loop
      vertex 0.461553 1.52153 -0.195
      vertex 0.253617 1.27502 -0.195
      vertex 0.497488 1.20104 -0.195
    endloop
  endfacet
  facet normal 0 0 1
    outer loop
      vertex 0.155847 1.58234 -0.195
      vertex 0.253617 1.27502 -0.195
      vertex 0.310193 1.55945 -0.195
    endloop
  endfacet
  facet normal 0 0 1
    outer loop
      vertex 0 1.3 -0.195
      vertex 0.155847 1.58234 -0.195
      vertex 0 1.59 -0.195
    endloop
  endfacet
  facet normal 0 0 1
    outer loop
      vertex 0.155847 1.58234 -0.195
      vertex 0 1.3 -0.195
      vertex 0.253617 1.27502 -0.195
    endloop
  endfacet
  facet normal -0 0 1
    outer loop
      vertex -0.155847 1.58234 -0.195
      vertex 0 1.3 -0.195
      vertex 0 1.59 -0.195
    endloop
  endfacet
  facet normal 0 0 1
    outer loop
      vertex -0.155847 1.58234 -0.195
      vertex -0.253617 1.27502 -0.195
      vertex 0 1.3 -0.195
    endloop
  endfacet
  facet normal -0 0 1
    outer loop
      vertex -0.310193 1.55945 -0.195
      vertex -0.253617 1.27502 -0.195
      vertex -0.155847 1.58234 -0.195
    endloop
  endfacet
  facet normal -0 0 1
    outer loop
      vertex -0.461553 1.52153 -0.195
      vertex -0.253617 1.27502 -0.195
      vertex -0.310193 1.55945 -0.195
    endloop
  endfacet
  facet normal 0 0 1
    outer loop
      vertex -0.461553 1.52153 -0.195
      vertex -0.497488 1.20104 -0.195
      vertex -0.253617 1.27502 -0.195
    endloop
  endfacet
  facet normal -0 0 1
    outer loop
      vertex -0.608466 1.46897 -0.195
      vertex -0.497488 1.20104 -0.195
      vertex -0.461553 1.52153 -0.195
    endloop
  endfacet
  facet normal -0 0 1
    outer loop
      vertex -0.74952 1.40225 -0.195
      vertex -0.497488 1.20104 -0.195
      vertex -0.608466 1.46897 -0.195
    endloop
  endfacet
  facet normal 0 0 1
    outer loop
      vertex -0.497488 1.20104 -0.195
      vertex -0.74952 1.40225 -0.195
      vertex -0.72224 1.08091 -0.195
    endloop
  endfacet
  facet normal -0 0 1
    outer loop
      vertex -0.883356 1.32204 -0.195
      vertex -0.72224 1.08091 -0.195
      vertex -0.74952 1.40225 -0.195
    endloop
  endfacet
  facet normal -0 0 1
    outer loop
      vertex -1.00869 1.22909 -0.195
      vertex -0.72224 1.08091 -0.195
      vertex -0.883356 1.32204 -0.195
    endloop
  endfacet
  facet normal 0 0 1
    outer loop
      vertex -0.72224 1.08091 -0.195
      vertex -1.00869 1.22909 -0.195
      vertex -0.919238 0.919238 -0.195
    endloop
  endfacet
  facet normal -0 0 1
    outer loop
      vertex -1.1243 1.1243 -0.195
      vertex -0.919238 0.919238 -0.195
      vertex -1.00869 1.22909 -0.195
    endloop
  endfacet
  facet normal -0 0 1
    outer loop
      vertex -1.22909 1.00869 -0.195
      vertex -0.919238 0.919238 -0.195
      vertex -1.1243 1.1243 -0.195
    endloop
  endfacet
  facet normal 0 0 1
    outer loop
      vertex -0.919238 0.919238 -0.195
      vertex -1.22909 1.00869 -0.195
      vertex -1.08091 0.72224 -0.195
    endloop
  endfacet
  facet normal -0 0 1
    outer loop
      vertex -1.32204 0.883356 -0.195
      vertex -1.08091 0.72224 -0.195
      vertex -1.22909 1.00869 -0.195
    endloop
  endfacet
  facet normal -0 0 1
    outer loop
      vertex -1.40225 0.74952 -0.195
      vertex -1.08091 0.72224 -0.195
      vertex -1.32204 0.883356 -0.195
    endloop
  endfacet
  facet normal 0 0 1
    outer loop
      vertex -1.08091 0.72224 -0.195
      vertex -1.40225 0.74952 -0.195
      vertex -1.20104 0.497488 -0.195
    endloop
  endfacet
  facet normal -0 0 1
    outer loop
      vertex -1.46897 0.608466 -0.195
      vertex -1.20104 0.497488 -0.195
      vertex -1.40225 0.74952 -0.195
    endloop
  endfacet
  facet normal 0 0 1
    outer loop
      vertex 1.46897 -0.608466 -0.195
      vertex 1.20104 -0.497488 -0.195
      vertex 1.40225 -0.74952 -0.195
    endloop
  endfacet
  facet normal -0 0 1
    outer loop
      vertex 1.08091 -0.72224 -0.195
      vertex 1.40225 -0.74952 -0.195
      vertex 1.20104 -0.497488 -0.195
    endloop
  endfacet
  facet normal 0 0 1
    outer loop
      vertex 1.40225 -0.74952 -0.195
      vertex 1.08091 -0.72224 -0.195
      vertex 1.32204 -0.883356 -0.195
    endloop
  endfacet
  facet normal 0 0 1
    outer loop
      vertex 1.32204 -0.883356 -0.195
      vertex 1.08091 -0.72224 -0.195
      vertex 1.22909 -1.00869 -0.195
    endloop
  endfacet
  facet normal -0 0 1
    outer loop
      vertex 0.919238 -0.919238 -0.195
      vertex 1.22909 -1.00869 -0.195
      vertex 1.08091 -0.72224 -0.195
    endloop
  endfacet
  facet normal 0 0 1
    outer loop
      vertex 1.22909 -1.00869 -0.195
      vertex 0.919238 -0.919238 -0.195
      vertex 1.1243 -1.1243 -0.195
    endloop
  endfacet
  facet normal 0 0 1
    outer loop
      vertex 1.1243 -1.1243 -0.195
      vertex 0.919238 -0.919238 -0.195
      vertex 1.00869 -1.22909 -0.195
    endloop
  endfacet
  facet normal -0 0 1
    outer loop
      vertex 0.72224 -1.08091 -0.195
      vertex 1.00869 -1.22909 -0.195
      vertex 0.919238 -0.919238 -0.195
    endloop
  endfacet
  facet normal 0 0 1
    outer loop
      vertex 1.00869 -1.22909 -0.195
      vertex 0.72224 -1.08091 -0.195
      vertex 0.883356 -1.32204 -0.195
    endloop
  endfacet
  facet normal 0 0 1
    outer loop
      vertex 0.883356 -1.32204 -0.195
      vertex 0.72224 -1.08091 -0.195
      vertex 0.74952 -1.40225 -0.195
    endloop
  endfacet
  facet normal -0 0 1
    outer loop
      vertex 0.497488 -1.20104 -0.195
      vertex 0.74952 -1.40225 -0.195
      vertex 0.72224 -1.08091 -0.195
    endloop
  endfacet
  facet normal 0 0 1
    outer loop
      vertex 0.74952 -1.40225 -0.195
      vertex 0.497488 -1.20104 -0.195
      vertex 0.608466 -1.46897 -0.195
    endloop
  endfacet
  facet normal 0 0 1
    outer loop
      vertex 0.497488 -1.20104 -0.195
      vertex 0.461553 -1.52153 -0.195
      vertex 0.608466 -1.46897 -0.195
    endloop
  endfacet
  facet normal -0 0 1
    outer loop
      vertex 0.253617 -1.27502 -0.195
      vertex 0.461553 -1.52153 -0.195
      vertex 0.497488 -1.20104 -0.195
    endloop
  endfacet
  facet normal 0 0 1
    outer loop
      vertex 0.461553 -1.52153 -0.195
      vertex 0.253617 -1.27502 -0.195
      vertex 0.310193 -1.55945 -0.195
    endloop
  endfacet
  facet normal 0 0 1
    outer loop
      vertex 0.253617 -1.27502 -0.195
      vertex 0.155847 -1.58234 -0.195
      vertex 0.310193 -1.55945 -0.195
    endloop
  endfacet
  facet normal -0 0 1
    outer loop
      vertex 0 -1.3 -0.195
      vertex 0.155847 -1.58234 -0.195
      vertex 0.253617 -1.27502 -0.195
    endloop
  endfacet
  facet normal 0 0 1
    outer loop
      vertex 0 -1.3 -0.195
      vertex 0 -1.59 -0.195
      vertex 0.155847 -1.58234 -0.195
    endloop
  endfacet
  facet normal 0 0 1
    outer loop
      vertex 0 -1.3 -0.195
      vertex -0.155847 -1.58234 -0.195
      vertex 0 -1.59 -0.195
    endloop
  endfacet
  facet normal 0 0 1
    outer loop
      vertex -0.253617 -1.27502 -0.195
      vertex -0.155847 -1.58234 -0.195
      vertex 0 -1.3 -0.195
    endloop
  endfacet
  facet normal 0 0 1
    outer loop
      vertex -0.253617 -1.27502 -0.195
      vertex -0.310193 -1.55945 -0.195
      vertex -0.155847 -1.58234 -0.195
    endloop
  endfacet
  facet normal 0 0 1
    outer loop
      vertex -0.253617 -1.27502 -0.195
      vertex -0.461553 -1.52153 -0.195
      vertex -0.310193 -1.55945 -0.195
    endloop
  endfacet
  facet normal 0 0 1
    outer loop
      vertex -0.497488 -1.20104 -0.195
      vertex -0.461553 -1.52153 -0.195
      vertex -0.253617 -1.27502 -0.195
    endloop
  endfacet
  facet normal 0 0 1
    outer loop
      vertex -0.497488 -1.20104 -0.195
      vertex -0.608466 -1.46897 -0.195
      vertex -0.461553 -1.52153 -0.195
    endloop
  endfacet
  facet normal 0 0 1
    outer loop
      vertex -0.74952 -1.40225 -0.195
      vertex -0.497488 -1.20104 -0.195
      vertex -0.72224 -1.08091 -0.195
    endloop
  endfacet
  facet normal 0 0 1
    outer loop
      vertex -0.497488 -1.20104 -0.195
      vertex -0.74952 -1.40225 -0.195
      vertex -0.608466 -1.46897 -0.195
    endloop
  endfacet
  facet normal 0 0 1
    outer loop
      vertex -0.72224 -1.08091 -0.195
      vertex -0.883356 -1.32204 -0.195
      vertex -0.74952 -1.40225 -0.195
    endloop
  endfacet
  facet normal 0 0 1
    outer loop
      vertex -1.00869 -1.22909 -0.195
      vertex -0.72224 -1.08091 -0.195
      vertex -0.919238 -0.919238 -0.195
    endloop
  endfacet
  facet normal 0 0 1
    outer loop
      vertex -0.72224 -1.08091 -0.195
      vertex -1.00869 -1.22909 -0.195
      vertex -0.883356 -1.32204 -0.195
    endloop
  endfacet
  facet normal 0 0 1
    outer loop
      vertex -1.22909 -1.00869 -0.195
      vertex -0.919238 -0.919238 -0.195
      vertex -1.08091 -0.72224 -0.195
    endloop
  endfacet
  facet normal 0 0 1
    outer loop
      vertex -0.919238 -0.919238 -0.195
      vertex -1.1243 -1.1243 -0.195
      vertex -1.00869 -1.22909 -0.195
    endloop
  endfacet
  facet normal 0 0 1
    outer loop
      vertex -1.40225 -0.74952 -0.195
      vertex -1.08091 -0.72224 -0.195
      vertex -1.20104 -0.497488 -0.195
    endloop
  endfacet
  facet normal 0 0 1
    outer loop
      vertex -0.919238 -0.919238 -0.195
      vertex -1.22909 -1.00869 -0.195
      vertex -1.1243 -1.1243 -0.195
    endloop
  endfacet
  facet normal -0 0 1
    outer loop
      vertex -1.52153 -0.461553 -0.195
      vertex -1.20104 -0.497488 -0.195
      vertex -1.27502 -0.253617 -0.195
    endloop
  endfacet
  facet normal -0 0 1
    outer loop
      vertex -1.58234 -0.155847 -0.195
      vertex -1.27502 -0.253617 -0.195
      vertex -1.3 0 -0.195
    endloop
  endfacet
  facet normal 0 0 1
    outer loop
      vertex -1.08091 -0.72224 -0.195
      vertex -1.32204 -0.883356 -0.195
      vertex -1.22909 -1.00869 -0.195
    endloop
  endfacet
  facet normal 0 0 1
    outer loop
      vertex -1.52153 0.461553 -0.195
      vertex -1.20104 0.497488 -0.195
      vertex -1.46897 0.608466 -0.195
    endloop
  endfacet
  facet normal 0 0 1
    outer loop
      vertex -1.20104 0.497488 -0.195
      vertex -1.52153 0.461553 -0.195
      vertex -1.27502 0.253617 -0.195
    endloop
  endfacet
  facet normal 0 0 1
    outer loop
      vertex -1.08091 -0.72224 -0.195
      vertex -1.40225 -0.74952 -0.195
      vertex -1.32204 -0.883356 -0.195
    endloop
  endfacet
  facet normal -0 0 1
    outer loop
      vertex -1.55945 0.310193 -0.195
      vertex -1.27502 0.253617 -0.195
      vertex -1.52153 0.461553 -0.195
    endloop
  endfacet
  facet normal 0 0 1
    outer loop
      vertex -1.20104 -0.497488 -0.195
      vertex -1.46897 -0.608466 -0.195
      vertex -1.40225 -0.74952 -0.195
    endloop
  endfacet
  facet normal 0 0 1
    outer loop
      vertex -1.58234 0.155847 -0.195
      vertex -1.27502 0.253617 -0.195
      vertex -1.55945 0.310193 -0.195
    endloop
  endfacet
  facet normal 0 0 1
    outer loop
      vertex -1.20104 -0.497488 -0.195
      vertex -1.52153 -0.461553 -0.195
      vertex -1.46897 -0.608466 -0.195
    endloop
  endfacet
  facet normal 0 0 1
    outer loop
      vertex -1.27502 0.253617 -0.195
      vertex -1.58234 0.155847 -0.195
      vertex -1.3 0 -0.195
    endloop
  endfacet
  facet normal 0 0 1
    outer loop
      vertex -1.27502 -0.253617 -0.195
      vertex -1.55945 -0.310193 -0.195
      vertex -1.52153 -0.461553 -0.195
    endloop
  endfacet
  facet normal 0 0 1
    outer loop
      vertex -1.59 0 -0.195
      vertex -1.3 0 -0.195
      vertex -1.58234 0.155847 -0.195
    endloop
  endfacet
  facet normal 0 0 1
    outer loop
      vertex -1.27502 -0.253617 -0.195
      vertex -1.58234 -0.155847 -0.195
      vertex -1.55945 -0.310193 -0.195
    endloop
  endfacet
  facet normal 0 0 1
    outer loop
      vertex -1.3 0 -0.195
      vertex -1.59 0 -0.195
      vertex -1.58234 -0.155847 -0.195
    endloop
  endfacet
  facet normal 0.740928 -0.671584 0
    outer loop
      vertex -1.22909 1.00869 0.294999
      vertex -1.1243 1.1243 -0.195
      vertex -1.1243 1.1243 0.294999
    endloop
  endfacet
  facet normal 0.740928 -0.671584 0
    outer loop
      vertex -1.1243 1.1243 -0.195
      vertex -1.22909 1.00869 0.294999
      vertex -1.22909 1.00869 -0.195
    endloop
  endfacet
  facet normal 0.941557 -0.336854 0
    outer loop
      vertex -1.52153 0.461553 0.294999
      vertex -1.46897 0.608466 -0.195
      vertex -1.46897 0.608466 0.294999
    endloop
  endfacet
  facet normal 0.941557 -0.336854 0
    outer loop
      vertex -1.46897 0.608466 -0.195
      vertex -1.52153 0.461553 0.294999
      vertex -1.52153 0.461553 -0.195
    endloop
  endfacet
  facet normal -0.941557 0.336854 0
    outer loop
      vertex 1.46897 -0.608466 -0.195
      vertex 1.52153 -0.461553 0.294999
      vertex 1.52153 -0.461553 -0.195
    endloop
  endfacet
  facet normal -0.941557 0.336854 0
    outer loop
      vertex 1.52153 -0.461553 0.294999
      vertex 1.46897 -0.608466 -0.195
      vertex 1.46897 -0.608466 0.294999
    endloop
  endfacet
  facet normal -0.970022 0.243018 0
    outer loop
      vertex 1.52153 -0.461553 -0.195
      vertex 1.55945 -0.310193 0.294999
      vertex 1.55945 -0.310193 -0.195
    endloop
  endfacet
  facet normal -0.970022 0.243018 0
    outer loop
      vertex 1.55945 -0.310193 0.294999
      vertex 1.52153 -0.461553 -0.195
      vertex 1.52153 -0.461553 0.294999
    endloop
  endfacet
  facet normal 0.0490915 -0.998794 0
    outer loop
      vertex -0.155847 1.58234 -0.195
      vertex 0 1.59 0.294999
      vertex -0.155847 1.58234 0.294999
    endloop
  endfacet
  facet normal 0.0490915 -0.998794 0
    outer loop
      vertex 0 1.59 0.294999
      vertex -0.155847 1.58234 -0.195
      vertex 0 1.59 -0.195
    endloop
  endfacet
  facet normal -0.740928 -0.671584 0
    outer loop
      vertex 1.22909 1.00869 -0.195
      vertex 1.1243 1.1243 0.294999
      vertex 1.1243 1.1243 -0.195
    endloop
  endfacet
  facet normal -0.740928 -0.671584 0
    outer loop
      vertex 1.1243 1.1243 0.294999
      vertex 1.22909 1.00869 -0.195
      vertex 1.22909 1.00869 0.294999
    endloop
  endfacet
  facet normal -0.671584 0.740928 0
    outer loop
      vertex 1.1243 -1.1243 -0.195
      vertex 1.00869 -1.22909 0.294999
      vertex 1.1243 -1.1243 0.294999
    endloop
  endfacet
  facet normal -0.671584 0.740928 0
    outer loop
      vertex 1.00869 -1.22909 0.294999
      vertex 1.1243 -1.1243 -0.195
      vertex 1.00869 -1.22909 -0.195
    endloop
  endfacet
  facet normal 0.998794 0.0490915 0
    outer loop
      vertex -1.58234 -0.155847 0.294999
      vertex -1.59 0 -0.195
      vertex -1.59 0 0.294999
    endloop
  endfacet
  facet normal 0.998794 0.0490915 0
    outer loop
      vertex -1.59 0 -0.195
      vertex -1.58234 -0.155847 0.294999
      vertex -1.58234 -0.155847 -0.195
    endloop
  endfacet
  facet normal 0.514064 0.857752 -0
    outer loop
      vertex -0.74952 -1.40225 -0.195
      vertex -0.883356 -1.32204 0.294999
      vertex -0.74952 -1.40225 0.294999
    endloop
  endfacet
  facet normal 0.514064 0.857752 0
    outer loop
      vertex -0.883356 -1.32204 0.294999
      vertex -0.74952 -1.40225 -0.195
      vertex -0.883356 -1.32204 -0.195
    endloop
  endfacet
  facet normal -0.671584 -0.740928 0
    outer loop
      vertex 1.00869 1.22909 -0.195
      vertex 1.1243 1.1243 0.294999
      vertex 1.00869 1.22909 0.294999
    endloop
  endfacet
  facet normal -0.671584 -0.740928 -0
    outer loop
      vertex 1.1243 1.1243 0.294999
      vertex 1.00869 1.22909 -0.195
      vertex 1.1243 1.1243 -0.195
    endloop
  endfacet
  facet normal -0.243018 -0.970022 0
    outer loop
      vertex 0.310193 1.55945 -0.195
      vertex 0.461553 1.52153 0.294999
      vertex 0.310193 1.55945 0.294999
    endloop
  endfacet
  facet normal -0.243018 -0.970022 -0
    outer loop
      vertex 0.461553 1.52153 0.294999
      vertex 0.310193 1.55945 -0.195
      vertex 0.461553 1.52153 -0.195
    endloop
  endfacet
  facet normal -0.595683 0.80322 0
    outer loop
      vertex 1.00869 -1.22909 -0.195
      vertex 0.883356 -1.32204 0.294999
      vertex 1.00869 -1.22909 0.294999
    endloop
  endfacet
  facet normal -0.595683 0.80322 0
    outer loop
      vertex 0.883356 -1.32204 0.294999
      vertex 1.00869 -1.22909 -0.195
      vertex 0.883356 -1.32204 -0.195
    endloop
  endfacet
  facet normal -0.336854 0.941557 0
    outer loop
      vertex 0.608466 -1.46897 -0.195
      vertex 0.461553 -1.52153 0.294999
      vertex 0.608466 -1.46897 0.294999
    endloop
  endfacet
  facet normal -0.336854 0.941557 0
    outer loop
      vertex 0.461553 -1.52153 0.294999
      vertex 0.608466 -1.46897 -0.195
      vertex 0.461553 -1.52153 -0.195
    endloop
  endfacet
  facet normal 0.998794 -0.0490915 0
    outer loop
      vertex -1.59 0 0.294999
      vertex -1.58234 0.155847 -0.195
      vertex -1.58234 0.155847 0.294999
    endloop
  endfacet
  facet normal 0.998794 -0.0490915 0
    outer loop
      vertex -1.58234 0.155847 -0.195
      vertex -1.59 0 0.294999
      vertex -1.59 0 -0.195
    endloop
  endfacet
  facet normal 0.0490915 0.998794 -0
    outer loop
      vertex 0 -1.59 -0.195
      vertex -0.155847 -1.58234 0.294999
      vertex 0 -1.59 0.294999
    endloop
  endfacet
  facet normal 0.0490915 0.998794 0
    outer loop
      vertex -0.155847 -1.58234 0.294999
      vertex 0 -1.59 -0.195
      vertex -0.155847 -1.58234 -0.195
    endloop
  endfacet
  facet normal 0.989181 -0.146699 0
    outer loop
      vertex -1.58234 0.155847 0.294999
      vertex -1.55945 0.310193 -0.195
      vertex -1.55945 0.310193 0.294999
    endloop
  endfacet
  facet normal 0.989181 -0.146699 0
    outer loop
      vertex -1.55945 0.310193 -0.195
      vertex -1.58234 0.155847 0.294999
      vertex -1.58234 0.155847 -0.195
    endloop
  endfacet
  facet normal -0.514064 0.857752 0
    outer loop
      vertex 0.883356 -1.32204 -0.195
      vertex 0.74952 -1.40225 0.294999
      vertex 0.883356 -1.32204 0.294999
    endloop
  endfacet
  facet normal -0.514064 0.857752 0
    outer loop
      vertex 0.74952 -1.40225 0.294999
      vertex 0.883356 -1.32204 -0.195
      vertex 0.74952 -1.40225 -0.195
    endloop
  endfacet
  facet normal 0.336854 0.941557 -0
    outer loop
      vertex -0.461553 -1.52153 -0.195
      vertex -0.608466 -1.46897 0.294999
      vertex -0.461553 -1.52153 0.294999
    endloop
  endfacet
  facet normal 0.336854 0.941557 0
    outer loop
      vertex -0.608466 -1.46897 0.294999
      vertex -0.461553 -1.52153 -0.195
      vertex -0.608466 -1.46897 -0.195
    endloop
  endfacet
  facet normal 0.671584 0.740928 -0
    outer loop
      vertex -1.00869 -1.22909 -0.195
      vertex -1.1243 -1.1243 0.294999
      vertex -1.00869 -1.22909 0.294999
    endloop
  endfacet
  facet normal 0.671584 0.740928 0
    outer loop
      vertex -1.1243 -1.1243 0.294999
      vertex -1.00869 -1.22909 -0.195
      vertex -1.1243 -1.1243 -0.195
    endloop
  endfacet
  facet normal 0.857752 0.514064 0
    outer loop
      vertex -1.32204 -0.883356 0.294999
      vertex -1.40225 -0.74952 -0.195
      vertex -1.40225 -0.74952 0.294999
    endloop
  endfacet
  facet normal 0.857752 0.514064 0
    outer loop
      vertex -1.40225 -0.74952 -0.195
      vertex -1.32204 -0.883356 0.294999
      vertex -1.32204 -0.883356 -0.195
    endloop
  endfacet
  facet normal 0.903973 0.427589 0
    outer loop
      vertex -1.40225 -0.74952 0.294999
      vertex -1.46897 -0.608466 -0.195
      vertex -1.46897 -0.608466 0.294999
    endloop
  endfacet
  facet normal 0.903973 0.427589 0
    outer loop
      vertex -1.46897 -0.608466 -0.195
      vertex -1.40225 -0.74952 0.294999
      vertex -1.40225 -0.74952 -0.195
    endloop
  endfacet
  facet normal 0.857752 -0.514064 0
    outer loop
      vertex -1.40225 0.74952 0.294999
      vertex -1.32204 0.883356 -0.195
      vertex -1.32204 0.883356 0.294999
    endloop
  endfacet
  facet normal 0.857752 -0.514064 0
    outer loop
      vertex -1.32204 0.883356 -0.195
      vertex -1.40225 0.74952 0.294999
      vertex -1.40225 0.74952 -0.195
    endloop
  endfacet
  facet normal -0.956938 -0.290294 0
    outer loop
      vertex 1.27502 0.253617 -0.294999
      vertex 1.20104 0.497488 -0.195
      vertex 1.20104 0.497488 -0.294999
    endloop
  endfacet
  facet normal -0.956938 -0.290294 0
    outer loop
      vertex 1.20104 0.497488 -0.195
      vertex 1.27502 0.253617 -0.294999
      vertex 1.27502 0.253617 -0.195
    endloop
  endfacet
  facet normal -0.995184 -0.0980207 0
    outer loop
      vertex 1.3 0 -0.294999
      vertex 1.27502 0.253617 -0.195
      vertex 1.27502 0.253617 -0.294999
    endloop
  endfacet
  facet normal -0.995184 -0.0980207 0
    outer loop
      vertex 1.27502 0.253617 -0.195
      vertex 1.3 0 -0.294999
      vertex 1.3 0 -0.195
    endloop
  endfacet
  facet normal -0.881925 -0.471389 0
    outer loop
      vertex 1.20104 0.497488 -0.294999
      vertex 1.08091 0.72224 -0.195
      vertex 1.08091 0.72224 -0.294999
    endloop
  endfacet
  facet normal -0.881925 -0.471389 0
    outer loop
      vertex 1.08091 0.72224 -0.195
      vertex 1.20104 0.497488 -0.294999
      vertex 1.20104 0.497488 -0.195
    endloop
  endfacet
  facet normal -0.995184 0.0980207 0
    outer loop
      vertex 1.27502 -0.253617 -0.294999
      vertex 1.3 0 -0.195
      vertex 1.3 0 -0.294999
    endloop
  endfacet
  facet normal -0.995184 0.0980207 0
    outer loop
      vertex 1.3 0 -0.195
      vertex 1.27502 -0.253617 -0.294999
      vertex 1.27502 -0.253617 -0.195
    endloop
  endfacet
  facet normal 0.471389 0.881925 -0
    outer loop
      vertex -0.497488 -1.20104 -0.294999
      vertex -0.72224 -1.08091 -0.195
      vertex -0.497488 -1.20104 -0.195
    endloop
  endfacet
  facet normal 0.471389 0.881925 0
    outer loop
      vertex -0.72224 -1.08091 -0.195
      vertex -0.497488 -1.20104 -0.294999
      vertex -0.72224 -1.08091 -0.294999
    endloop
  endfacet
  facet normal -0.634393 0.773011 0
    outer loop
      vertex 0.919238 -0.919238 -0.294999
      vertex 0.72224 -1.08091 -0.195
      vertex 0.919238 -0.919238 -0.195
    endloop
  endfacet
  facet normal -0.634393 0.773011 0
    outer loop
      vertex 0.72224 -1.08091 -0.195
      vertex 0.919238 -0.919238 -0.294999
      vertex 0.72224 -1.08091 -0.294999
    endloop
  endfacet
  facet normal -0.773011 -0.634393 0
    outer loop
      vertex 1.08091 0.72224 -0.294999
      vertex 0.919238 0.919238 -0.195
      vertex 0.919238 0.919238 -0.294999
    endloop
  endfacet
  facet normal -0.773011 -0.634393 0
    outer loop
      vertex 0.919238 0.919238 -0.195
      vertex 1.08091 0.72224 -0.294999
      vertex 1.08091 0.72224 -0.195
    endloop
  endfacet
  facet normal -0.956938 0.290294 0
    outer loop
      vertex 1.20104 -0.497488 -0.294999
      vertex 1.27502 -0.253617 -0.195
      vertex 1.27502 -0.253617 -0.294999
    endloop
  endfacet
  facet normal -0.956938 0.290294 0
    outer loop
      vertex 1.27502 -0.253617 -0.195
      vertex 1.20104 -0.497488 -0.294999
      vertex 1.20104 -0.497488 -0.195
    endloop
  endfacet
  facet normal 0.773011 0.634393 0
    outer loop
      vertex -0.919238 -0.919238 -0.195
      vertex -1.08091 -0.72224 -0.294999
      vertex -1.08091 -0.72224 -0.195
    endloop
  endfacet
  facet normal 0.773011 0.634393 0
    outer loop
      vertex -1.08091 -0.72224 -0.294999
      vertex -0.919238 -0.919238 -0.195
      vertex -0.919238 -0.919238 -0.294999
    endloop
  endfacet
  facet normal 0.634393 -0.773011 0
    outer loop
      vertex -0.919238 0.919238 -0.294999
      vertex -0.72224 1.08091 -0.195
      vertex -0.919238 0.919238 -0.195
    endloop
  endfacet
  facet normal 0.634393 -0.773011 0
    outer loop
      vertex -0.72224 1.08091 -0.195
      vertex -0.919238 0.919238 -0.294999
      vertex -0.72224 1.08091 -0.294999
    endloop
  endfacet
  facet normal -0.471389 0.881925 0
    outer loop
      vertex 0.72224 -1.08091 -0.294999
      vertex 0.497488 -1.20104 -0.195
      vertex 0.72224 -1.08091 -0.195
    endloop
  endfacet
  facet normal -0.471389 0.881925 0
    outer loop
      vertex 0.497488 -1.20104 -0.195
      vertex 0.72224 -1.08091 -0.294999
      vertex 0.497488 -1.20104 -0.294999
    endloop
  endfacet
  facet normal 0.471389 -0.881925 0
    outer loop
      vertex -0.72224 1.08091 -0.294999
      vertex -0.497488 1.20104 -0.195
      vertex -0.72224 1.08091 -0.195
    endloop
  endfacet
  facet normal 0.471389 -0.881925 0
    outer loop
      vertex -0.497488 1.20104 -0.195
      vertex -0.72224 1.08091 -0.294999
      vertex -0.497488 1.20104 -0.294999
    endloop
  endfacet
  facet normal -0.290294 0.956938 0
    outer loop
      vertex 0.497488 -1.20104 -0.294999
      vertex 0.253617 -1.27502 -0.195
      vertex 0.497488 -1.20104 -0.195
    endloop
  endfacet
  facet normal -0.290294 0.956938 0
    outer loop
      vertex 0.253617 -1.27502 -0.195
      vertex 0.497488 -1.20104 -0.294999
      vertex 0.253617 -1.27502 -0.294999
    endloop
  endfacet
  facet normal 0.290294 -0.956938 0
    outer loop
      vertex -0.497488 1.20104 -0.294999
      vertex -0.253617 1.27502 -0.195
      vertex -0.497488 1.20104 -0.195
    endloop
  endfacet
  facet normal 0.290294 -0.956938 0
    outer loop
      vertex -0.253617 1.27502 -0.195
      vertex -0.497488 1.20104 -0.294999
      vertex -0.253617 1.27502 -0.294999
    endloop
  endfacet
  facet normal 0.881925 0.471389 0
    outer loop
      vertex -1.08091 -0.72224 -0.195
      vertex -1.20104 -0.497488 -0.294999
      vertex -1.20104 -0.497488 -0.195
    endloop
  endfacet
  facet normal 0.881925 0.471389 0
    outer loop
      vertex -1.20104 -0.497488 -0.294999
      vertex -1.08091 -0.72224 -0.195
      vertex -1.08091 -0.72224 -0.294999
    endloop
  endfacet
  facet normal -0.0980207 -0.995184 0
    outer loop
      vertex 0 1.3 -0.294999
      vertex 0.253617 1.27502 -0.195
      vertex 0 1.3 -0.195
    endloop
  endfacet
  facet normal -0.0980207 -0.995184 -0
    outer loop
      vertex 0.253617 1.27502 -0.195
      vertex 0 1.3 -0.294999
      vertex 0.253617 1.27502 -0.294999
    endloop
  endfacet
  facet normal 0.634393 0.773011 -0
    outer loop
      vertex -0.72224 -1.08091 -0.294999
      vertex -0.919238 -0.919238 -0.195
      vertex -0.72224 -1.08091 -0.195
    endloop
  endfacet
  facet normal 0.634393 0.773011 0
    outer loop
      vertex -0.919238 -0.919238 -0.195
      vertex -0.72224 -1.08091 -0.294999
      vertex -0.919238 -0.919238 -0.294999
    endloop
  endfacet
  facet normal -0.290294 -0.956938 0
    outer loop
      vertex 0.253617 1.27502 -0.294999
      vertex 0.497488 1.20104 -0.195
      vertex 0.253617 1.27502 -0.195
    endloop
  endfacet
  facet normal -0.290294 -0.956938 -0
    outer loop
      vertex 0.497488 1.20104 -0.195
      vertex 0.253617 1.27502 -0.294999
      vertex 0.497488 1.20104 -0.294999
    endloop
  endfacet
  facet normal 0.881925 -0.471389 0
    outer loop
      vertex -1.20104 0.497488 -0.195
      vertex -1.08091 0.72224 -0.294999
      vertex -1.08091 0.72224 -0.195
    endloop
  endfacet
  facet normal 0.881925 -0.471389 0
    outer loop
      vertex -1.08091 0.72224 -0.294999
      vertex -1.20104 0.497488 -0.195
      vertex -1.20104 0.497488 -0.294999
    endloop
  endfacet
  facet normal -0.881925 0.471389 0
    outer loop
      vertex 1.08091 -0.72224 -0.294999
      vertex 1.20104 -0.497488 -0.195
      vertex 1.20104 -0.497488 -0.294999
    endloop
  endfacet
  facet normal -0.881925 0.471389 0
    outer loop
      vertex 1.20104 -0.497488 -0.195
      vertex 1.08091 -0.72224 -0.294999
      vertex 1.08091 -0.72224 -0.195
    endloop
  endfacet
  facet normal -0.773011 0.634393 0
    outer loop
      vertex 0.919238 -0.919238 -0.294999
      vertex 1.08091 -0.72224 -0.195
      vertex 1.08091 -0.72224 -0.294999
    endloop
  endfacet
  facet normal -0.773011 0.634393 0
    outer loop
      vertex 1.08091 -0.72224 -0.195
      vertex 0.919238 -0.919238 -0.294999
      vertex 0.919238 -0.919238 -0.195
    endloop
  endfacet
  facet normal -0.634393 -0.773011 0
    outer loop
      vertex 0.72224 1.08091 -0.294999
      vertex 0.919238 0.919238 -0.195
      vertex 0.72224 1.08091 -0.195
    endloop
  endfacet
  facet normal -0.634393 -0.773011 -0
    outer loop
      vertex 0.919238 0.919238 -0.195
      vertex 0.72224 1.08091 -0.294999
      vertex 0.919238 0.919238 -0.294999
    endloop
  endfacet
  facet normal -0.471389 -0.881925 0
    outer loop
      vertex 0.497488 1.20104 -0.294999
      vertex 0.72224 1.08091 -0.195
      vertex 0.497488 1.20104 -0.195
    endloop
  endfacet
  facet normal -0.471389 -0.881925 -0
    outer loop
      vertex 0.72224 1.08091 -0.195
      vertex 0.497488 1.20104 -0.294999
      vertex 0.72224 1.08091 -0.294999
    endloop
  endfacet
  facet normal -0.0980207 0.995184 0
    outer loop
      vertex 0.253617 -1.27502 -0.294999
      vertex 0 -1.3 -0.195
      vertex 0.253617 -1.27502 -0.195
    endloop
  endfacet
  facet normal -0.0980207 0.995184 0
    outer loop
      vertex 0 -1.3 -0.195
      vertex 0.253617 -1.27502 -0.294999
      vertex 0 -1.3 -0.294999
    endloop
  endfacet
  facet normal 0.956938 0.290294 0
    outer loop
      vertex -1.20104 -0.497488 -0.195
      vertex -1.27502 -0.253617 -0.294999
      vertex -1.27502 -0.253617 -0.195
    endloop
  endfacet
  facet normal 0.956938 0.290294 0
    outer loop
      vertex -1.27502 -0.253617 -0.294999
      vertex -1.20104 -0.497488 -0.195
      vertex -1.20104 -0.497488 -0.294999
    endloop
  endfacet
  facet normal 0.995184 -0.0980207 0
    outer loop
      vertex -1.3 0 -0.195
      vertex -1.27502 0.253617 -0.294999
      vertex -1.27502 0.253617 -0.195
    endloop
  endfacet
  facet normal 0.995184 -0.0980207 0
    outer loop
      vertex -1.27502 0.253617 -0.294999
      vertex -1.3 0 -0.195
      vertex -1.3 0 -0.294999
    endloop
  endfacet
  facet normal 0.956938 -0.290294 0
    outer loop
      vertex -1.27502 0.253617 -0.195
      vertex -1.20104 0.497488 -0.294999
      vertex -1.20104 0.497488 -0.195
    endloop
  endfacet
  facet normal 0.956938 -0.290294 0
    outer loop
      vertex -1.20104 0.497488 -0.294999
      vertex -1.27502 0.253617 -0.195
      vertex -1.27502 0.253617 -0.294999
    endloop
  endfacet
  facet normal 0.0980207 -0.995184 0
    outer loop
      vertex -0.253617 1.27502 -0.294999
      vertex 0 1.3 -0.195
      vertex -0.253617 1.27502 -0.195
    endloop
  endfacet
  facet normal 0.0980207 -0.995184 0
    outer loop
      vertex 0 1.3 -0.195
      vertex -0.253617 1.27502 -0.294999
      vertex 0 1.3 -0.294999
    endloop
  endfacet
  facet normal 0.995184 0.0980207 0
    outer loop
      vertex -1.27502 -0.253617 -0.195
      vertex -1.3 0 -0.294999
      vertex -1.3 0 -0.195
    endloop
  endfacet
  facet normal 0.995184 0.0980207 0
    outer loop
      vertex -1.3 0 -0.294999
      vertex -1.27502 -0.253617 -0.195
      vertex -1.27502 -0.253617 -0.294999
    endloop
  endfacet
  facet normal 0.0980207 0.995184 -0
    outer loop
      vertex 0 -1.3 -0.294999
      vertex -0.253617 -1.27502 -0.195
      vertex 0 -1.3 -0.195
    endloop
  endfacet
  facet normal 0.0980207 0.995184 0
    outer loop
      vertex -0.253617 -1.27502 -0.195
      vertex 0 -1.3 -0.294999
      vertex -0.253617 -1.27502 -0.294999
    endloop
  endfacet
  facet normal 0.290294 0.956938 -0
    outer loop
      vertex -0.253617 -1.27502 -0.294999
      vertex -0.497488 -1.20104 -0.195
      vertex -0.253617 -1.27502 -0.195
    endloop
  endfacet
  facet normal 0.290294 0.956938 0
    outer loop
      vertex -0.497488 -1.20104 -0.195
      vertex -0.253617 -1.27502 -0.294999
      vertex -0.497488 -1.20104 -0.294999
    endloop
  endfacet
  facet normal 0.773011 -0.634393 0
    outer loop
      vertex -1.08091 0.72224 -0.195
      vertex -0.919238 0.919238 -0.294999
      vertex -0.919238 0.919238 -0.195
    endloop
  endfacet
  facet normal 0.773011 -0.634393 0
    outer loop
      vertex -0.919238 0.919238 -0.294999
      vertex -1.08091 0.72224 -0.195
      vertex -1.08091 0.72224 -0.294999
    endloop
  endfacet
endsolid OpenSCAD_Model
