solid OpenSCAD_Model
  facet normal -0.555574 -0.831467 0
    outer loop
      vertex -1.19501 -1.19501 -6.3
      vertex -0.646734 -1.56136 -0.88
      vertex -1.19501 -1.19501 -0.88
    endloop
  endfacet
  facet normal -0.555574 -0.831467 -0
    outer loop
      vertex -0.646734 -1.56136 -0.88
      vertex -1.19501 -1.19501 -6.3
      vertex -0.646734 -1.56136 -6.3
    endloop
  endfacet
  facet normal 0.831467 -0.555574 0
    outer loop
      vertex 1.19501 -1.19501 -0.88
      vertex 1.56136 -0.646734 -6.3
      vertex 1.56136 -0.646734 -0.88
    endloop
  endfacet
  facet normal 0.831467 -0.555574 0
    outer loop
      vertex 1.56136 -0.646734 -6.3
      vertex 1.19501 -1.19501 -0.88
      vertex 1.19501 -1.19501 -6.3
    endloop
  endfacet
  facet normal 0.980786 -0.195085 0
    outer loop
      vertex 1.56136 -0.646734 -0.88
      vertex 1.69 0 -6.3
      vertex 1.69 0 -0.88
    endloop
  endfacet
  facet normal 0.980786 -0.195085 0
    outer loop
      vertex 1.69 0 -6.3
      vertex 1.56136 -0.646734 -0.88
      vertex 1.56136 -0.646734 -6.3
    endloop
  endfacet
  facet normal -0.831467 -0.555574 0
    outer loop
      vertex -1.19501 -1.19501 -6.3
      vertex -1.56136 -0.646734 -0.88
      vertex -1.56136 -0.646734 -6.3
    endloop
  endfacet
  facet normal -0.831467 -0.555574 0
    outer loop
      vertex -1.56136 -0.646734 -0.88
      vertex -1.19501 -1.19501 -6.3
      vertex -1.19501 -1.19501 -0.88
    endloop
  endfacet
  facet normal -0.195085 0.980786 0
    outer loop
      vertex 0 1.69 -6.3
      vertex -0.646734 1.56136 -0.88
      vertex 0 1.69 -0.88
    endloop
  endfacet
  facet normal -0.195085 0.980786 0
    outer loop
      vertex -0.646734 1.56136 -0.88
      vertex 0 1.69 -6.3
      vertex -0.646734 1.56136 -6.3
    endloop
  endfacet
  facet normal 0.195085 0.980786 -0
    outer loop
      vertex 0.646734 1.56136 -6.3
      vertex 0 1.69 -0.88
      vertex 0.646734 1.56136 -0.88
    endloop
  endfacet
  facet normal 0.195085 0.980786 0
    outer loop
      vertex 0 1.69 -0.88
      vertex 0.646734 1.56136 -6.3
      vertex 0 1.69 -6.3
    endloop
  endfacet
  facet normal 0.555574 0.831467 -0
    outer loop
      vertex 1.19501 1.19501 -6.3
      vertex 0.646734 1.56136 -0.88
      vertex 1.19501 1.19501 -0.88
    endloop
  endfacet
  facet normal 0.555574 0.831467 0
    outer loop
      vertex 0.646734 1.56136 -0.88
      vertex 1.19501 1.19501 -6.3
      vertex 0.646734 1.56136 -6.3
    endloop
  endfacet
  facet normal 0.831467 0.555574 0
    outer loop
      vertex 1.56136 0.646734 -0.88
      vertex 1.19501 1.19501 -6.3
      vertex 1.19501 1.19501 -0.88
    endloop
  endfacet
  facet normal 0.831467 0.555574 0
    outer loop
      vertex 1.19501 1.19501 -6.3
      vertex 1.56136 0.646734 -0.88
      vertex 1.56136 0.646734 -6.3
    endloop
  endfacet
  facet normal -0.980786 -0.195085 0
    outer loop
      vertex -1.56136 -0.646734 -6.3
      vertex -1.69 0 -0.88
      vertex -1.69 0 -6.3
    endloop
  endfacet
  facet normal -0.980786 -0.195085 0
    outer loop
      vertex -1.69 0 -0.88
      vertex -1.56136 -0.646734 -6.3
      vertex -1.56136 -0.646734 -0.88
    endloop
  endfacet
  facet normal 0.980786 0.195085 0
    outer loop
      vertex 1.69 0 -0.88
      vertex 1.56136 0.646734 -6.3
      vertex 1.56136 0.646734 -0.88
    endloop
  endfacet
  facet normal 0.980786 0.195085 0
    outer loop
      vertex 1.56136 0.646734 -6.3
      vertex 1.69 0 -0.88
      vertex 1.69 0 -6.3
    endloop
  endfacet
  facet normal 0 0 1
    outer loop
      vertex 1.5 0 -0.39
      vertex 1.58 0 -0.39
      vertex 1.57239 0.154866 -0.39
    endloop
  endfacet
  facet normal 0 0 1
    outer loop
      vertex 1.49278 0.147025 -0.39
      vertex 1.57239 0.154866 -0.39
      vertex 1.54964 0.308242 -0.39
    endloop
  endfacet
  facet normal 0 0 1
    outer loop
      vertex 1.58 0 -0.39
      vertex 1.5 0 -0.39
      vertex 1.57239 -0.154866 -0.39
    endloop
  endfacet
  facet normal 0 0 1
    outer loop
      vertex 1.47118 0.292635 -0.39
      vertex 1.54964 0.308242 -0.39
      vertex 1.51196 0.45865 -0.39
    endloop
  endfacet
  facet normal -0 0 1
    outer loop
      vertex 1.49278 -0.147025 -0.39
      vertex 1.57239 -0.154866 -0.39
      vertex 1.5 0 -0.39
    endloop
  endfacet
  facet normal 0 0 1
    outer loop
      vertex 1.57239 -0.154866 -0.39
      vertex 1.49278 -0.147025 -0.39
      vertex 1.54964 -0.308242 -0.39
    endloop
  endfacet
  facet normal 0 0 1
    outer loop
      vertex 1.57239 0.154866 -0.39
      vertex 1.49278 0.147025 -0.39
      vertex 1.5 0 -0.39
    endloop
  endfacet
  facet normal 0 0 1
    outer loop
      vertex 1.54964 0.308242 -0.39
      vertex 1.47118 0.292635 -0.39
      vertex 1.49278 0.147025 -0.39
    endloop
  endfacet
  facet normal 0 0 1
    outer loop
      vertex 1.43541 0.435427 -0.39
      vertex 1.51196 0.45865 -0.39
      vertex 1.45973 0.604639 -0.39
    endloop
  endfacet
  facet normal 0 0 1
    outer loop
      vertex 1.51196 0.45865 -0.39
      vertex 1.43541 0.435427 -0.39
      vertex 1.47118 0.292635 -0.39
    endloop
  endfacet
  facet normal 0 0 1
    outer loop
      vertex 1.38582 0.574024 -0.39
      vertex 1.45973 0.604639 -0.39
      vertex 1.39344 0.744806 -0.39
    endloop
  endfacet
  facet normal 0 0 1
    outer loop
      vertex 1.45973 0.604639 -0.39
      vertex 1.38582 0.574024 -0.39
      vertex 1.43541 0.435427 -0.39
    endloop
  endfacet
  facet normal 0 0 1
    outer loop
      vertex 1.39344 0.744806 -0.39
      vertex 1.32288 0.707094 -0.39
      vertex 1.38582 0.574024 -0.39
    endloop
  endfacet
  facet normal 0 0 1
    outer loop
      vertex 1.31372 0.877801 -0.39
      vertex 1.32288 0.707094 -0.39
      vertex 1.39344 0.744806 -0.39
    endloop
  endfacet
  facet normal 0 0 1
    outer loop
      vertex 1.31372 0.877801 -0.39
      vertex 1.2472 0.833355 -0.39
      vertex 1.32288 0.707094 -0.39
    endloop
  endfacet
  facet normal 0 0 1
    outer loop
      vertex 1.22136 1.00234 -0.39
      vertex 1.2472 0.833355 -0.39
      vertex 1.31372 0.877801 -0.39
    endloop
  endfacet
  facet normal 0 0 1
    outer loop
      vertex 1.22136 1.00234 -0.39
      vertex 1.15952 0.95159 -0.39
      vertex 1.2472 0.833355 -0.39
    endloop
  endfacet
  facet normal 0 0 1
    outer loop
      vertex 1.11723 1.11723 -0.39
      vertex 1.15952 0.95159 -0.39
      vertex 1.22136 1.00234 -0.39
    endloop
  endfacet
  facet normal 0 0 1
    outer loop
      vertex 1.11723 1.11723 -0.39
      vertex 1.06066 1.06066 -0.39
      vertex 1.15952 0.95159 -0.39
    endloop
  endfacet
  facet normal 0 0 1
    outer loop
      vertex 1.00234 1.22136 -0.39
      vertex 1.06066 1.06066 -0.39
      vertex 1.11723 1.11723 -0.39
    endloop
  endfacet
  facet normal 0 0 1
    outer loop
      vertex 1.00234 1.22136 -0.39
      vertex 0.95159 1.15952 -0.39
      vertex 1.06066 1.06066 -0.39
    endloop
  endfacet
  facet normal 0 0 1
    outer loop
      vertex 0.877801 1.31372 -0.39
      vertex 0.95159 1.15952 -0.39
      vertex 1.00234 1.22136 -0.39
    endloop
  endfacet
  facet normal 0 0 1
    outer loop
      vertex 0.877801 1.31372 -0.39
      vertex 0.833355 1.2472 -0.39
      vertex 0.95159 1.15952 -0.39
    endloop
  endfacet
  facet normal 0 0 1
    outer loop
      vertex 0.744806 1.39344 -0.39
      vertex 0.833355 1.2472 -0.39
      vertex 0.877801 1.31372 -0.39
    endloop
  endfacet
  facet normal 0 0 1
    outer loop
      vertex 0.744806 1.39344 -0.39
      vertex 0.707094 1.32288 -0.39
      vertex 0.833355 1.2472 -0.39
    endloop
  endfacet
  facet normal 0 0 1
    outer loop
      vertex 0.604639 1.45973 -0.39
      vertex 0.707094 1.32288 -0.39
      vertex 0.744806 1.39344 -0.39
    endloop
  endfacet
  facet normal 0 0 1
    outer loop
      vertex 0.604639 1.45973 -0.39
      vertex 0.574024 1.38582 -0.39
      vertex 0.707094 1.32288 -0.39
    endloop
  endfacet
  facet normal 0 0 1
    outer loop
      vertex 0.45865 1.51196 -0.39
      vertex 0.574024 1.38582 -0.39
      vertex 0.604639 1.45973 -0.39
    endloop
  endfacet
  facet normal 0 0 1
    outer loop
      vertex 0.45865 1.51196 -0.39
      vertex 0.435427 1.43541 -0.39
      vertex 0.574024 1.38582 -0.39
    endloop
  endfacet
  facet normal 0 0 1
    outer loop
      vertex 0.308242 1.54964 -0.39
      vertex 0.435427 1.43541 -0.39
      vertex 0.45865 1.51196 -0.39
    endloop
  endfacet
  facet normal 0 0 1
    outer loop
      vertex 0.308242 1.54964 -0.39
      vertex 0.292635 1.47118 -0.39
      vertex 0.435427 1.43541 -0.39
    endloop
  endfacet
  facet normal 0 0 1
    outer loop
      vertex 0.154866 1.57239 -0.39
      vertex 0.292635 1.47118 -0.39
      vertex 0.308242 1.54964 -0.39
    endloop
  endfacet
  facet normal 0 0 1
    outer loop
      vertex 0.154866 1.57239 -0.39
      vertex 0.147025 1.49278 -0.39
      vertex 0.292635 1.47118 -0.39
    endloop
  endfacet
  facet normal 0 0 1
    outer loop
      vertex 0 1.58 -0.39
      vertex 0.147025 1.49278 -0.39
      vertex 0.154866 1.57239 -0.39
    endloop
  endfacet
  facet normal 0 0 1
    outer loop
      vertex 0 1.58 -0.39
      vertex 0 1.5 -0.39
      vertex 0.147025 1.49278 -0.39
    endloop
  endfacet
  facet normal 0 0 1
    outer loop
      vertex 0 1.58 -0.39
      vertex -0.147025 1.49278 -0.39
      vertex 0 1.5 -0.39
    endloop
  endfacet
  facet normal -0 0 1
    outer loop
      vertex -0.154866 1.57239 -0.39
      vertex -0.147025 1.49278 -0.39
      vertex 0 1.58 -0.39
    endloop
  endfacet
  facet normal 0 0 1
    outer loop
      vertex -0.154866 1.57239 -0.39
      vertex -0.292635 1.47118 -0.39
      vertex -0.147025 1.49278 -0.39
    endloop
  endfacet
  facet normal -0 0 1
    outer loop
      vertex -0.308242 1.54964 -0.39
      vertex -0.292635 1.47118 -0.39
      vertex -0.154866 1.57239 -0.39
    endloop
  endfacet
  facet normal 0 0 1
    outer loop
      vertex -0.308242 1.54964 -0.39
      vertex -0.435427 1.43541 -0.39
      vertex -0.292635 1.47118 -0.39
    endloop
  endfacet
  facet normal -0 0 1
    outer loop
      vertex -0.45865 1.51196 -0.39
      vertex -0.435427 1.43541 -0.39
      vertex -0.308242 1.54964 -0.39
    endloop
  endfacet
  facet normal 0 0 1
    outer loop
      vertex -0.45865 1.51196 -0.39
      vertex -0.574024 1.38582 -0.39
      vertex -0.435427 1.43541 -0.39
    endloop
  endfacet
  facet normal -0 0 1
    outer loop
      vertex -0.604639 1.45973 -0.39
      vertex -0.574024 1.38582 -0.39
      vertex -0.45865 1.51196 -0.39
    endloop
  endfacet
  facet normal 0 0 1
    outer loop
      vertex -0.604639 1.45973 -0.39
      vertex -0.707094 1.32288 -0.39
      vertex -0.574024 1.38582 -0.39
    endloop
  endfacet
  facet normal -0 0 1
    outer loop
      vertex -0.744806 1.39344 -0.39
      vertex -0.707094 1.32288 -0.39
      vertex -0.604639 1.45973 -0.39
    endloop
  endfacet
  facet normal 0 0 1
    outer loop
      vertex -0.744806 1.39344 -0.39
      vertex -0.833355 1.2472 -0.39
      vertex -0.707094 1.32288 -0.39
    endloop
  endfacet
  facet normal -0 0 1
    outer loop
      vertex -0.877801 1.31372 -0.39
      vertex -0.833355 1.2472 -0.39
      vertex -0.744806 1.39344 -0.39
    endloop
  endfacet
  facet normal 0 0 1
    outer loop
      vertex -0.877801 1.31372 -0.39
      vertex -0.95159 1.15952 -0.39
      vertex -0.833355 1.2472 -0.39
    endloop
  endfacet
  facet normal -0 0 1
    outer loop
      vertex -1.00234 1.22136 -0.39
      vertex -0.95159 1.15952 -0.39
      vertex -0.877801 1.31372 -0.39
    endloop
  endfacet
  facet normal 0 0 1
    outer loop
      vertex -1.00234 1.22136 -0.39
      vertex -1.06066 1.06066 -0.39
      vertex -0.95159 1.15952 -0.39
    endloop
  endfacet
  facet normal -0 0 1
    outer loop
      vertex -1.11723 1.11723 -0.39
      vertex -1.06066 1.06066 -0.39
      vertex -1.00234 1.22136 -0.39
    endloop
  endfacet
  facet normal 0 0 1
    outer loop
      vertex -1.11723 1.11723 -0.39
      vertex -1.15952 0.95159 -0.39
      vertex -1.06066 1.06066 -0.39
    endloop
  endfacet
  facet normal -0 0 1
    outer loop
      vertex -1.22136 1.00234 -0.39
      vertex -1.15952 0.95159 -0.39
      vertex -1.11723 1.11723 -0.39
    endloop
  endfacet
  facet normal 0 0 1
    outer loop
      vertex -1.22136 1.00234 -0.39
      vertex -1.2472 0.833355 -0.39
      vertex -1.15952 0.95159 -0.39
    endloop
  endfacet
  facet normal -0 0 1
    outer loop
      vertex -1.31372 0.877801 -0.39
      vertex -1.2472 0.833355 -0.39
      vertex -1.22136 1.00234 -0.39
    endloop
  endfacet
  facet normal 0 0 1
    outer loop
      vertex -1.31372 0.877801 -0.39
      vertex -1.32288 0.707094 -0.39
      vertex -1.2472 0.833355 -0.39
    endloop
  endfacet
  facet normal -0 0 1
    outer loop
      vertex -1.39344 0.744806 -0.39
      vertex -1.32288 0.707094 -0.39
      vertex -1.31372 0.877801 -0.39
    endloop
  endfacet
  facet normal 0 0 1
    outer loop
      vertex -1.32288 0.707094 -0.39
      vertex -1.39344 0.744806 -0.39
      vertex -1.38582 0.574024 -0.39
    endloop
  endfacet
  facet normal -0 0 1
    outer loop
      vertex -1.45973 0.604639 -0.39
      vertex -1.38582 0.574024 -0.39
      vertex -1.39344 0.744806 -0.39
    endloop
  endfacet
  facet normal 0 0 1
    outer loop
      vertex -1.38582 0.574024 -0.39
      vertex -1.45973 0.604639 -0.39
      vertex -1.43541 0.435427 -0.39
    endloop
  endfacet
  facet normal -0 0 1
    outer loop
      vertex -1.51196 0.45865 -0.39
      vertex -1.43541 0.435427 -0.39
      vertex -1.45973 0.604639 -0.39
    endloop
  endfacet
  facet normal 0 0 1
    outer loop
      vertex -1.43541 0.435427 -0.39
      vertex -1.51196 0.45865 -0.39
      vertex -1.47118 0.292635 -0.39
    endloop
  endfacet
  facet normal 0 0 1
    outer loop
      vertex -1.47118 0.292635 -0.39
      vertex -1.54964 0.308242 -0.39
      vertex -1.49278 0.147025 -0.39
    endloop
  endfacet
  facet normal -0 0 1
    outer loop
      vertex -1.54964 0.308242 -0.39
      vertex -1.47118 0.292635 -0.39
      vertex -1.51196 0.45865 -0.39
    endloop
  endfacet
  facet normal -0 0 1
    outer loop
      vertex 1.47118 -0.292635 -0.39
      vertex 1.54964 -0.308242 -0.39
      vertex 1.49278 -0.147025 -0.39
    endloop
  endfacet
  facet normal 0 0 1
    outer loop
      vertex 1.54964 -0.308242 -0.39
      vertex 1.47118 -0.292635 -0.39
      vertex 1.51196 -0.45865 -0.39
    endloop
  endfacet
  facet normal -0 0 1
    outer loop
      vertex 1.43541 -0.435427 -0.39
      vertex 1.51196 -0.45865 -0.39
      vertex 1.47118 -0.292635 -0.39
    endloop
  endfacet
  facet normal 0 0 1
    outer loop
      vertex 1.51196 -0.45865 -0.39
      vertex 1.43541 -0.435427 -0.39
      vertex 1.45973 -0.604639 -0.39
    endloop
  endfacet
  facet normal -0 0 1
    outer loop
      vertex 1.38582 -0.574024 -0.39
      vertex 1.45973 -0.604639 -0.39
      vertex 1.43541 -0.435427 -0.39
    endloop
  endfacet
  facet normal 0 0 1
    outer loop
      vertex 1.45973 -0.604639 -0.39
      vertex 1.38582 -0.574024 -0.39
      vertex 1.39344 -0.744806 -0.39
    endloop
  endfacet
  facet normal -0 0 1
    outer loop
      vertex 1.32288 -0.707094 -0.39
      vertex 1.39344 -0.744806 -0.39
      vertex 1.38582 -0.574024 -0.39
    endloop
  endfacet
  facet normal 0 0 1
    outer loop
      vertex 1.32288 -0.707094 -0.39
      vertex 1.31372 -0.877801 -0.39
      vertex 1.39344 -0.744806 -0.39
    endloop
  endfacet
  facet normal -0 0 1
    outer loop
      vertex 1.2472 -0.833355 -0.39
      vertex 1.31372 -0.877801 -0.39
      vertex 1.32288 -0.707094 -0.39
    endloop
  endfacet
  facet normal 0 0 1
    outer loop
      vertex 1.2472 -0.833355 -0.39
      vertex 1.22136 -1.00234 -0.39
      vertex 1.31372 -0.877801 -0.39
    endloop
  endfacet
  facet normal -0 0 1
    outer loop
      vertex 1.15952 -0.95159 -0.39
      vertex 1.22136 -1.00234 -0.39
      vertex 1.2472 -0.833355 -0.39
    endloop
  endfacet
  facet normal 0 0 1
    outer loop
      vertex 1.15952 -0.95159 -0.39
      vertex 1.11723 -1.11723 -0.39
      vertex 1.22136 -1.00234 -0.39
    endloop
  endfacet
  facet normal -0 0 1
    outer loop
      vertex 1.06066 -1.06066 -0.39
      vertex 1.11723 -1.11723 -0.39
      vertex 1.15952 -0.95159 -0.39
    endloop
  endfacet
  facet normal 0 0 1
    outer loop
      vertex 1.06066 -1.06066 -0.39
      vertex 1.00234 -1.22136 -0.39
      vertex 1.11723 -1.11723 -0.39
    endloop
  endfacet
  facet normal -0 0 1
    outer loop
      vertex 0.95159 -1.15952 -0.39
      vertex 1.00234 -1.22136 -0.39
      vertex 1.06066 -1.06066 -0.39
    endloop
  endfacet
  facet normal 0 0 1
    outer loop
      vertex 0.95159 -1.15952 -0.39
      vertex 0.877801 -1.31372 -0.39
      vertex 1.00234 -1.22136 -0.39
    endloop
  endfacet
  facet normal -0 0 1
    outer loop
      vertex 0.833355 -1.2472 -0.39
      vertex 0.877801 -1.31372 -0.39
      vertex 0.95159 -1.15952 -0.39
    endloop
  endfacet
  facet normal 0 0 1
    outer loop
      vertex 0.833355 -1.2472 -0.39
      vertex 0.744806 -1.39344 -0.39
      vertex 0.877801 -1.31372 -0.39
    endloop
  endfacet
  facet normal -0 0 1
    outer loop
      vertex 0.707094 -1.32288 -0.39
      vertex 0.744806 -1.39344 -0.39
      vertex 0.833355 -1.2472 -0.39
    endloop
  endfacet
  facet normal 0 0 1
    outer loop
      vertex 0.707094 -1.32288 -0.39
      vertex 0.604639 -1.45973 -0.39
      vertex 0.744806 -1.39344 -0.39
    endloop
  endfacet
  facet normal -0 0 1
    outer loop
      vertex 0.574024 -1.38582 -0.39
      vertex 0.604639 -1.45973 -0.39
      vertex 0.707094 -1.32288 -0.39
    endloop
  endfacet
  facet normal 0 0 1
    outer loop
      vertex 0.574024 -1.38582 -0.39
      vertex 0.45865 -1.51196 -0.39
      vertex 0.604639 -1.45973 -0.39
    endloop
  endfacet
  facet normal -0 0 1
    outer loop
      vertex 0.435427 -1.43541 -0.39
      vertex 0.45865 -1.51196 -0.39
      vertex 0.574024 -1.38582 -0.39
    endloop
  endfacet
  facet normal 0 0 1
    outer loop
      vertex 0.435427 -1.43541 -0.39
      vertex 0.308242 -1.54964 -0.39
      vertex 0.45865 -1.51196 -0.39
    endloop
  endfacet
  facet normal -0 0 1
    outer loop
      vertex 0.292635 -1.47118 -0.39
      vertex 0.308242 -1.54964 -0.39
      vertex 0.435427 -1.43541 -0.39
    endloop
  endfacet
  facet normal 0 0 1
    outer loop
      vertex 0.292635 -1.47118 -0.39
      vertex 0.154866 -1.57239 -0.39
      vertex 0.308242 -1.54964 -0.39
    endloop
  endfacet
  facet normal -0 0 1
    outer loop
      vertex 0.147025 -1.49278 -0.39
      vertex 0.154866 -1.57239 -0.39
      vertex 0.292635 -1.47118 -0.39
    endloop
  endfacet
  facet normal -0 0 1
    outer loop
      vertex 0 -1.5 -0.39
      vertex 0.154866 -1.57239 -0.39
      vertex 0.147025 -1.49278 -0.39
    endloop
  endfacet
  facet normal 0 0 1
    outer loop
      vertex 0 -1.5 -0.39
      vertex 0 -1.58 -0.39
      vertex 0.154866 -1.57239 -0.39
    endloop
  endfacet
  facet normal 0 0 1
    outer loop
      vertex -0.147025 -1.49278 -0.39
      vertex 0 -1.58 -0.39
      vertex 0 -1.5 -0.39
    endloop
  endfacet
  facet normal 0 0 1
    outer loop
      vertex -0.147025 -1.49278 -0.39
      vertex -0.154866 -1.57239 -0.39
      vertex 0 -1.58 -0.39
    endloop
  endfacet
  facet normal 0 0 1
    outer loop
      vertex -0.292635 -1.47118 -0.39
      vertex -0.154866 -1.57239 -0.39
      vertex -0.147025 -1.49278 -0.39
    endloop
  endfacet
  facet normal 0 0 1
    outer loop
      vertex -0.292635 -1.47118 -0.39
      vertex -0.308242 -1.54964 -0.39
      vertex -0.154866 -1.57239 -0.39
    endloop
  endfacet
  facet normal 0 0 1
    outer loop
      vertex -0.435427 -1.43541 -0.39
      vertex -0.308242 -1.54964 -0.39
      vertex -0.292635 -1.47118 -0.39
    endloop
  endfacet
  facet normal 0 0 1
    outer loop
      vertex -0.435427 -1.43541 -0.39
      vertex -0.45865 -1.51196 -0.39
      vertex -0.308242 -1.54964 -0.39
    endloop
  endfacet
  facet normal 0 0 1
    outer loop
      vertex -0.574024 -1.38582 -0.39
      vertex -0.45865 -1.51196 -0.39
      vertex -0.435427 -1.43541 -0.39
    endloop
  endfacet
  facet normal 0 0 1
    outer loop
      vertex -0.574024 -1.38582 -0.39
      vertex -0.604639 -1.45973 -0.39
      vertex -0.45865 -1.51196 -0.39
    endloop
  endfacet
  facet normal 0 0 1
    outer loop
      vertex -0.707094 -1.32288 -0.39
      vertex -0.604639 -1.45973 -0.39
      vertex -0.574024 -1.38582 -0.39
    endloop
  endfacet
  facet normal 0 0 1
    outer loop
      vertex -0.707094 -1.32288 -0.39
      vertex -0.744806 -1.39344 -0.39
      vertex -0.604639 -1.45973 -0.39
    endloop
  endfacet
  facet normal 0 0 1
    outer loop
      vertex -0.833355 -1.2472 -0.39
      vertex -0.744806 -1.39344 -0.39
      vertex -0.707094 -1.32288 -0.39
    endloop
  endfacet
  facet normal 0 0 1
    outer loop
      vertex -0.833355 -1.2472 -0.39
      vertex -0.877801 -1.31372 -0.39
      vertex -0.744806 -1.39344 -0.39
    endloop
  endfacet
  facet normal 0 0 1
    outer loop
      vertex -0.95159 -1.15952 -0.39
      vertex -0.877801 -1.31372 -0.39
      vertex -0.833355 -1.2472 -0.39
    endloop
  endfacet
  facet normal 0 0 1
    outer loop
      vertex -0.95159 -1.15952 -0.39
      vertex -1.00234 -1.22136 -0.39
      vertex -0.877801 -1.31372 -0.39
    endloop
  endfacet
  facet normal 0 0 1
    outer loop
      vertex -1.06066 -1.06066 -0.39
      vertex -1.00234 -1.22136 -0.39
      vertex -0.95159 -1.15952 -0.39
    endloop
  endfacet
  facet normal 0 0 1
    outer loop
      vertex -1.06066 -1.06066 -0.39
      vertex -1.11723 -1.11723 -0.39
      vertex -1.00234 -1.22136 -0.39
    endloop
  endfacet
  facet normal 0 0 1
    outer loop
      vertex -1.15952 -0.95159 -0.39
      vertex -1.11723 -1.11723 -0.39
      vertex -1.06066 -1.06066 -0.39
    endloop
  endfacet
  facet normal 0 0 1
    outer loop
      vertex -1.15952 -0.95159 -0.39
      vertex -1.22136 -1.00234 -0.39
      vertex -1.11723 -1.11723 -0.39
    endloop
  endfacet
  facet normal 0 0 1
    outer loop
      vertex -1.2472 -0.833355 -0.39
      vertex -1.22136 -1.00234 -0.39
      vertex -1.15952 -0.95159 -0.39
    endloop
  endfacet
  facet normal 0 0 1
    outer loop
      vertex -1.2472 -0.833355 -0.39
      vertex -1.31372 -0.877801 -0.39
      vertex -1.22136 -1.00234 -0.39
    endloop
  endfacet
  facet normal 0 0 1
    outer loop
      vertex -1.32288 -0.707094 -0.39
      vertex -1.31372 -0.877801 -0.39
      vertex -1.2472 -0.833355 -0.39
    endloop
  endfacet
  facet normal 0 0 1
    outer loop
      vertex -1.39344 -0.744806 -0.39
      vertex -1.32288 -0.707094 -0.39
      vertex -1.38582 -0.574024 -0.39
    endloop
  endfacet
  facet normal 0 0 1
    outer loop
      vertex -1.32288 -0.707094 -0.39
      vertex -1.39344 -0.744806 -0.39
      vertex -1.31372 -0.877801 -0.39
    endloop
  endfacet
  facet normal 0 0 1
    outer loop
      vertex -1.45973 -0.604639 -0.39
      vertex -1.38582 -0.574024 -0.39
      vertex -1.43541 -0.435427 -0.39
    endloop
  endfacet
  facet normal 0 0 1
    outer loop
      vertex -1.38582 -0.574024 -0.39
      vertex -1.45973 -0.604639 -0.39
      vertex -1.39344 -0.744806 -0.39
    endloop
  endfacet
  facet normal 0 0 1
    outer loop
      vertex -1.51196 -0.45865 -0.39
      vertex -1.43541 -0.435427 -0.39
      vertex -1.47118 -0.292635 -0.39
    endloop
  endfacet
  facet normal 0 0 1
    outer loop
      vertex -1.54964 -0.308242 -0.39
      vertex -1.47118 -0.292635 -0.39
      vertex -1.49278 -0.147025 -0.39
    endloop
  endfacet
  facet normal 0 0 1
    outer loop
      vertex -1.43541 -0.435427 -0.39
      vertex -1.51196 -0.45865 -0.39
      vertex -1.45973 -0.604639 -0.39
    endloop
  endfacet
  facet normal 0 0 1
    outer loop
      vertex -1.57239 -0.154866 -0.39
      vertex -1.49278 -0.147025 -0.39
      vertex -1.5 0 -0.39
    endloop
  endfacet
  facet normal -0 0 1
    outer loop
      vertex -1.57239 0.154866 -0.39
      vertex -1.49278 0.147025 -0.39
      vertex -1.54964 0.308242 -0.39
    endloop
  endfacet
  facet normal 0 0 1
    outer loop
      vertex -1.49278 0.147025 -0.39
      vertex -1.57239 0.154866 -0.39
      vertex -1.5 0 -0.39
    endloop
  endfacet
  facet normal 0 0 1
    outer loop
      vertex -1.47118 -0.292635 -0.39
      vertex -1.54964 -0.308242 -0.39
      vertex -1.51196 -0.45865 -0.39
    endloop
  endfacet
  facet normal 0 0 1
    outer loop
      vertex -1.58 0 -0.39
      vertex -1.5 0 -0.39
      vertex -1.57239 0.154866 -0.39
    endloop
  endfacet
  facet normal 0 0 1
    outer loop
      vertex -1.49278 -0.147025 -0.39
      vertex -1.57239 -0.154866 -0.39
      vertex -1.54964 -0.308242 -0.39
    endloop
  endfacet
  facet normal 0 0 1
    outer loop
      vertex -1.5 0 -0.39
      vertex -1.58 0 -0.39
      vertex -1.57239 -0.154866 -0.39
    endloop
  endfacet
  facet normal -0.195085 -0.980786 0
    outer loop
      vertex -0.646734 -1.56136 -6.3
      vertex 0 -1.69 -0.88
      vertex -0.646734 -1.56136 -0.88
    endloop
  endfacet
  facet normal -0.195085 -0.980786 -0
    outer loop
      vertex 0 -1.69 -0.88
      vertex -0.646734 -1.56136 -6.3
      vertex 0 -1.69 -6.3
    endloop
  endfacet
  facet normal 0.195085 -0.980786 0
    outer loop
      vertex 0 -1.69 -6.3
      vertex 0.646734 -1.56136 -0.88
      vertex 0 -1.69 -0.88
    endloop
  endfacet
  facet normal 0.195085 -0.980786 0
    outer loop
      vertex 0.646734 -1.56136 -0.88
      vertex 0 -1.69 -6.3
      vertex 0.646734 -1.56136 -6.3
    endloop
  endfacet
  facet normal 0.555574 -0.831467 0
    outer loop
      vertex 0.646734 -1.56136 -6.3
      vertex 1.19501 -1.19501 -0.88
      vertex 0.646734 -1.56136 -0.88
    endloop
  endfacet
  facet normal 0.555574 -0.831467 0
    outer loop
      vertex 1.19501 -1.19501 -0.88
      vertex 0.646734 -1.56136 -6.3
      vertex 1.19501 -1.19501 -6.3
    endloop
  endfacet
  facet normal -0.831467 0.555574 0
    outer loop
      vertex -1.56136 0.646734 -6.3
      vertex -1.19501 1.19501 -0.88
      vertex -1.19501 1.19501 -6.3
    endloop
  endfacet
  facet normal -0.831467 0.555574 0
    outer loop
      vertex -1.19501 1.19501 -0.88
      vertex -1.56136 0.646734 -6.3
      vertex -1.56136 0.646734 -0.88
    endloop
  endfacet
  facet normal 0 0 -1
    outer loop
      vertex 1.47118 -0.292635 -6.3
      vertex 1.69 0 -6.3
      vertex 1.56136 -0.646734 -6.3
    endloop
  endfacet
  facet normal 0 0 -1
    outer loop
      vertex 1.49278 0.147025 -6.3
      vertex 1.69 0 -6.3
      vertex 1.5 0 -6.3
    endloop
  endfacet
  facet normal -0 0 -1
    outer loop
      vertex 1.69 0 -6.3
      vertex 1.49278 -0.147025 -6.3
      vertex 1.5 0 -6.3
    endloop
  endfacet
  facet normal 0 0 -1
    outer loop
      vertex 1.69 0 -6.3
      vertex 1.47118 -0.292635 -6.3
      vertex 1.49278 -0.147025 -6.3
    endloop
  endfacet
  facet normal 0 0 -1
    outer loop
      vertex 1.56136 -0.646734 -6.3
      vertex 1.43541 -0.435427 -6.3
      vertex 1.47118 -0.292635 -6.3
    endloop
  endfacet
  facet normal 0 0 -1
    outer loop
      vertex 1.56136 -0.646734 -6.3
      vertex 1.38582 -0.574024 -6.3
      vertex 1.43541 -0.435427 -6.3
    endloop
  endfacet
  facet normal -0 0 -1
    outer loop
      vertex 1.56136 -0.646734 -6.3
      vertex 1.32288 -0.707094 -6.3
      vertex 1.38582 -0.574024 -6.3
    endloop
  endfacet
  facet normal 0 0 -1
    outer loop
      vertex 1.56136 -0.646734 -6.3
      vertex 1.2472 -0.833355 -6.3
      vertex 1.32288 -0.707094 -6.3
    endloop
  endfacet
  facet normal 0 0 -1
    outer loop
      vertex 1.19501 -1.19501 -6.3
      vertex 1.2472 -0.833355 -6.3
      vertex 1.56136 -0.646734 -6.3
    endloop
  endfacet
  facet normal 0 0 -1
    outer loop
      vertex 1.19501 -1.19501 -6.3
      vertex 1.15952 -0.95159 -6.3
      vertex 1.2472 -0.833355 -6.3
    endloop
  endfacet
  facet normal 0 0 -1
    outer loop
      vertex 1.19501 -1.19501 -6.3
      vertex 1.06066 -1.06066 -6.3
      vertex 1.15952 -0.95159 -6.3
    endloop
  endfacet
  facet normal 0 0 -1
    outer loop
      vertex 1.19501 -1.19501 -6.3
      vertex 0.95159 -1.15952 -6.3
      vertex 1.06066 -1.06066 -6.3
    endloop
  endfacet
  facet normal -0 0 -1
    outer loop
      vertex 1.19501 -1.19501 -6.3
      vertex 0.833355 -1.2472 -6.3
      vertex 0.95159 -1.15952 -6.3
    endloop
  endfacet
  facet normal 0 0 -1
    outer loop
      vertex 0.646734 -1.56136 -6.3
      vertex 0.833355 -1.2472 -6.3
      vertex 1.19501 -1.19501 -6.3
    endloop
  endfacet
  facet normal 0 0 -1
    outer loop
      vertex 0.833355 -1.2472 -6.3
      vertex 0.646734 -1.56136 -6.3
      vertex 0.707094 -1.32288 -6.3
    endloop
  endfacet
  facet normal 0 0 -1
    outer loop
      vertex 0.646734 -1.56136 -6.3
      vertex 0.574024 -1.38582 -6.3
      vertex 0.707094 -1.32288 -6.3
    endloop
  endfacet
  facet normal 0 0 -1
    outer loop
      vertex 0.646734 -1.56136 -6.3
      vertex 0.435427 -1.43541 -6.3
      vertex 0.574024 -1.38582 -6.3
    endloop
  endfacet
  facet normal 0 0 -1
    outer loop
      vertex 0.646734 -1.56136 -6.3
      vertex 0.292635 -1.47118 -6.3
      vertex 0.435427 -1.43541 -6.3
    endloop
  endfacet
  facet normal 0 0 -1
    outer loop
      vertex 0 -1.69 -6.3
      vertex 0.292635 -1.47118 -6.3
      vertex 0.646734 -1.56136 -6.3
    endloop
  endfacet
  facet normal 0 0 -1
    outer loop
      vertex 0.292635 -1.47118 -6.3
      vertex 0 -1.69 -6.3
      vertex 0.147025 -1.49278 -6.3
    endloop
  endfacet
  facet normal 0 0 -1
    outer loop
      vertex 0 -1.69 -6.3
      vertex 0 -1.5 -6.3
      vertex 0.147025 -1.49278 -6.3
    endloop
  endfacet
  facet normal 0 0 -1
    outer loop
      vertex 0 -1.69 -6.3
      vertex -0.147025 -1.49278 -6.3
      vertex 0 -1.5 -6.3
    endloop
  endfacet
  facet normal 0 0 -1
    outer loop
      vertex 0 -1.69 -6.3
      vertex -0.292635 -1.47118 -6.3
      vertex -0.147025 -1.49278 -6.3
    endloop
  endfacet
  facet normal 0 0 -1
    outer loop
      vertex -0.646734 -1.56136 -6.3
      vertex -0.292635 -1.47118 -6.3
      vertex 0 -1.69 -6.3
    endloop
  endfacet
  facet normal -0 0 -1
    outer loop
      vertex -0.292635 -1.47118 -6.3
      vertex -0.646734 -1.56136 -6.3
      vertex -0.435427 -1.43541 -6.3
    endloop
  endfacet
  facet normal -0 0 -1
    outer loop
      vertex -0.435427 -1.43541 -6.3
      vertex -0.646734 -1.56136 -6.3
      vertex -0.574024 -1.38582 -6.3
    endloop
  endfacet
  facet normal 0 0 -1
    outer loop
      vertex -0.646734 -1.56136 -6.3
      vertex -0.707094 -1.32288 -6.3
      vertex -0.574024 -1.38582 -6.3
    endloop
  endfacet
  facet normal 0 0 -1
    outer loop
      vertex -0.646734 -1.56136 -6.3
      vertex -0.833355 -1.2472 -6.3
      vertex -0.707094 -1.32288 -6.3
    endloop
  endfacet
  facet normal 0 0 -1
    outer loop
      vertex -1.19501 -1.19501 -6.3
      vertex -0.833355 -1.2472 -6.3
      vertex -0.646734 -1.56136 -6.3
    endloop
  endfacet
  facet normal 0 0 -1
    outer loop
      vertex -0.833355 -1.2472 -6.3
      vertex -1.19501 -1.19501 -6.3
      vertex -0.95159 -1.15952 -6.3
    endloop
  endfacet
  facet normal -0 0 -1
    outer loop
      vertex -0.95159 -1.15952 -6.3
      vertex -1.19501 -1.19501 -6.3
      vertex -1.06066 -1.06066 -6.3
    endloop
  endfacet
  facet normal -0 0 -1
    outer loop
      vertex -1.06066 -1.06066 -6.3
      vertex -1.19501 -1.19501 -6.3
      vertex -1.15952 -0.95159 -6.3
    endloop
  endfacet
  facet normal 0 0 -1
    outer loop
      vertex -1.19501 -1.19501 -6.3
      vertex -1.2472 -0.833355 -6.3
      vertex -1.15952 -0.95159 -6.3
    endloop
  endfacet
  facet normal 0 0 -1
    outer loop
      vertex -1.56136 -0.646734 -6.3
      vertex -1.2472 -0.833355 -6.3
      vertex -1.19501 -1.19501 -6.3
    endloop
  endfacet
  facet normal 0 0 -1
    outer loop
      vertex -1.2472 -0.833355 -6.3
      vertex -1.56136 -0.646734 -6.3
      vertex -1.32288 -0.707094 -6.3
    endloop
  endfacet
  facet normal 0 0 -1
    outer loop
      vertex -1.32288 -0.707094 -6.3
      vertex -1.56136 -0.646734 -6.3
      vertex -1.38582 -0.574024 -6.3
    endloop
  endfacet
  facet normal 0 0 -1
    outer loop
      vertex -1.47118 -0.292635 -6.3
      vertex -1.69 0 -6.3
      vertex -1.49278 -0.147025 -6.3
    endloop
  endfacet
  facet normal 0 0 -1
    outer loop
      vertex -1.69 0 -6.3
      vertex -1.47118 -0.292635 -6.3
      vertex -1.56136 -0.646734 -6.3
    endloop
  endfacet
  facet normal -0 0 -1
    outer loop
      vertex -1.43541 -0.435427 -6.3
      vertex -1.56136 -0.646734 -6.3
      vertex -1.47118 -0.292635 -6.3
    endloop
  endfacet
  facet normal -0 0 -1
    outer loop
      vertex -1.38582 -0.574024 -6.3
      vertex -1.56136 -0.646734 -6.3
      vertex -1.43541 -0.435427 -6.3
    endloop
  endfacet
  facet normal 0 0 -1
    outer loop
      vertex 1.47118 0.292635 -6.3
      vertex 1.69 0 -6.3
      vertex 1.49278 0.147025 -6.3
    endloop
  endfacet
  facet normal 0 0 -1
    outer loop
      vertex 1.69 0 -6.3
      vertex 1.47118 0.292635 -6.3
      vertex 1.56136 0.646734 -6.3
    endloop
  endfacet
  facet normal 0 0 -1
    outer loop
      vertex 1.43541 0.435427 -6.3
      vertex 1.56136 0.646734 -6.3
      vertex 1.47118 0.292635 -6.3
    endloop
  endfacet
  facet normal 0 0 -1
    outer loop
      vertex 1.38582 0.574024 -6.3
      vertex 1.56136 0.646734 -6.3
      vertex 1.43541 0.435427 -6.3
    endloop
  endfacet
  facet normal 0 0 -1
    outer loop
      vertex 1.32288 0.707094 -6.3
      vertex 1.56136 0.646734 -6.3
      vertex 1.38582 0.574024 -6.3
    endloop
  endfacet
  facet normal 0 0 -1
    outer loop
      vertex 1.2472 0.833355 -6.3
      vertex 1.56136 0.646734 -6.3
      vertex 1.32288 0.707094 -6.3
    endloop
  endfacet
  facet normal 0 0 -1
    outer loop
      vertex 1.2472 0.833355 -6.3
      vertex 1.19501 1.19501 -6.3
      vertex 1.56136 0.646734 -6.3
    endloop
  endfacet
  facet normal 0 0 -1
    outer loop
      vertex 1.15952 0.95159 -6.3
      vertex 1.19501 1.19501 -6.3
      vertex 1.2472 0.833355 -6.3
    endloop
  endfacet
  facet normal 0 0 -1
    outer loop
      vertex 1.06066 1.06066 -6.3
      vertex 1.19501 1.19501 -6.3
      vertex 1.15952 0.95159 -6.3
    endloop
  endfacet
  facet normal 0 0 -1
    outer loop
      vertex 0.95159 1.15952 -6.3
      vertex 1.19501 1.19501 -6.3
      vertex 1.06066 1.06066 -6.3
    endloop
  endfacet
  facet normal 0 0 -1
    outer loop
      vertex 0.833355 1.2472 -6.3
      vertex 1.19501 1.19501 -6.3
      vertex 0.95159 1.15952 -6.3
    endloop
  endfacet
  facet normal 0 0 -1
    outer loop
      vertex 0.646734 1.56136 -6.3
      vertex 0.833355 1.2472 -6.3
      vertex 0.707094 1.32288 -6.3
    endloop
  endfacet
  facet normal 0 0 -1
    outer loop
      vertex 0.833355 1.2472 -6.3
      vertex 0.646734 1.56136 -6.3
      vertex 1.19501 1.19501 -6.3
    endloop
  endfacet
  facet normal 0 0 -1
    outer loop
      vertex 0.574024 1.38582 -6.3
      vertex 0.646734 1.56136 -6.3
      vertex 0.707094 1.32288 -6.3
    endloop
  endfacet
  facet normal 0 0 -1
    outer loop
      vertex 0.435427 1.43541 -6.3
      vertex 0.646734 1.56136 -6.3
      vertex 0.574024 1.38582 -6.3
    endloop
  endfacet
  facet normal 0 0 -1
    outer loop
      vertex 0.292635 1.47118 -6.3
      vertex 0.646734 1.56136 -6.3
      vertex 0.435427 1.43541 -6.3
    endloop
  endfacet
  facet normal 0 0 -1
    outer loop
      vertex 0 1.69 -6.3
      vertex 0.292635 1.47118 -6.3
      vertex 0.147025 1.49278 -6.3
    endloop
  endfacet
  facet normal 0 0 -1
    outer loop
      vertex 0 1.69 -6.3
      vertex 0.147025 1.49278 -6.3
      vertex 0 1.5 -6.3
    endloop
  endfacet
  facet normal 0 0 -1
    outer loop
      vertex 0.292635 1.47118 -6.3
      vertex 0 1.69 -6.3
      vertex 0.646734 1.56136 -6.3
    endloop
  endfacet
  facet normal 0 0 -1
    outer loop
      vertex -0.147025 1.49278 -6.3
      vertex 0 1.69 -6.3
      vertex 0 1.5 -6.3
    endloop
  endfacet
  facet normal 0 0 -1
    outer loop
      vertex -0.292635 1.47118 -6.3
      vertex 0 1.69 -6.3
      vertex -0.147025 1.49278 -6.3
    endloop
  endfacet
  facet normal 0 0 -1
    outer loop
      vertex -0.646734 1.56136 -6.3
      vertex -0.292635 1.47118 -6.3
      vertex -0.435427 1.43541 -6.3
    endloop
  endfacet
  facet normal 0 0 -1
    outer loop
      vertex -0.646734 1.56136 -6.3
      vertex -0.435427 1.43541 -6.3
      vertex -0.574024 1.38582 -6.3
    endloop
  endfacet
  facet normal 0 0 -1
    outer loop
      vertex -0.292635 1.47118 -6.3
      vertex -0.646734 1.56136 -6.3
      vertex 0 1.69 -6.3
    endloop
  endfacet
  facet normal 0 0 -1
    outer loop
      vertex -0.707094 1.32288 -6.3
      vertex -0.646734 1.56136 -6.3
      vertex -0.574024 1.38582 -6.3
    endloop
  endfacet
  facet normal 0 0 -1
    outer loop
      vertex -0.833355 1.2472 -6.3
      vertex -0.646734 1.56136 -6.3
      vertex -0.707094 1.32288 -6.3
    endloop
  endfacet
  facet normal 0 0 -1
    outer loop
      vertex -1.19501 1.19501 -6.3
      vertex -0.833355 1.2472 -6.3
      vertex -0.95159 1.15952 -6.3
    endloop
  endfacet
  facet normal 0 0 -1
    outer loop
      vertex -1.19501 1.19501 -6.3
      vertex -0.95159 1.15952 -6.3
      vertex -1.06066 1.06066 -6.3
    endloop
  endfacet
  facet normal 0 0 -1
    outer loop
      vertex -1.19501 1.19501 -6.3
      vertex -1.06066 1.06066 -6.3
      vertex -1.15952 0.95159 -6.3
    endloop
  endfacet
  facet normal -0 0 -1
    outer loop
      vertex -0.833355 1.2472 -6.3
      vertex -1.19501 1.19501 -6.3
      vertex -0.646734 1.56136 -6.3
    endloop
  endfacet
  facet normal 0 0 -1
    outer loop
      vertex -1.2472 0.833355 -6.3
      vertex -1.19501 1.19501 -6.3
      vertex -1.15952 0.95159 -6.3
    endloop
  endfacet
  facet normal 0 0 -1
    outer loop
      vertex -1.56136 0.646734 -6.3
      vertex -1.2472 0.833355 -6.3
      vertex -1.32288 0.707094 -6.3
    endloop
  endfacet
  facet normal 0 0 -1
    outer loop
      vertex -1.56136 0.646734 -6.3
      vertex -1.32288 0.707094 -6.3
      vertex -1.38582 0.574024 -6.3
    endloop
  endfacet
  facet normal 0 0 -1
    outer loop
      vertex -1.56136 0.646734 -6.3
      vertex -1.38582 0.574024 -6.3
      vertex -1.43541 0.435427 -6.3
    endloop
  endfacet
  facet normal 0 0 -1
    outer loop
      vertex -1.49278 -0.147025 -6.3
      vertex -1.69 0 -6.3
      vertex -1.5 0 -6.3
    endloop
  endfacet
  facet normal -0 0 -1
    outer loop
      vertex -1.2472 0.833355 -6.3
      vertex -1.56136 0.646734 -6.3
      vertex -1.19501 1.19501 -6.3
    endloop
  endfacet
  facet normal 0 0 -1
    outer loop
      vertex -1.47118 0.292635 -6.3
      vertex -1.56136 0.646734 -6.3
      vertex -1.43541 0.435427 -6.3
    endloop
  endfacet
  facet normal 0 0 -1
    outer loop
      vertex -1.69 0 -6.3
      vertex -1.47118 0.292635 -6.3
      vertex -1.49278 0.147025 -6.3
    endloop
  endfacet
  facet normal 0 0 -1
    outer loop
      vertex -1.5 0 -6.3
      vertex -1.69 0 -6.3
      vertex -1.49278 0.147025 -6.3
    endloop
  endfacet
  facet normal -0 0 -1
    outer loop
      vertex -1.47118 0.292635 -6.3
      vertex -1.69 0 -6.3
      vertex -1.56136 0.646734 -6.3
    endloop
  endfacet
  facet normal -0.980786 0.195085 0
    outer loop
      vertex -1.69 0 -6.3
      vertex -1.56136 0.646734 -0.88
      vertex -1.56136 0.646734 -6.3
    endloop
  endfacet
  facet normal -0.980786 0.195085 0
    outer loop
      vertex -1.56136 0.646734 -0.88
      vertex -1.69 0 -6.3
      vertex -1.69 0 -0.88
    endloop
  endfacet
  facet normal -0.555574 0.831467 0
    outer loop
      vertex -0.646734 1.56136 -6.3
      vertex -1.19501 1.19501 -0.88
      vertex -0.646734 1.56136 -0.88
    endloop
  endfacet
  facet normal -0.555574 0.831467 0
    outer loop
      vertex -1.19501 1.19501 -0.88
      vertex -0.646734 1.56136 -6.3
      vertex -1.19501 1.19501 -6.3
    endloop
  endfacet
  facet normal -0.989176 0.146736 0
    outer loop
      vertex 1.47118 -0.292635 -6.3
      vertex 1.49278 -0.147025 -0.39
      vertex 1.49278 -0.147025 -6.3
    endloop
  endfacet
  facet normal -0.989176 0.146736 0
    outer loop
      vertex 1.49278 -0.147025 -0.39
      vertex 1.47118 -0.292635 -6.3
      vertex 1.47118 -0.292635 -0.39
    endloop
  endfacet
  facet normal -0.998796 0.0490482 0
    outer loop
      vertex 1.49278 -0.147025 -6.3
      vertex 1.5 0 -0.39
      vertex 1.5 0 -6.3
    endloop
  endfacet
  facet normal -0.998796 0.0490482 0
    outer loop
      vertex 1.5 0 -0.39
      vertex 1.49278 -0.147025 -6.3
      vertex 1.49278 -0.147025 -0.39
    endloop
  endfacet
  facet normal -0.970027 0.242996 0
    outer loop
      vertex 1.43541 -0.435427 -6.3
      vertex 1.47118 -0.292635 -0.39
      vertex 1.47118 -0.292635 -6.3
    endloop
  endfacet
  facet normal -0.970027 0.242996 0
    outer loop
      vertex 1.47118 -0.292635 -0.39
      vertex 1.43541 -0.435427 -6.3
      vertex 1.43541 -0.435427 -0.39
    endloop
  endfacet
  facet normal -0.427569 -0.903983 0
    outer loop
      vertex 0.574024 1.38582 -6.3
      vertex 0.707094 1.32288 -0.39
      vertex 0.574024 1.38582 -0.39
    endloop
  endfacet
  facet normal -0.427569 -0.903983 -0
    outer loop
      vertex 0.707094 1.32288 -0.39
      vertex 0.574024 1.38582 -6.3
      vertex 0.707094 1.32288 -6.3
    endloop
  endfacet
  facet normal 0.59566 0.803237 -0
    outer loop
      vertex -0.833355 -1.2472 -6.3
      vertex -0.95159 -1.15952 -0.39
      vertex -0.833355 -1.2472 -0.39
    endloop
  endfacet
  facet normal 0.59566 0.803237 0
    outer loop
      vertex -0.95159 -1.15952 -0.39
      vertex -0.833355 -1.2472 -6.3
      vertex -0.95159 -1.15952 -6.3
    endloop
  endfacet
  facet normal 0.903983 0.427569 0
    outer loop
      vertex -1.32288 -0.707094 -0.39
      vertex -1.38582 -0.574024 -6.3
      vertex -1.38582 -0.574024 -0.39
    endloop
  endfacet
  facet normal 0.903983 0.427569 0
    outer loop
      vertex -1.38582 -0.574024 -6.3
      vertex -1.32288 -0.707094 -0.39
      vertex -1.32288 -0.707094 -6.3
    endloop
  endfacet
  facet normal 0.970027 0.242996 0
    outer loop
      vertex -1.43541 -0.435427 -0.39
      vertex -1.47118 -0.292635 -6.3
      vertex -1.47118 -0.292635 -0.39
    endloop
  endfacet
  facet normal 0.970027 0.242996 0
    outer loop
      vertex -1.47118 -0.292635 -6.3
      vertex -1.43541 -0.435427 -0.39
      vertex -1.43541 -0.435427 -6.3
    endloop
  endfacet
  facet normal -0.514113 -0.857722 0
    outer loop
      vertex 0.707094 1.32288 -6.3
      vertex 0.833355 1.2472 -0.39
      vertex 0.707094 1.32288 -0.39
    endloop
  endfacet
  facet normal -0.514113 -0.857722 -0
    outer loop
      vertex 0.833355 1.2472 -0.39
      vertex 0.707094 1.32288 -6.3
      vertex 0.833355 1.2472 -6.3
    endloop
  endfacet
  facet normal -0.242996 -0.970027 0
    outer loop
      vertex 0.292635 1.47118 -6.3
      vertex 0.435427 1.43541 -0.39
      vertex 0.292635 1.47118 -0.39
    endloop
  endfacet
  facet normal -0.242996 -0.970027 -0
    outer loop
      vertex 0.435427 1.43541 -0.39
      vertex 0.292635 1.47118 -6.3
      vertex 0.435427 1.43541 -6.3
    endloop
  endfacet
  facet normal -0.0490482 0.998796 0
    outer loop
      vertex 0.147025 -1.49278 -6.3
      vertex 0 -1.5 -0.39
      vertex 0.147025 -1.49278 -0.39
    endloop
  endfacet
  facet normal -0.0490482 0.998796 0
    outer loop
      vertex 0 -1.5 -0.39
      vertex 0.147025 -1.49278 -6.3
      vertex 0 -1.5 -6.3
    endloop
  endfacet
  facet normal -0.146736 0.989176 0
    outer loop
      vertex 0.292635 -1.47118 -6.3
      vertex 0.147025 -1.49278 -0.39
      vertex 0.292635 -1.47118 -0.39
    endloop
  endfacet
  facet normal -0.146736 0.989176 0
    outer loop
      vertex 0.147025 -1.49278 -0.39
      vertex 0.292635 -1.47118 -6.3
      vertex 0.147025 -1.49278 -6.3
    endloop
  endfacet
  facet normal -0.427569 0.903983 0
    outer loop
      vertex 0.707094 -1.32288 -6.3
      vertex 0.574024 -1.38582 -0.39
      vertex 0.707094 -1.32288 -0.39
    endloop
  endfacet
  facet normal -0.427569 0.903983 0
    outer loop
      vertex 0.574024 -1.38582 -0.39
      vertex 0.707094 -1.32288 -6.3
      vertex 0.574024 -1.38582 -6.3
    endloop
  endfacet
  facet normal -0.146736 -0.989176 0
    outer loop
      vertex 0.147025 1.49278 -6.3
      vertex 0.292635 1.47118 -0.39
      vertex 0.147025 1.49278 -0.39
    endloop
  endfacet
  facet normal -0.146736 -0.989176 -0
    outer loop
      vertex 0.292635 1.47118 -0.39
      vertex 0.147025 1.49278 -6.3
      vertex 0.292635 1.47118 -6.3
    endloop
  endfacet
  facet normal -0.803237 -0.59566 0
    outer loop
      vertex 1.2472 0.833355 -6.3
      vertex 1.15952 0.95159 -0.39
      vertex 1.15952 0.95159 -6.3
    endloop
  endfacet
  facet normal -0.803237 -0.59566 0
    outer loop
      vertex 1.15952 0.95159 -0.39
      vertex 1.2472 0.833355 -6.3
      vertex 1.2472 0.833355 -0.39
    endloop
  endfacet
  facet normal 0.740935 -0.671577 0
    outer loop
      vertex -1.15952 0.95159 -0.39
      vertex -1.06066 1.06066 -6.3
      vertex -1.06066 1.06066 -0.39
    endloop
  endfacet
  facet normal 0.740935 -0.671577 0
    outer loop
      vertex -1.06066 1.06066 -6.3
      vertex -1.15952 0.95159 -0.39
      vertex -1.15952 0.95159 -6.3
    endloop
  endfacet
  facet normal 0.514113 0.857722 -0
    outer loop
      vertex -0.707094 -1.32288 -6.3
      vertex -0.833355 -1.2472 -0.39
      vertex -0.707094 -1.32288 -0.39
    endloop
  endfacet
  facet normal 0.514113 0.857722 0
    outer loop
      vertex -0.833355 -1.2472 -0.39
      vertex -0.707094 -1.32288 -6.3
      vertex -0.833355 -1.2472 -6.3
    endloop
  endfacet
  facet normal -0.989176 -0.146736 0
    outer loop
      vertex 1.49278 0.147025 -6.3
      vertex 1.47118 0.292635 -0.39
      vertex 1.47118 0.292635 -6.3
    endloop
  endfacet
  facet normal -0.989176 -0.146736 0
    outer loop
      vertex 1.47118 0.292635 -0.39
      vertex 1.49278 0.147025 -6.3
      vertex 1.49278 0.147025 -0.39
    endloop
  endfacet
  facet normal 0.146736 -0.989176 0
    outer loop
      vertex -0.292635 1.47118 -6.3
      vertex -0.147025 1.49278 -0.39
      vertex -0.292635 1.47118 -0.39
    endloop
  endfacet
  facet normal 0.146736 -0.989176 0
    outer loop
      vertex -0.147025 1.49278 -0.39
      vertex -0.292635 1.47118 -6.3
      vertex -0.147025 1.49278 -6.3
    endloop
  endfacet
  facet normal -0.59566 -0.803237 0
    outer loop
      vertex 0.833355 1.2472 -6.3
      vertex 0.95159 1.15952 -0.39
      vertex 0.833355 1.2472 -0.39
    endloop
  endfacet
  facet normal -0.59566 -0.803237 -0
    outer loop
      vertex 0.95159 1.15952 -0.39
      vertex 0.833355 1.2472 -6.3
      vertex 0.95159 1.15952 -6.3
    endloop
  endfacet
  facet normal 0.0490482 -0.998796 0
    outer loop
      vertex -0.147025 1.49278 -6.3
      vertex 0 1.5 -0.39
      vertex -0.147025 1.49278 -0.39
    endloop
  endfacet
  facet normal 0.0490482 -0.998796 0
    outer loop
      vertex 0 1.5 -0.39
      vertex -0.147025 1.49278 -6.3
      vertex 0 1.5 -6.3
    endloop
  endfacet
  facet normal -0.59566 0.803237 0
    outer loop
      vertex 0.95159 -1.15952 -6.3
      vertex 0.833355 -1.2472 -0.39
      vertex 0.95159 -1.15952 -0.39
    endloop
  endfacet
  facet normal -0.59566 0.803237 0
    outer loop
      vertex 0.833355 -1.2472 -0.39
      vertex 0.95159 -1.15952 -6.3
      vertex 0.833355 -1.2472 -6.3
    endloop
  endfacet
  facet normal -0.970027 -0.242996 0
    outer loop
      vertex 1.47118 0.292635 -6.3
      vertex 1.43541 0.435427 -0.39
      vertex 1.43541 0.435427 -6.3
    endloop
  endfacet
  facet normal -0.970027 -0.242996 0
    outer loop
      vertex 1.43541 0.435427 -0.39
      vertex 1.47118 0.292635 -6.3
      vertex 1.47118 0.292635 -0.39
    endloop
  endfacet
  facet normal 0.989176 0.146736 0
    outer loop
      vertex -1.47118 -0.292635 -0.39
      vertex -1.49278 -0.147025 -6.3
      vertex -1.49278 -0.147025 -0.39
    endloop
  endfacet
  facet normal 0.989176 0.146736 0
    outer loop
      vertex -1.49278 -0.147025 -6.3
      vertex -1.47118 -0.292635 -0.39
      vertex -1.47118 -0.292635 -6.3
    endloop
  endfacet
  facet normal 0.857722 0.514113 0
    outer loop
      vertex -1.2472 -0.833355 -0.39
      vertex -1.32288 -0.707094 -6.3
      vertex -1.32288 -0.707094 -0.39
    endloop
  endfacet
  facet normal 0.857722 0.514113 0
    outer loop
      vertex -1.32288 -0.707094 -6.3
      vertex -1.2472 -0.833355 -0.39
      vertex -1.2472 -0.833355 -6.3
    endloop
  endfacet
  facet normal 0.941546 -0.336885 0
    outer loop
      vertex -1.43541 0.435427 -0.39
      vertex -1.38582 0.574024 -6.3
      vertex -1.38582 0.574024 -0.39
    endloop
  endfacet
  facet normal 0.941546 -0.336885 0
    outer loop
      vertex -1.38582 0.574024 -6.3
      vertex -1.43541 0.435427 -0.39
      vertex -1.43541 0.435427 -6.3
    endloop
  endfacet
  facet normal 0.146736 0.989176 -0
    outer loop
      vertex -0.147025 -1.49278 -6.3
      vertex -0.292635 -1.47118 -0.39
      vertex -0.147025 -1.49278 -0.39
    endloop
  endfacet
  facet normal 0.146736 0.989176 0
    outer loop
      vertex -0.292635 -1.47118 -0.39
      vertex -0.147025 -1.49278 -6.3
      vertex -0.292635 -1.47118 -6.3
    endloop
  endfacet
  facet normal -0.803237 0.59566 0
    outer loop
      vertex 1.15952 -0.95159 -6.3
      vertex 1.2472 -0.833355 -0.39
      vertex 1.2472 -0.833355 -6.3
    endloop
  endfacet
  facet normal -0.803237 0.59566 0
    outer loop
      vertex 1.2472 -0.833355 -0.39
      vertex 1.15952 -0.95159 -6.3
      vertex 1.15952 -0.95159 -0.39
    endloop
  endfacet
  facet normal 0.970027 -0.242996 0
    outer loop
      vertex -1.47118 0.292635 -0.39
      vertex -1.43541 0.435427 -6.3
      vertex -1.43541 0.435427 -0.39
    endloop
  endfacet
  facet normal 0.970027 -0.242996 0
    outer loop
      vertex -1.43541 0.435427 -6.3
      vertex -1.47118 0.292635 -0.39
      vertex -1.47118 0.292635 -6.3
    endloop
  endfacet
  facet normal 0.998796 -0.0490482 0
    outer loop
      vertex -1.5 0 -0.39
      vertex -1.49278 0.147025 -6.3
      vertex -1.49278 0.147025 -0.39
    endloop
  endfacet
  facet normal 0.998796 -0.0490482 0
    outer loop
      vertex -1.49278 0.147025 -6.3
      vertex -1.5 0 -0.39
      vertex -1.5 0 -6.3
    endloop
  endfacet
  facet normal -0.514113 0.857722 0
    outer loop
      vertex 0.833355 -1.2472 -6.3
      vertex 0.707094 -1.32288 -0.39
      vertex 0.833355 -1.2472 -0.39
    endloop
  endfacet
  facet normal -0.514113 0.857722 0
    outer loop
      vertex 0.707094 -1.32288 -0.39
      vertex 0.833355 -1.2472 -6.3
      vertex 0.707094 -1.32288 -6.3
    endloop
  endfacet
  facet normal -0.998796 -0.0490482 0
    outer loop
      vertex 1.5 0 -6.3
      vertex 1.49278 0.147025 -0.39
      vertex 1.49278 0.147025 -6.3
    endloop
  endfacet
  facet normal -0.998796 -0.0490482 0
    outer loop
      vertex 1.49278 0.147025 -0.39
      vertex 1.5 0 -6.3
      vertex 1.5 0 -0.39
    endloop
  endfacet
  facet normal -0.903983 -0.427569 0
    outer loop
      vertex 1.38582 0.574024 -6.3
      vertex 1.32288 0.707094 -0.39
      vertex 1.32288 0.707094 -6.3
    endloop
  endfacet
  facet normal -0.903983 -0.427569 0
    outer loop
      vertex 1.32288 0.707094 -0.39
      vertex 1.38582 0.574024 -6.3
      vertex 1.38582 0.574024 -0.39
    endloop
  endfacet
  facet normal -0.857722 0.514113 0
    outer loop
      vertex 1.2472 -0.833355 -6.3
      vertex 1.32288 -0.707094 -0.39
      vertex 1.32288 -0.707094 -6.3
    endloop
  endfacet
  facet normal -0.857722 0.514113 0
    outer loop
      vertex 1.32288 -0.707094 -0.39
      vertex 1.2472 -0.833355 -6.3
      vertex 1.2472 -0.833355 -0.39
    endloop
  endfacet
  facet normal -0.740935 0.671577 0
    outer loop
      vertex 1.06066 -1.06066 -6.3
      vertex 1.15952 -0.95159 -0.39
      vertex 1.15952 -0.95159 -6.3
    endloop
  endfacet
  facet normal -0.740935 0.671577 0
    outer loop
      vertex 1.15952 -0.95159 -0.39
      vertex 1.06066 -1.06066 -6.3
      vertex 1.06066 -1.06066 -0.39
    endloop
  endfacet
  facet normal 0.0490482 0.998796 -0
    outer loop
      vertex 0 -1.5 -6.3
      vertex -0.147025 -1.49278 -0.39
      vertex 0 -1.5 -0.39
    endloop
  endfacet
  facet normal 0.0490482 0.998796 0
    outer loop
      vertex -0.147025 -1.49278 -0.39
      vertex 0 -1.5 -6.3
      vertex -0.147025 -1.49278 -6.3
    endloop
  endfacet
  facet normal 0.740935 0.671577 0
    outer loop
      vertex -1.06066 -1.06066 -0.39
      vertex -1.15952 -0.95159 -6.3
      vertex -1.15952 -0.95159 -0.39
    endloop
  endfacet
  facet normal 0.740935 0.671577 0
    outer loop
      vertex -1.15952 -0.95159 -6.3
      vertex -1.06066 -1.06066 -0.39
      vertex -1.06066 -1.06066 -6.3
    endloop
  endfacet
  facet normal 0.671577 -0.740935 0
    outer loop
      vertex -1.06066 1.06066 -6.3
      vertex -0.95159 1.15952 -0.39
      vertex -1.06066 1.06066 -0.39
    endloop
  endfacet
  facet normal 0.671577 -0.740935 0
    outer loop
      vertex -0.95159 1.15952 -0.39
      vertex -1.06066 1.06066 -6.3
      vertex -0.95159 1.15952 -6.3
    endloop
  endfacet
  facet normal -0.0490482 -0.998796 0
    outer loop
      vertex 0 1.5 -6.3
      vertex 0.147025 1.49278 -0.39
      vertex 0 1.5 -0.39
    endloop
  endfacet
  facet normal -0.0490482 -0.998796 -0
    outer loop
      vertex 0.147025 1.49278 -0.39
      vertex 0 1.5 -6.3
      vertex 0.147025 1.49278 -6.3
    endloop
  endfacet
  facet normal -0.941546 0.336885 0
    outer loop
      vertex 1.38582 -0.574024 -6.3
      vertex 1.43541 -0.435427 -0.39
      vertex 1.43541 -0.435427 -6.3
    endloop
  endfacet
  facet normal -0.941546 0.336885 0
    outer loop
      vertex 1.43541 -0.435427 -0.39
      vertex 1.38582 -0.574024 -6.3
      vertex 1.38582 -0.574024 -0.39
    endloop
  endfacet
  facet normal -0.857722 -0.514113 0
    outer loop
      vertex 1.32288 0.707094 -6.3
      vertex 1.2472 0.833355 -0.39
      vertex 1.2472 0.833355 -6.3
    endloop
  endfacet
  facet normal -0.857722 -0.514113 0
    outer loop
      vertex 1.2472 0.833355 -0.39
      vertex 1.32288 0.707094 -6.3
      vertex 1.32288 0.707094 -0.39
    endloop
  endfacet
  facet normal -0.671577 0.740935 0
    outer loop
      vertex 1.06066 -1.06066 -6.3
      vertex 0.95159 -1.15952 -0.39
      vertex 1.06066 -1.06066 -0.39
    endloop
  endfacet
  facet normal -0.671577 0.740935 0
    outer loop
      vertex 0.95159 -1.15952 -0.39
      vertex 1.06066 -1.06066 -6.3
      vertex 0.95159 -1.15952 -6.3
    endloop
  endfacet
  facet normal 0.242996 0.970027 -0
    outer loop
      vertex -0.292635 -1.47118 -6.3
      vertex -0.435427 -1.43541 -0.39
      vertex -0.292635 -1.47118 -0.39
    endloop
  endfacet
  facet normal 0.242996 0.970027 0
    outer loop
      vertex -0.435427 -1.43541 -0.39
      vertex -0.292635 -1.47118 -6.3
      vertex -0.435427 -1.43541 -6.3
    endloop
  endfacet
  facet normal -0.336885 -0.941546 0
    outer loop
      vertex 0.435427 1.43541 -6.3
      vertex 0.574024 1.38582 -0.39
      vertex 0.435427 1.43541 -0.39
    endloop
  endfacet
  facet normal -0.336885 -0.941546 -0
    outer loop
      vertex 0.574024 1.38582 -0.39
      vertex 0.435427 1.43541 -6.3
      vertex 0.574024 1.38582 -6.3
    endloop
  endfacet
  facet normal 0.427569 0.903983 -0
    outer loop
      vertex -0.574024 -1.38582 -6.3
      vertex -0.707094 -1.32288 -0.39
      vertex -0.574024 -1.38582 -0.39
    endloop
  endfacet
  facet normal 0.427569 0.903983 0
    outer loop
      vertex -0.707094 -1.32288 -0.39
      vertex -0.574024 -1.38582 -6.3
      vertex -0.707094 -1.32288 -6.3
    endloop
  endfacet
  facet normal -0.903983 0.427569 0
    outer loop
      vertex 1.32288 -0.707094 -6.3
      vertex 1.38582 -0.574024 -0.39
      vertex 1.38582 -0.574024 -6.3
    endloop
  endfacet
  facet normal -0.903983 0.427569 0
    outer loop
      vertex 1.38582 -0.574024 -0.39
      vertex 1.32288 -0.707094 -6.3
      vertex 1.32288 -0.707094 -0.39
    endloop
  endfacet
  facet normal 0.671577 0.740935 -0
    outer loop
      vertex -0.95159 -1.15952 -6.3
      vertex -1.06066 -1.06066 -0.39
      vertex -0.95159 -1.15952 -0.39
    endloop
  endfacet
  facet normal 0.671577 0.740935 0
    outer loop
      vertex -1.06066 -1.06066 -0.39
      vertex -0.95159 -1.15952 -6.3
      vertex -1.06066 -1.06066 -6.3
    endloop
  endfacet
  facet normal -0.336885 0.941546 0
    outer loop
      vertex 0.574024 -1.38582 -6.3
      vertex 0.435427 -1.43541 -0.39
      vertex 0.574024 -1.38582 -0.39
    endloop
  endfacet
  facet normal -0.336885 0.941546 0
    outer loop
      vertex 0.435427 -1.43541 -0.39
      vertex 0.574024 -1.38582 -6.3
      vertex 0.435427 -1.43541 -6.3
    endloop
  endfacet
  facet normal 0.336885 0.941546 -0
    outer loop
      vertex -0.435427 -1.43541 -6.3
      vertex -0.574024 -1.38582 -0.39
      vertex -0.435427 -1.43541 -0.39
    endloop
  endfacet
  facet normal 0.336885 0.941546 0
    outer loop
      vertex -0.574024 -1.38582 -0.39
      vertex -0.435427 -1.43541 -6.3
      vertex -0.574024 -1.38582 -6.3
    endloop
  endfacet
  facet normal 0.857722 -0.514113 0
    outer loop
      vertex -1.32288 0.707094 -0.39
      vertex -1.2472 0.833355 -6.3
      vertex -1.2472 0.833355 -0.39
    endloop
  endfacet
  facet normal 0.857722 -0.514113 0
    outer loop
      vertex -1.2472 0.833355 -6.3
      vertex -1.32288 0.707094 -0.39
      vertex -1.32288 0.707094 -6.3
    endloop
  endfacet
  facet normal 0.514113 -0.857722 0
    outer loop
      vertex -0.833355 1.2472 -6.3
      vertex -0.707094 1.32288 -0.39
      vertex -0.833355 1.2472 -0.39
    endloop
  endfacet
  facet normal 0.514113 -0.857722 0
    outer loop
      vertex -0.707094 1.32288 -0.39
      vertex -0.833355 1.2472 -6.3
      vertex -0.707094 1.32288 -6.3
    endloop
  endfacet
  facet normal -0.242996 0.970027 0
    outer loop
      vertex 0.435427 -1.43541 -6.3
      vertex 0.292635 -1.47118 -0.39
      vertex 0.435427 -1.43541 -0.39
    endloop
  endfacet
  facet normal -0.242996 0.970027 0
    outer loop
      vertex 0.292635 -1.47118 -0.39
      vertex 0.435427 -1.43541 -6.3
      vertex 0.292635 -1.47118 -6.3
    endloop
  endfacet
  facet normal 0.427569 -0.903983 0
    outer loop
      vertex -0.707094 1.32288 -6.3
      vertex -0.574024 1.38582 -0.39
      vertex -0.707094 1.32288 -0.39
    endloop
  endfacet
  facet normal 0.427569 -0.903983 0
    outer loop
      vertex -0.574024 1.38582 -0.39
      vertex -0.707094 1.32288 -6.3
      vertex -0.574024 1.38582 -6.3
    endloop
  endfacet
  facet normal 0.803237 -0.59566 0
    outer loop
      vertex -1.2472 0.833355 -0.39
      vertex -1.15952 0.95159 -6.3
      vertex -1.15952 0.95159 -0.39
    endloop
  endfacet
  facet normal 0.803237 -0.59566 0
    outer loop
      vertex -1.15952 0.95159 -6.3
      vertex -1.2472 0.833355 -0.39
      vertex -1.2472 0.833355 -6.3
    endloop
  endfacet
  facet normal 0.242996 -0.970027 0
    outer loop
      vertex -0.435427 1.43541 -6.3
      vertex -0.292635 1.47118 -0.39
      vertex -0.435427 1.43541 -0.39
    endloop
  endfacet
  facet normal 0.242996 -0.970027 0
    outer loop
      vertex -0.292635 1.47118 -0.39
      vertex -0.435427 1.43541 -6.3
      vertex -0.292635 1.47118 -6.3
    endloop
  endfacet
  facet normal 0.336885 -0.941546 0
    outer loop
      vertex -0.574024 1.38582 -6.3
      vertex -0.435427 1.43541 -0.39
      vertex -0.574024 1.38582 -0.39
    endloop
  endfacet
  facet normal 0.336885 -0.941546 0
    outer loop
      vertex -0.435427 1.43541 -0.39
      vertex -0.574024 1.38582 -6.3
      vertex -0.435427 1.43541 -6.3
    endloop
  endfacet
  facet normal 0.989176 -0.146736 0
    outer loop
      vertex -1.49278 0.147025 -0.39
      vertex -1.47118 0.292635 -6.3
      vertex -1.47118 0.292635 -0.39
    endloop
  endfacet
  facet normal 0.989176 -0.146736 0
    outer loop
      vertex -1.47118 0.292635 -6.3
      vertex -1.49278 0.147025 -0.39
      vertex -1.49278 0.147025 -6.3
    endloop
  endfacet
  facet normal 0.59566 -0.803237 0
    outer loop
      vertex -0.95159 1.15952 -6.3
      vertex -0.833355 1.2472 -0.39
      vertex -0.95159 1.15952 -0.39
    endloop
  endfacet
  facet normal 0.59566 -0.803237 0
    outer loop
      vertex -0.833355 1.2472 -0.39
      vertex -0.95159 1.15952 -6.3
      vertex -0.833355 1.2472 -6.3
    endloop
  endfacet
  facet normal 0.903983 -0.427569 0
    outer loop
      vertex -1.38582 0.574024 -0.39
      vertex -1.32288 0.707094 -6.3
      vertex -1.32288 0.707094 -0.39
    endloop
  endfacet
  facet normal 0.903983 -0.427569 0
    outer loop
      vertex -1.32288 0.707094 -6.3
      vertex -1.38582 0.574024 -0.39
      vertex -1.38582 0.574024 -6.3
    endloop
  endfacet
  facet normal 0.941546 0.336885 0
    outer loop
      vertex -1.38582 -0.574024 -0.39
      vertex -1.43541 -0.435427 -6.3
      vertex -1.43541 -0.435427 -0.39
    endloop
  endfacet
  facet normal 0.941546 0.336885 0
    outer loop
      vertex -1.43541 -0.435427 -6.3
      vertex -1.38582 -0.574024 -0.39
      vertex -1.38582 -0.574024 -6.3
    endloop
  endfacet
  facet normal -0.941546 -0.336885 0
    outer loop
      vertex 1.43541 0.435427 -6.3
      vertex 1.38582 0.574024 -0.39
      vertex 1.38582 0.574024 -6.3
    endloop
  endfacet
  facet normal -0.941546 -0.336885 0
    outer loop
      vertex 1.38582 0.574024 -0.39
      vertex 1.43541 0.435427 -6.3
      vertex 1.43541 0.435427 -0.39
    endloop
  endfacet
  facet normal 0.803237 0.59566 0
    outer loop
      vertex -1.15952 -0.95159 -0.39
      vertex -1.2472 -0.833355 -6.3
      vertex -1.2472 -0.833355 -0.39
    endloop
  endfacet
  facet normal 0.803237 0.59566 0
    outer loop
      vertex -1.2472 -0.833355 -6.3
      vertex -1.15952 -0.95159 -0.39
      vertex -1.15952 -0.95159 -6.3
    endloop
  endfacet
  facet normal 0.998796 0.0490482 0
    outer loop
      vertex -1.49278 -0.147025 -0.39
      vertex -1.5 0 -6.3
      vertex -1.5 0 -0.39
    endloop
  endfacet
  facet normal 0.998796 0.0490482 0
    outer loop
      vertex -1.5 0 -6.3
      vertex -1.49278 -0.147025 -0.39
      vertex -1.49278 -0.147025 -6.3
    endloop
  endfacet
  facet normal -0.740935 -0.671577 0
    outer loop
      vertex 1.15952 0.95159 -6.3
      vertex 1.06066 1.06066 -0.39
      vertex 1.06066 1.06066 -6.3
    endloop
  endfacet
  facet normal -0.740935 -0.671577 0
    outer loop
      vertex 1.06066 1.06066 -0.39
      vertex 1.15952 0.95159 -6.3
      vertex 1.15952 0.95159 -0.39
    endloop
  endfacet
  facet normal -0.671577 -0.740935 0
    outer loop
      vertex 0.95159 1.15952 -6.3
      vertex 1.06066 1.06066 -0.39
      vertex 0.95159 1.15952 -0.39
    endloop
  endfacet
  facet normal -0.671577 -0.740935 -0
    outer loop
      vertex 1.06066 1.06066 -0.39
      vertex 0.95159 1.15952 -6.3
      vertex 1.06066 1.06066 -6.3
    endloop
  endfacet
  facet normal 0 0 1
    outer loop
      vertex 1.69 0 -0.88
      vertex 1.57239 0.154866 -0.88
      vertex 1.58 0 -0.88
    endloop
  endfacet
  facet normal -0 0 1
    outer loop
      vertex 1.54964 0.308242 -0.88
      vertex 1.69 0 -0.88
      vertex 1.56136 0.646734 -0.88
    endloop
  endfacet
  facet normal 0 0 1
    outer loop
      vertex 1.69 0 -0.88
      vertex 1.54964 0.308242 -0.88
      vertex 1.57239 0.154866 -0.88
    endloop
  endfacet
  facet normal 0 0 1
    outer loop
      vertex 1.56136 0.646734 -0.88
      vertex 1.51196 0.45865 -0.88
      vertex 1.54964 0.308242 -0.88
    endloop
  endfacet
  facet normal 0 0 1
    outer loop
      vertex 1.56136 0.646734 -0.88
      vertex 1.45973 0.604639 -0.88
      vertex 1.51196 0.45865 -0.88
    endloop
  endfacet
  facet normal 0 0 1
    outer loop
      vertex 1.56136 0.646734 -0.88
      vertex 1.39344 0.744806 -0.88
      vertex 1.45973 0.604639 -0.88
    endloop
  endfacet
  facet normal 0 0 1
    outer loop
      vertex 1.56136 0.646734 -0.88
      vertex 1.31372 0.877801 -0.88
      vertex 1.39344 0.744806 -0.88
    endloop
  endfacet
  facet normal 0 0 1
    outer loop
      vertex 1.19501 1.19501 -0.88
      vertex 1.31372 0.877801 -0.88
      vertex 1.56136 0.646734 -0.88
    endloop
  endfacet
  facet normal 0 0 1
    outer loop
      vertex 1.31372 0.877801 -0.88
      vertex 1.19501 1.19501 -0.88
      vertex 1.22136 1.00234 -0.88
    endloop
  endfacet
  facet normal 0 0 1
    outer loop
      vertex 1.19501 1.19501 -0.88
      vertex 1.11723 1.11723 -0.88
      vertex 1.22136 1.00234 -0.88
    endloop
  endfacet
  facet normal 0 0 1
    outer loop
      vertex 1.19501 1.19501 -0.88
      vertex 1.00234 1.22136 -0.88
      vertex 1.11723 1.11723 -0.88
    endloop
  endfacet
  facet normal 0 0 1
    outer loop
      vertex 1.19501 1.19501 -0.88
      vertex 0.877801 1.31372 -0.88
      vertex 1.00234 1.22136 -0.88
    endloop
  endfacet
  facet normal 0 0 1
    outer loop
      vertex 0.646734 1.56136 -0.88
      vertex 0.877801 1.31372 -0.88
      vertex 1.19501 1.19501 -0.88
    endloop
  endfacet
  facet normal 0 0 1
    outer loop
      vertex 0.877801 1.31372 -0.88
      vertex 0.646734 1.56136 -0.88
      vertex 0.744806 1.39344 -0.88
    endloop
  endfacet
  facet normal 0 0 1
    outer loop
      vertex 0.646734 1.56136 -0.88
      vertex 0.604639 1.45973 -0.88
      vertex 0.744806 1.39344 -0.88
    endloop
  endfacet
  facet normal 0 0 1
    outer loop
      vertex 0.646734 1.56136 -0.88
      vertex 0.45865 1.51196 -0.88
      vertex 0.604639 1.45973 -0.88
    endloop
  endfacet
  facet normal 0 0 1
    outer loop
      vertex 0.646734 1.56136 -0.88
      vertex 0.308242 1.54964 -0.88
      vertex 0.45865 1.51196 -0.88
    endloop
  endfacet
  facet normal 0 0 1
    outer loop
      vertex 0 1.69 -0.88
      vertex 0.308242 1.54964 -0.88
      vertex 0.646734 1.56136 -0.88
    endloop
  endfacet
  facet normal 0 0 1
    outer loop
      vertex 0.308242 1.54964 -0.88
      vertex 0 1.69 -0.88
      vertex 0.154866 1.57239 -0.88
    endloop
  endfacet
  facet normal 0 0 1
    outer loop
      vertex 0 1.69 -0.88
      vertex 0 1.58 -0.88
      vertex 0.154866 1.57239 -0.88
    endloop
  endfacet
  facet normal 0 0 1
    outer loop
      vertex 0 1.69 -0.88
      vertex -0.154866 1.57239 -0.88
      vertex 0 1.58 -0.88
    endloop
  endfacet
  facet normal 0 0 1
    outer loop
      vertex 0 1.69 -0.88
      vertex -0.308242 1.54964 -0.88
      vertex -0.154866 1.57239 -0.88
    endloop
  endfacet
  facet normal -0 0 1
    outer loop
      vertex -0.646734 1.56136 -0.88
      vertex -0.308242 1.54964 -0.88
      vertex 0 1.69 -0.88
    endloop
  endfacet
  facet normal 0 0 1
    outer loop
      vertex -0.308242 1.54964 -0.88
      vertex -0.646734 1.56136 -0.88
      vertex -0.45865 1.51196 -0.88
    endloop
  endfacet
  facet normal 0 0 1
    outer loop
      vertex -0.45865 1.51196 -0.88
      vertex -0.646734 1.56136 -0.88
      vertex -0.604639 1.45973 -0.88
    endloop
  endfacet
  facet normal 0 0 1
    outer loop
      vertex -0.646734 1.56136 -0.88
      vertex -0.744806 1.39344 -0.88
      vertex -0.604639 1.45973 -0.88
    endloop
  endfacet
  facet normal 0 0 1
    outer loop
      vertex -0.646734 1.56136 -0.88
      vertex -0.877801 1.31372 -0.88
      vertex -0.744806 1.39344 -0.88
    endloop
  endfacet
  facet normal 0 0 1
    outer loop
      vertex -1.19501 1.19501 -0.88
      vertex -0.877801 1.31372 -0.88
      vertex -0.646734 1.56136 -0.88
    endloop
  endfacet
  facet normal 0 0 1
    outer loop
      vertex -0.877801 1.31372 -0.88
      vertex -1.19501 1.19501 -0.88
      vertex -1.00234 1.22136 -0.88
    endloop
  endfacet
  facet normal 0 0 1
    outer loop
      vertex -1.00234 1.22136 -0.88
      vertex -1.19501 1.19501 -0.88
      vertex -1.11723 1.11723 -0.88
    endloop
  endfacet
  facet normal 0 0 1
    outer loop
      vertex -1.19501 1.19501 -0.88
      vertex -1.22136 1.00234 -0.88
      vertex -1.11723 1.11723 -0.88
    endloop
  endfacet
  facet normal 0 0 1
    outer loop
      vertex -1.19501 1.19501 -0.88
      vertex -1.31372 0.877801 -0.88
      vertex -1.22136 1.00234 -0.88
    endloop
  endfacet
  facet normal 0 0 1
    outer loop
      vertex -1.56136 0.646734 -0.88
      vertex -1.31372 0.877801 -0.88
      vertex -1.19501 1.19501 -0.88
    endloop
  endfacet
  facet normal 0 0 1
    outer loop
      vertex -1.31372 0.877801 -0.88
      vertex -1.56136 0.646734 -0.88
      vertex -1.39344 0.744806 -0.88
    endloop
  endfacet
  facet normal 0 0 1
    outer loop
      vertex -1.39344 0.744806 -0.88
      vertex -1.56136 0.646734 -0.88
      vertex -1.45973 0.604639 -0.88
    endloop
  endfacet
  facet normal 0 0 1
    outer loop
      vertex -1.56136 0.646734 -0.88
      vertex -1.51196 0.45865 -0.88
      vertex -1.45973 0.604639 -0.88
    endloop
  endfacet
  facet normal 0 0 1
    outer loop
      vertex -1.56136 0.646734 -0.88
      vertex -1.54964 0.308242 -0.88
      vertex -1.51196 0.45865 -0.88
    endloop
  endfacet
  facet normal 0 0 1
    outer loop
      vertex -1.69 0 -0.88
      vertex -1.54964 0.308242 -0.88
      vertex -1.56136 0.646734 -0.88
    endloop
  endfacet
  facet normal 0 0 1
    outer loop
      vertex -1.54964 0.308242 -0.88
      vertex -1.69 0 -0.88
      vertex -1.57239 0.154866 -0.88
    endloop
  endfacet
  facet normal 0 0 1
    outer loop
      vertex -1.57239 0.154866 -0.88
      vertex -1.69 0 -0.88
      vertex -1.58 0 -0.88
    endloop
  endfacet
  facet normal 0 0 1
    outer loop
      vertex 1.57239 -0.154866 -0.88
      vertex 1.69 0 -0.88
      vertex 1.58 0 -0.88
    endloop
  endfacet
  facet normal 0 0 1
    outer loop
      vertex 1.54964 -0.308242 -0.88
      vertex 1.69 0 -0.88
      vertex 1.57239 -0.154866 -0.88
    endloop
  endfacet
  facet normal 0 0 1
    outer loop
      vertex 1.69 0 -0.88
      vertex 1.54964 -0.308242 -0.88
      vertex 1.56136 -0.646734 -0.88
    endloop
  endfacet
  facet normal -0 0 1
    outer loop
      vertex 1.51196 -0.45865 -0.88
      vertex 1.56136 -0.646734 -0.88
      vertex 1.54964 -0.308242 -0.88
    endloop
  endfacet
  facet normal -0 0 1
    outer loop
      vertex 1.45973 -0.604639 -0.88
      vertex 1.56136 -0.646734 -0.88
      vertex 1.51196 -0.45865 -0.88
    endloop
  endfacet
  facet normal 0 0 1
    outer loop
      vertex 1.39344 -0.744806 -0.88
      vertex 1.56136 -0.646734 -0.88
      vertex 1.45973 -0.604639 -0.88
    endloop
  endfacet
  facet normal 0 0 1
    outer loop
      vertex 1.31372 -0.877801 -0.88
      vertex 1.56136 -0.646734 -0.88
      vertex 1.39344 -0.744806 -0.88
    endloop
  endfacet
  facet normal 0 0 1
    outer loop
      vertex 1.19501 -1.19501 -0.88
      vertex 1.31372 -0.877801 -0.88
      vertex 1.22136 -1.00234 -0.88
    endloop
  endfacet
  facet normal -0 0 1
    outer loop
      vertex 1.31372 -0.877801 -0.88
      vertex 1.19501 -1.19501 -0.88
      vertex 1.56136 -0.646734 -0.88
    endloop
  endfacet
  facet normal -0 0 1
    outer loop
      vertex 1.11723 -1.11723 -0.88
      vertex 1.19501 -1.19501 -0.88
      vertex 1.22136 -1.00234 -0.88
    endloop
  endfacet
  facet normal 0 0 1
    outer loop
      vertex 1.00234 -1.22136 -0.88
      vertex 1.19501 -1.19501 -0.88
      vertex 1.11723 -1.11723 -0.88
    endloop
  endfacet
  facet normal 0 0 1
    outer loop
      vertex 0.877801 -1.31372 -0.88
      vertex 1.19501 -1.19501 -0.88
      vertex 1.00234 -1.22136 -0.88
    endloop
  endfacet
  facet normal 0 0 1
    outer loop
      vertex 0.646734 -1.56136 -0.88
      vertex 0.877801 -1.31372 -0.88
      vertex 0.744806 -1.39344 -0.88
    endloop
  endfacet
  facet normal -0 0 1
    outer loop
      vertex 0.877801 -1.31372 -0.88
      vertex 0.646734 -1.56136 -0.88
      vertex 1.19501 -1.19501 -0.88
    endloop
  endfacet
  facet normal -0 0 1
    outer loop
      vertex 0.604639 -1.45973 -0.88
      vertex 0.646734 -1.56136 -0.88
      vertex 0.744806 -1.39344 -0.88
    endloop
  endfacet
  facet normal -0 0 1
    outer loop
      vertex 0.45865 -1.51196 -0.88
      vertex 0.646734 -1.56136 -0.88
      vertex 0.604639 -1.45973 -0.88
    endloop
  endfacet
  facet normal -0 0 1
    outer loop
      vertex 0.308242 -1.54964 -0.88
      vertex 0.646734 -1.56136 -0.88
      vertex 0.45865 -1.51196 -0.88
    endloop
  endfacet
  facet normal 0 0 1
    outer loop
      vertex 0 -1.69 -0.88
      vertex 0.308242 -1.54964 -0.88
      vertex 0.154866 -1.57239 -0.88
    endloop
  endfacet
  facet normal 0 0 1
    outer loop
      vertex 0 -1.69 -0.88
      vertex 0.154866 -1.57239 -0.88
      vertex 0 -1.58 -0.88
    endloop
  endfacet
  facet normal 0 0 1
    outer loop
      vertex 0.308242 -1.54964 -0.88
      vertex 0 -1.69 -0.88
      vertex 0.646734 -1.56136 -0.88
    endloop
  endfacet
  facet normal 0 0 1
    outer loop
      vertex -0.154866 -1.57239 -0.88
      vertex 0 -1.69 -0.88
      vertex 0 -1.58 -0.88
    endloop
  endfacet
  facet normal 0 0 1
    outer loop
      vertex -0.308242 -1.54964 -0.88
      vertex 0 -1.69 -0.88
      vertex -0.154866 -1.57239 -0.88
    endloop
  endfacet
  facet normal 0 0 1
    outer loop
      vertex -0.646734 -1.56136 -0.88
      vertex -0.308242 -1.54964 -0.88
      vertex -0.45865 -1.51196 -0.88
    endloop
  endfacet
  facet normal 0 0 1
    outer loop
      vertex -0.646734 -1.56136 -0.88
      vertex -0.45865 -1.51196 -0.88
      vertex -0.604639 -1.45973 -0.88
    endloop
  endfacet
  facet normal 0 0 1
    outer loop
      vertex -0.308242 -1.54964 -0.88
      vertex -0.646734 -1.56136 -0.88
      vertex 0 -1.69 -0.88
    endloop
  endfacet
  facet normal 0 0 1
    outer loop
      vertex -0.744806 -1.39344 -0.88
      vertex -0.646734 -1.56136 -0.88
      vertex -0.604639 -1.45973 -0.88
    endloop
  endfacet
  facet normal 0 0 1
    outer loop
      vertex -0.877801 -1.31372 -0.88
      vertex -0.646734 -1.56136 -0.88
      vertex -0.744806 -1.39344 -0.88
    endloop
  endfacet
  facet normal 0 0 1
    outer loop
      vertex -1.19501 -1.19501 -0.88
      vertex -0.877801 -1.31372 -0.88
      vertex -1.00234 -1.22136 -0.88
    endloop
  endfacet
  facet normal -0 0 1
    outer loop
      vertex -1.19501 -1.19501 -0.88
      vertex -1.00234 -1.22136 -0.88
      vertex -1.11723 -1.11723 -0.88
    endloop
  endfacet
  facet normal 0 0 1
    outer loop
      vertex -0.877801 -1.31372 -0.88
      vertex -1.19501 -1.19501 -0.88
      vertex -0.646734 -1.56136 -0.88
    endloop
  endfacet
  facet normal 0 0 1
    outer loop
      vertex -1.22136 -1.00234 -0.88
      vertex -1.19501 -1.19501 -0.88
      vertex -1.11723 -1.11723 -0.88
    endloop
  endfacet
  facet normal 0 0 1
    outer loop
      vertex -1.31372 -0.877801 -0.88
      vertex -1.19501 -1.19501 -0.88
      vertex -1.22136 -1.00234 -0.88
    endloop
  endfacet
  facet normal 0 0 1
    outer loop
      vertex -1.56136 -0.646734 -0.88
      vertex -1.31372 -0.877801 -0.88
      vertex -1.39344 -0.744806 -0.88
    endloop
  endfacet
  facet normal -0 0 1
    outer loop
      vertex -1.56136 -0.646734 -0.88
      vertex -1.39344 -0.744806 -0.88
      vertex -1.45973 -0.604639 -0.88
    endloop
  endfacet
  facet normal 0 0 1
    outer loop
      vertex -1.31372 -0.877801 -0.88
      vertex -1.56136 -0.646734 -0.88
      vertex -1.19501 -1.19501 -0.88
    endloop
  endfacet
  facet normal 0 0 1
    outer loop
      vertex -1.51196 -0.45865 -0.88
      vertex -1.56136 -0.646734 -0.88
      vertex -1.45973 -0.604639 -0.88
    endloop
  endfacet
  facet normal 0 0 1
    outer loop
      vertex -1.54964 -0.308242 -0.88
      vertex -1.56136 -0.646734 -0.88
      vertex -1.51196 -0.45865 -0.88
    endloop
  endfacet
  facet normal 0 0 1
    outer loop
      vertex -1.69 0 -0.88
      vertex -1.54964 -0.308242 -0.88
      vertex -1.57239 -0.154866 -0.88
    endloop
  endfacet
  facet normal -0 0 1
    outer loop
      vertex -1.69 0 -0.88
      vertex -1.57239 -0.154866 -0.88
      vertex -1.58 0 -0.88
    endloop
  endfacet
  facet normal 0 0 1
    outer loop
      vertex -1.54964 -0.308242 -0.88
      vertex -1.69 0 -0.88
      vertex -1.56136 -0.646734 -0.88
    endloop
  endfacet
  facet normal 0.989178 -0.146723 0
    outer loop
      vertex 1.54964 -0.308242 -0.39
      vertex 1.57239 -0.154866 -0.88
      vertex 1.57239 -0.154866 -0.39
    endloop
  endfacet
  facet normal 0.989178 -0.146723 0
    outer loop
      vertex 1.57239 -0.154866 -0.88
      vertex 1.54964 -0.308242 -0.39
      vertex 1.54964 -0.308242 -0.88
    endloop
  endfacet
  facet normal 0.998795 -0.04908 0
    outer loop
      vertex 1.57239 -0.154866 -0.39
      vertex 1.58 0 -0.88
      vertex 1.58 0 -0.39
    endloop
  endfacet
  facet normal 0.998795 -0.04908 0
    outer loop
      vertex 1.58 0 -0.88
      vertex 1.57239 -0.154866 -0.39
      vertex 1.57239 -0.154866 -0.88
    endloop
  endfacet
  facet normal 0.970024 -0.243009 0
    outer loop
      vertex 1.51196 -0.45865 -0.39
      vertex 1.54964 -0.308242 -0.88
      vertex 1.54964 -0.308242 -0.39
    endloop
  endfacet
  facet normal 0.970024 -0.243009 0
    outer loop
      vertex 1.54964 -0.308242 -0.88
      vertex 1.51196 -0.45865 -0.39
      vertex 1.51196 -0.45865 -0.88
    endloop
  endfacet
  facet normal 0.427534 0.903999 -0
    outer loop
      vertex 0.744806 1.39344 -0.88
      vertex 0.604639 1.45973 -0.39
      vertex 0.744806 1.39344 -0.39
    endloop
  endfacet
  facet normal 0.427534 0.903999 0
    outer loop
      vertex 0.604639 1.45973 -0.39
      vertex 0.744806 1.39344 -0.88
      vertex 0.604639 1.45973 -0.88
    endloop
  endfacet
  facet normal 0.427534 -0.903999 0
    outer loop
      vertex 0.604639 -1.45973 -0.88
      vertex 0.744806 -1.39344 -0.39
      vertex 0.604639 -1.45973 -0.39
    endloop
  endfacet
  facet normal 0.427534 -0.903999 0
    outer loop
      vertex 0.744806 -1.39344 -0.39
      vertex 0.604639 -1.45973 -0.88
      vertex 0.744806 -1.39344 -0.88
    endloop
  endfacet
  facet normal -0.427534 -0.903999 0
    outer loop
      vertex -0.744806 -1.39344 -0.88
      vertex -0.604639 -1.45973 -0.39
      vertex -0.744806 -1.39344 -0.39
    endloop
  endfacet
  facet normal -0.427534 -0.903999 -0
    outer loop
      vertex -0.604639 -1.45973 -0.39
      vertex -0.744806 -1.39344 -0.88
      vertex -0.604639 -1.45973 -0.88
    endloop
  endfacet
  facet normal 0.595681 -0.803221 0
    outer loop
      vertex 0.877801 -1.31372 -0.88
      vertex 1.00234 -1.22136 -0.39
      vertex 0.877801 -1.31372 -0.39
    endloop
  endfacet
  facet normal 0.595681 -0.803221 0
    outer loop
      vertex 1.00234 -1.22136 -0.39
      vertex 0.877801 -1.31372 -0.88
      vertex 1.00234 -1.22136 -0.88
    endloop
  endfacet
  facet normal 0.243009 -0.970024 0
    outer loop
      vertex 0.308242 -1.54964 -0.88
      vertex 0.45865 -1.51196 -0.39
      vertex 0.308242 -1.54964 -0.39
    endloop
  endfacet
  facet normal 0.243009 -0.970024 0
    outer loop
      vertex 0.45865 -1.51196 -0.39
      vertex 0.308242 -1.54964 -0.88
      vertex 0.45865 -1.51196 -0.88
    endloop
  endfacet
  facet normal -0.970024 -0.243009 0
    outer loop
      vertex -1.51196 -0.45865 -0.88
      vertex -1.54964 -0.308242 -0.39
      vertex -1.54964 -0.308242 -0.88
    endloop
  endfacet
  facet normal -0.970024 -0.243009 0
    outer loop
      vertex -1.54964 -0.308242 -0.39
      vertex -1.51196 -0.45865 -0.88
      vertex -1.51196 -0.45865 -0.39
    endloop
  endfacet
  facet normal 0.514131 0.857712 -0
    outer loop
      vertex 0.877801 1.31372 -0.88
      vertex 0.744806 1.39344 -0.39
      vertex 0.877801 1.31372 -0.39
    endloop
  endfacet
  facet normal 0.514131 0.857712 0
    outer loop
      vertex 0.744806 1.39344 -0.39
      vertex 0.877801 1.31372 -0.88
      vertex 0.744806 1.39344 -0.88
    endloop
  endfacet
  facet normal 0.903999 -0.427534 0
    outer loop
      vertex 1.39344 -0.744806 -0.39
      vertex 1.45973 -0.604639 -0.88
      vertex 1.45973 -0.604639 -0.39
    endloop
  endfacet
  facet normal 0.903999 -0.427534 0
    outer loop
      vertex 1.45973 -0.604639 -0.88
      vertex 1.39344 -0.744806 -0.39
      vertex 1.39344 -0.744806 -0.88
    endloop
  endfacet
  facet normal 0.04908 -0.998795 0
    outer loop
      vertex 0 -1.58 -0.88
      vertex 0.154866 -1.57239 -0.39
      vertex 0 -1.58 -0.39
    endloop
  endfacet
  facet normal 0.04908 -0.998795 0
    outer loop
      vertex 0.154866 -1.57239 -0.39
      vertex 0 -1.58 -0.88
      vertex 0.154866 -1.57239 -0.88
    endloop
  endfacet
  facet normal -0.243009 -0.970024 0
    outer loop
      vertex -0.45865 -1.51196 -0.88
      vertex -0.308242 -1.54964 -0.39
      vertex -0.45865 -1.51196 -0.39
    endloop
  endfacet
  facet normal -0.243009 -0.970024 -0
    outer loop
      vertex -0.308242 -1.54964 -0.39
      vertex -0.45865 -1.51196 -0.88
      vertex -0.308242 -1.54964 -0.88
    endloop
  endfacet
  facet normal 0.514131 -0.857712 0
    outer loop
      vertex 0.744806 -1.39344 -0.88
      vertex 0.877801 -1.31372 -0.39
      vertex 0.744806 -1.39344 -0.39
    endloop
  endfacet
  facet normal 0.514131 -0.857712 0
    outer loop
      vertex 0.877801 -1.31372 -0.39
      vertex 0.744806 -1.39344 -0.88
      vertex 0.877801 -1.31372 -0.88
    endloop
  endfacet
  facet normal -0.989178 -0.146723 0
    outer loop
      vertex -1.54964 -0.308242 -0.88
      vertex -1.57239 -0.154866 -0.39
      vertex -1.57239 -0.154866 -0.88
    endloop
  endfacet
  facet normal -0.989178 -0.146723 0
    outer loop
      vertex -1.57239 -0.154866 -0.39
      vertex -1.54964 -0.308242 -0.88
      vertex -1.54964 -0.308242 -0.39
    endloop
  endfacet
  facet normal 0.998795 0.04908 0
    outer loop
      vertex 1.58 0 -0.39
      vertex 1.57239 0.154866 -0.88
      vertex 1.57239 0.154866 -0.39
    endloop
  endfacet
  facet normal 0.998795 0.04908 0
    outer loop
      vertex 1.57239 0.154866 -0.88
      vertex 1.58 0 -0.39
      vertex 1.58 0 -0.88
    endloop
  endfacet
  facet normal -0.595681 0.803221 0
    outer loop
      vertex -0.877801 1.31372 -0.88
      vertex -1.00234 1.22136 -0.39
      vertex -0.877801 1.31372 -0.39
    endloop
  endfacet
  facet normal -0.595681 0.803221 0
    outer loop
      vertex -1.00234 1.22136 -0.39
      vertex -0.877801 1.31372 -0.88
      vertex -1.00234 1.22136 -0.88
    endloop
  endfacet
  facet normal 0.243009 0.970024 -0
    outer loop
      vertex 0.45865 1.51196 -0.88
      vertex 0.308242 1.54964 -0.39
      vertex 0.45865 1.51196 -0.39
    endloop
  endfacet
  facet normal 0.243009 0.970024 0
    outer loop
      vertex 0.308242 1.54964 -0.39
      vertex 0.45865 1.51196 -0.88
      vertex 0.308242 1.54964 -0.88
    endloop
  endfacet
  facet normal 0.803221 -0.595681 0
    outer loop
      vertex 1.22136 -1.00234 -0.39
      vertex 1.31372 -0.877801 -0.88
      vertex 1.31372 -0.877801 -0.39
    endloop
  endfacet
  facet normal 0.803221 -0.595681 0
    outer loop
      vertex 1.31372 -0.877801 -0.88
      vertex 1.22136 -1.00234 -0.39
      vertex 1.22136 -1.00234 -0.88
    endloop
  endfacet
  facet normal 0.146723 0.989178 -0
    outer loop
      vertex 0.308242 1.54964 -0.88
      vertex 0.154866 1.57239 -0.39
      vertex 0.308242 1.54964 -0.39
    endloop
  endfacet
  facet normal 0.146723 0.989178 0
    outer loop
      vertex 0.154866 1.57239 -0.39
      vertex 0.308242 1.54964 -0.88
      vertex 0.154866 1.57239 -0.88
    endloop
  endfacet
  facet normal -0.941556 -0.336857 0
    outer loop
      vertex -1.45973 -0.604639 -0.88
      vertex -1.51196 -0.45865 -0.39
      vertex -1.51196 -0.45865 -0.88
    endloop
  endfacet
  facet normal -0.941556 -0.336857 0
    outer loop
      vertex -1.51196 -0.45865 -0.39
      vertex -1.45973 -0.604639 -0.88
      vertex -1.45973 -0.604639 -0.39
    endloop
  endfacet
  facet normal 0.989178 0.146723 0
    outer loop
      vertex 1.57239 0.154866 -0.39
      vertex 1.54964 0.308242 -0.88
      vertex 1.54964 0.308242 -0.39
    endloop
  endfacet
  facet normal 0.989178 0.146723 0
    outer loop
      vertex 1.54964 0.308242 -0.88
      vertex 1.57239 0.154866 -0.39
      vertex 1.57239 0.154866 -0.88
    endloop
  endfacet
  facet normal -0.941556 0.336857 0
    outer loop
      vertex -1.51196 0.45865 -0.88
      vertex -1.45973 0.604639 -0.39
      vertex -1.45973 0.604639 -0.88
    endloop
  endfacet
  facet normal -0.941556 0.336857 0
    outer loop
      vertex -1.45973 0.604639 -0.39
      vertex -1.51196 0.45865 -0.88
      vertex -1.51196 0.45865 -0.39
    endloop
  endfacet
  facet normal 0.903999 0.427534 0
    outer loop
      vertex 1.45973 0.604639 -0.39
      vertex 1.39344 0.744806 -0.88
      vertex 1.39344 0.744806 -0.39
    endloop
  endfacet
  facet normal 0.903999 0.427534 0
    outer loop
      vertex 1.39344 0.744806 -0.88
      vertex 1.45973 0.604639 -0.39
      vertex 1.45973 0.604639 -0.88
    endloop
  endfacet
  facet normal -0.595681 -0.803221 0
    outer loop
      vertex -1.00234 -1.22136 -0.88
      vertex -0.877801 -1.31372 -0.39
      vertex -1.00234 -1.22136 -0.39
    endloop
  endfacet
  facet normal -0.595681 -0.803221 -0
    outer loop
      vertex -0.877801 -1.31372 -0.39
      vertex -1.00234 -1.22136 -0.88
      vertex -0.877801 -1.31372 -0.88
    endloop
  endfacet
  facet normal -0.514131 -0.857712 0
    outer loop
      vertex -0.877801 -1.31372 -0.88
      vertex -0.744806 -1.39344 -0.39
      vertex -0.877801 -1.31372 -0.39
    endloop
  endfacet
  facet normal -0.514131 -0.857712 -0
    outer loop
      vertex -0.744806 -1.39344 -0.39
      vertex -0.877801 -1.31372 -0.88
      vertex -0.744806 -1.39344 -0.88
    endloop
  endfacet
  facet normal -0.970024 0.243009 0
    outer loop
      vertex -1.54964 0.308242 -0.88
      vertex -1.51196 0.45865 -0.39
      vertex -1.51196 0.45865 -0.88
    endloop
  endfacet
  facet normal -0.970024 0.243009 0
    outer loop
      vertex -1.51196 0.45865 -0.39
      vertex -1.54964 0.308242 -0.88
      vertex -1.54964 0.308242 -0.39
    endloop
  endfacet
  facet normal -0.998795 0.04908 0
    outer loop
      vertex -1.58 0 -0.88
      vertex -1.57239 0.154866 -0.39
      vertex -1.57239 0.154866 -0.88
    endloop
  endfacet
  facet normal -0.998795 0.04908 0
    outer loop
      vertex -1.57239 0.154866 -0.39
      vertex -1.58 0 -0.88
      vertex -1.58 0 -0.39
    endloop
  endfacet
  facet normal 0.146723 -0.989178 0
    outer loop
      vertex 0.154866 -1.57239 -0.88
      vertex 0.308242 -1.54964 -0.39
      vertex 0.154866 -1.57239 -0.39
    endloop
  endfacet
  facet normal 0.146723 -0.989178 0
    outer loop
      vertex 0.308242 -1.54964 -0.39
      vertex 0.154866 -1.57239 -0.88
      vertex 0.308242 -1.54964 -0.88
    endloop
  endfacet
  facet normal 0.941556 0.336857 0
    outer loop
      vertex 1.51196 0.45865 -0.39
      vertex 1.45973 0.604639 -0.88
      vertex 1.45973 0.604639 -0.39
    endloop
  endfacet
  facet normal 0.941556 0.336857 0
    outer loop
      vertex 1.45973 0.604639 -0.88
      vertex 1.51196 0.45865 -0.39
      vertex 1.51196 0.45865 -0.88
    endloop
  endfacet
  facet normal 0.941556 -0.336857 0
    outer loop
      vertex 1.45973 -0.604639 -0.39
      vertex 1.51196 -0.45865 -0.88
      vertex 1.51196 -0.45865 -0.39
    endloop
  endfacet
  facet normal 0.941556 -0.336857 0
    outer loop
      vertex 1.51196 -0.45865 -0.88
      vertex 1.45973 -0.604639 -0.39
      vertex 1.45973 -0.604639 -0.88
    endloop
  endfacet
  facet normal 0.857712 -0.514131 0
    outer loop
      vertex 1.31372 -0.877801 -0.39
      vertex 1.39344 -0.744806 -0.88
      vertex 1.39344 -0.744806 -0.39
    endloop
  endfacet
  facet normal 0.857712 -0.514131 0
    outer loop
      vertex 1.39344 -0.744806 -0.88
      vertex 1.31372 -0.877801 -0.39
      vertex 1.31372 -0.877801 -0.88
    endloop
  endfacet
  facet normal 0.336857 -0.941556 0
    outer loop
      vertex 0.45865 -1.51196 -0.88
      vertex 0.604639 -1.45973 -0.39
      vertex 0.45865 -1.51196 -0.39
    endloop
  endfacet
  facet normal 0.336857 -0.941556 0
    outer loop
      vertex 0.604639 -1.45973 -0.39
      vertex 0.45865 -1.51196 -0.88
      vertex 0.604639 -1.45973 -0.88
    endloop
  endfacet
  facet normal -0.04908 -0.998795 0
    outer loop
      vertex -0.154866 -1.57239 -0.88
      vertex 0 -1.58 -0.39
      vertex -0.154866 -1.57239 -0.39
    endloop
  endfacet
  facet normal -0.04908 -0.998795 -0
    outer loop
      vertex 0 -1.58 -0.39
      vertex -0.154866 -1.57239 -0.88
      vertex 0 -1.58 -0.88
    endloop
  endfacet
  facet normal -0.427534 0.903999 0
    outer loop
      vertex -0.604639 1.45973 -0.88
      vertex -0.744806 1.39344 -0.39
      vertex -0.604639 1.45973 -0.39
    endloop
  endfacet
  facet normal -0.427534 0.903999 0
    outer loop
      vertex -0.744806 1.39344 -0.39
      vertex -0.604639 1.45973 -0.88
      vertex -0.744806 1.39344 -0.88
    endloop
  endfacet
  facet normal -0.740952 -0.671558 0
    outer loop
      vertex -1.11723 -1.11723 -0.88
      vertex -1.22136 -1.00234 -0.39
      vertex -1.22136 -1.00234 -0.88
    endloop
  endfacet
  facet normal -0.740952 -0.671558 0
    outer loop
      vertex -1.22136 -1.00234 -0.39
      vertex -1.11723 -1.11723 -0.88
      vertex -1.11723 -1.11723 -0.39
    endloop
  endfacet
  facet normal 0.970024 0.243009 0
    outer loop
      vertex 1.54964 0.308242 -0.39
      vertex 1.51196 0.45865 -0.88
      vertex 1.51196 0.45865 -0.39
    endloop
  endfacet
  facet normal 0.970024 0.243009 0
    outer loop
      vertex 1.51196 0.45865 -0.88
      vertex 1.54964 0.308242 -0.39
      vertex 1.54964 0.308242 -0.88
    endloop
  endfacet
  facet normal -0.146723 -0.989178 0
    outer loop
      vertex -0.308242 -1.54964 -0.88
      vertex -0.154866 -1.57239 -0.39
      vertex -0.308242 -1.54964 -0.39
    endloop
  endfacet
  facet normal -0.146723 -0.989178 -0
    outer loop
      vertex -0.154866 -1.57239 -0.39
      vertex -0.308242 -1.54964 -0.88
      vertex -0.154866 -1.57239 -0.88
    endloop
  endfacet
  facet normal 0.04908 0.998795 -0
    outer loop
      vertex 0.154866 1.57239 -0.88
      vertex 0 1.58 -0.39
      vertex 0.154866 1.57239 -0.39
    endloop
  endfacet
  facet normal 0.04908 0.998795 0
    outer loop
      vertex 0 1.58 -0.39
      vertex 0.154866 1.57239 -0.88
      vertex 0 1.58 -0.88
    endloop
  endfacet
  facet normal 0.803221 0.595681 0
    outer loop
      vertex 1.31372 0.877801 -0.39
      vertex 1.22136 1.00234 -0.88
      vertex 1.22136 1.00234 -0.39
    endloop
  endfacet
  facet normal 0.803221 0.595681 0
    outer loop
      vertex 1.22136 1.00234 -0.88
      vertex 1.31372 0.877801 -0.39
      vertex 1.31372 0.877801 -0.88
    endloop
  endfacet
  facet normal 0.857712 0.514131 0
    outer loop
      vertex 1.39344 0.744806 -0.39
      vertex 1.31372 0.877801 -0.88
      vertex 1.31372 0.877801 -0.39
    endloop
  endfacet
  facet normal 0.857712 0.514131 0
    outer loop
      vertex 1.31372 0.877801 -0.88
      vertex 1.39344 0.744806 -0.39
      vertex 1.39344 0.744806 -0.88
    endloop
  endfacet
  facet normal -0.146723 0.989178 0
    outer loop
      vertex -0.154866 1.57239 -0.88
      vertex -0.308242 1.54964 -0.39
      vertex -0.154866 1.57239 -0.39
    endloop
  endfacet
  facet normal -0.146723 0.989178 0
    outer loop
      vertex -0.308242 1.54964 -0.39
      vertex -0.154866 1.57239 -0.88
      vertex -0.308242 1.54964 -0.88
    endloop
  endfacet
  facet normal -0.336857 0.941556 0
    outer loop
      vertex -0.45865 1.51196 -0.88
      vertex -0.604639 1.45973 -0.39
      vertex -0.45865 1.51196 -0.39
    endloop
  endfacet
  facet normal -0.336857 0.941556 0
    outer loop
      vertex -0.604639 1.45973 -0.39
      vertex -0.45865 1.51196 -0.88
      vertex -0.604639 1.45973 -0.88
    endloop
  endfacet
  facet normal -0.857712 0.514131 0
    outer loop
      vertex -1.39344 0.744806 -0.88
      vertex -1.31372 0.877801 -0.39
      vertex -1.31372 0.877801 -0.88
    endloop
  endfacet
  facet normal -0.857712 0.514131 0
    outer loop
      vertex -1.31372 0.877801 -0.39
      vertex -1.39344 0.744806 -0.88
      vertex -1.39344 0.744806 -0.39
    endloop
  endfacet
  facet normal 0.671558 -0.740952 0
    outer loop
      vertex 1.00234 -1.22136 -0.88
      vertex 1.11723 -1.11723 -0.39
      vertex 1.00234 -1.22136 -0.39
    endloop
  endfacet
  facet normal 0.671558 -0.740952 0
    outer loop
      vertex 1.11723 -1.11723 -0.39
      vertex 1.00234 -1.22136 -0.88
      vertex 1.11723 -1.11723 -0.88
    endloop
  endfacet
  facet normal -0.336857 -0.941556 0
    outer loop
      vertex -0.604639 -1.45973 -0.88
      vertex -0.45865 -1.51196 -0.39
      vertex -0.604639 -1.45973 -0.39
    endloop
  endfacet
  facet normal -0.336857 -0.941556 -0
    outer loop
      vertex -0.45865 -1.51196 -0.39
      vertex -0.604639 -1.45973 -0.88
      vertex -0.45865 -1.51196 -0.88
    endloop
  endfacet
  facet normal -0.740952 0.671558 0
    outer loop
      vertex -1.22136 1.00234 -0.88
      vertex -1.11723 1.11723 -0.39
      vertex -1.11723 1.11723 -0.88
    endloop
  endfacet
  facet normal -0.740952 0.671558 0
    outer loop
      vertex -1.11723 1.11723 -0.39
      vertex -1.22136 1.00234 -0.88
      vertex -1.22136 1.00234 -0.39
    endloop
  endfacet
  facet normal -0.671558 -0.740952 0
    outer loop
      vertex -1.11723 -1.11723 -0.88
      vertex -1.00234 -1.22136 -0.39
      vertex -1.11723 -1.11723 -0.39
    endloop
  endfacet
  facet normal -0.671558 -0.740952 -0
    outer loop
      vertex -1.00234 -1.22136 -0.39
      vertex -1.11723 -1.11723 -0.88
      vertex -1.00234 -1.22136 -0.88
    endloop
  endfacet
  facet normal -0.903999 -0.427534 0
    outer loop
      vertex -1.39344 -0.744806 -0.88
      vertex -1.45973 -0.604639 -0.39
      vertex -1.45973 -0.604639 -0.88
    endloop
  endfacet
  facet normal -0.903999 -0.427534 0
    outer loop
      vertex -1.45973 -0.604639 -0.39
      vertex -1.39344 -0.744806 -0.88
      vertex -1.39344 -0.744806 -0.39
    endloop
  endfacet
  facet normal -0.514131 0.857712 0
    outer loop
      vertex -0.744806 1.39344 -0.88
      vertex -0.877801 1.31372 -0.39
      vertex -0.744806 1.39344 -0.39
    endloop
  endfacet
  facet normal -0.514131 0.857712 0
    outer loop
      vertex -0.877801 1.31372 -0.39
      vertex -0.744806 1.39344 -0.88
      vertex -0.877801 1.31372 -0.88
    endloop
  endfacet
  facet normal 0.336857 0.941556 -0
    outer loop
      vertex 0.604639 1.45973 -0.88
      vertex 0.45865 1.51196 -0.39
      vertex 0.604639 1.45973 -0.39
    endloop
  endfacet
  facet normal 0.336857 0.941556 0
    outer loop
      vertex 0.45865 1.51196 -0.39
      vertex 0.604639 1.45973 -0.88
      vertex 0.45865 1.51196 -0.88
    endloop
  endfacet
  facet normal -0.803221 0.595681 0
    outer loop
      vertex -1.31372 0.877801 -0.88
      vertex -1.22136 1.00234 -0.39
      vertex -1.22136 1.00234 -0.88
    endloop
  endfacet
  facet normal -0.803221 0.595681 0
    outer loop
      vertex -1.22136 1.00234 -0.39
      vertex -1.31372 0.877801 -0.88
      vertex -1.31372 0.877801 -0.39
    endloop
  endfacet
  facet normal -0.989178 0.146723 0
    outer loop
      vertex -1.57239 0.154866 -0.88
      vertex -1.54964 0.308242 -0.39
      vertex -1.54964 0.308242 -0.88
    endloop
  endfacet
  facet normal -0.989178 0.146723 0
    outer loop
      vertex -1.54964 0.308242 -0.39
      vertex -1.57239 0.154866 -0.88
      vertex -1.57239 0.154866 -0.39
    endloop
  endfacet
  facet normal -0.903999 0.427534 0
    outer loop
      vertex -1.45973 0.604639 -0.88
      vertex -1.39344 0.744806 -0.39
      vertex -1.39344 0.744806 -0.88
    endloop
  endfacet
  facet normal -0.903999 0.427534 0
    outer loop
      vertex -1.39344 0.744806 -0.39
      vertex -1.45973 0.604639 -0.88
      vertex -1.45973 0.604639 -0.39
    endloop
  endfacet
  facet normal 0.595681 0.803221 -0
    outer loop
      vertex 1.00234 1.22136 -0.88
      vertex 0.877801 1.31372 -0.39
      vertex 1.00234 1.22136 -0.39
    endloop
  endfacet
  facet normal 0.595681 0.803221 0
    outer loop
      vertex 0.877801 1.31372 -0.39
      vertex 1.00234 1.22136 -0.88
      vertex 0.877801 1.31372 -0.88
    endloop
  endfacet
  facet normal -0.243009 0.970024 0
    outer loop
      vertex -0.308242 1.54964 -0.88
      vertex -0.45865 1.51196 -0.39
      vertex -0.308242 1.54964 -0.39
    endloop
  endfacet
  facet normal -0.243009 0.970024 0
    outer loop
      vertex -0.45865 1.51196 -0.39
      vertex -0.308242 1.54964 -0.88
      vertex -0.45865 1.51196 -0.88
    endloop
  endfacet
  facet normal 0.740952 -0.671558 0
    outer loop
      vertex 1.11723 -1.11723 -0.39
      vertex 1.22136 -1.00234 -0.88
      vertex 1.22136 -1.00234 -0.39
    endloop
  endfacet
  facet normal 0.740952 -0.671558 0
    outer loop
      vertex 1.22136 -1.00234 -0.88
      vertex 1.11723 -1.11723 -0.39
      vertex 1.11723 -1.11723 -0.88
    endloop
  endfacet
  facet normal -0.671558 0.740952 0
    outer loop
      vertex -1.00234 1.22136 -0.88
      vertex -1.11723 1.11723 -0.39
      vertex -1.00234 1.22136 -0.39
    endloop
  endfacet
  facet normal -0.671558 0.740952 0
    outer loop
      vertex -1.11723 1.11723 -0.39
      vertex -1.00234 1.22136 -0.88
      vertex -1.11723 1.11723 -0.88
    endloop
  endfacet
  facet normal -0.803221 -0.595681 0
    outer loop
      vertex -1.22136 -1.00234 -0.88
      vertex -1.31372 -0.877801 -0.39
      vertex -1.31372 -0.877801 -0.88
    endloop
  endfacet
  facet normal -0.803221 -0.595681 0
    outer loop
      vertex -1.31372 -0.877801 -0.39
      vertex -1.22136 -1.00234 -0.88
      vertex -1.22136 -1.00234 -0.39
    endloop
  endfacet
  facet normal -0.857712 -0.514131 0
    outer loop
      vertex -1.31372 -0.877801 -0.88
      vertex -1.39344 -0.744806 -0.39
      vertex -1.39344 -0.744806 -0.88
    endloop
  endfacet
  facet normal -0.857712 -0.514131 0
    outer loop
      vertex -1.39344 -0.744806 -0.39
      vertex -1.31372 -0.877801 -0.88
      vertex -1.31372 -0.877801 -0.39
    endloop
  endfacet
  facet normal -0.04908 0.998795 0
    outer loop
      vertex 0 1.58 -0.88
      vertex -0.154866 1.57239 -0.39
      vertex 0 1.58 -0.39
    endloop
  endfacet
  facet normal -0.04908 0.998795 0
    outer loop
      vertex -0.154866 1.57239 -0.39
      vertex 0 1.58 -0.88
      vertex -0.154866 1.57239 -0.88
    endloop
  endfacet
  facet normal -0.998795 -0.04908 0
    outer loop
      vertex -1.57239 -0.154866 -0.88
      vertex -1.58 0 -0.39
      vertex -1.58 0 -0.88
    endloop
  endfacet
  facet normal -0.998795 -0.04908 0
    outer loop
      vertex -1.58 0 -0.39
      vertex -1.57239 -0.154866 -0.88
      vertex -1.57239 -0.154866 -0.39
    endloop
  endfacet
  facet normal 0.740952 0.671558 0
    outer loop
      vertex 1.22136 1.00234 -0.39
      vertex 1.11723 1.11723 -0.88
      vertex 1.11723 1.11723 -0.39
    endloop
  endfacet
  facet normal 0.740952 0.671558 0
    outer loop
      vertex 1.11723 1.11723 -0.88
      vertex 1.22136 1.00234 -0.39
      vertex 1.22136 1.00234 -0.88
    endloop
  endfacet
  facet normal 0.671558 0.740952 -0
    outer loop
      vertex 1.11723 1.11723 -0.88
      vertex 1.00234 1.22136 -0.39
      vertex 1.11723 1.11723 -0.39
    endloop
  endfacet
  facet normal 0.671558 0.740952 0
    outer loop
      vertex 1.00234 1.22136 -0.39
      vertex 1.11723 1.11723 -0.88
      vertex 1.00234 1.22136 -0.88
    endloop
  endfacet
endsolid OpenSCAD_Model
